<svg width="273.912109" height="273.612488" viewBox="0 0 273.912 273.612" fill="none" xmlns="http://www.w3.org/2000/svg" xmlns:xlink="http://www.w3.org/1999/xlink">
	<desc>
			Created with Pixso.
	</desc>
	<defs>
		<filter id="filter_14_3609_dd" x="0.000000" y="0.000000" width="273.912109" height="273.612488" filterUnits="userSpaceOnUse" color-interpolation-filters="sRGB">
			<feFlood flood-opacity="0" result="BackgroundImageFix"/>
			<feColorMatrix in="SourceAlpha" type="matrix" values="0 0 0 0 0 0 0 0 0 0 0 0 0 0 0 0 0 0 127 0" result="hardAlpha"/>
			<feMorphology radius="-11.3536" in="" result="BackgroundImageFix"/>
			<feOffset dx="0" dy="18.9227"/>
			<feGaussianBlur stdDeviation="21.1304"/>
			<feComposite in2="hardAlpha" operator="out" k2="-1" k3="1"/>
			<feColorMatrix type="matrix" values="0 0 0 0 0 0 0 0 0 0 0 0 0 0 0 0 0 0 0.3 0"/>
			<feBlend mode="normal" in2="BackgroundImageFix" result="effect_dropShadow_1"/>
			<feBlend mode="normal" in="SourceGraphic" in2="effect_dropShadow_1" result="shape"/>
		</filter>
	</defs>
	<g filter="url(#filter_14_3609_dd)">
		<rect id="Frame 2043683065" rx="18.775000" width="151.261551" height="151.029739" transform="translate(75.692383 30.353333) rotate(10.000001)" fill="#E9D4FF" fill-opacity="1.000000"/>
		<path id="?" d="M131.42 119.05Q129.2 121.33 128.49 125.33L142.72 127.84Q142.95 126.57 143.59 125.55Q144.03 124.84 144.68 124.26Q146.26 122.85 149.39 121.01Q152.24 119.3 154.09 117.85Q155.96 116.39 157.52 114.07Q159.1 111.75 159.67 108.49Q160.32 104.81 159.28 101.71Q158.3 98.8 155.84 96.39Q150.74 91.4 141.24 89.73Q132.77 88.24 126.21 90.3Q122.08 91.6 118.86 94.08Q116.97 95.53 115.39 97.39L126.19 105.87Q127.6 104.22 129.38 103.2Q130.21 102.72 131.13 102.38Q131.93 102.08 132.75 101.91Q134.89 101.47 137.2 101.88Q140.3 102.42 142 104.17Q142.95 105.13 143.25 106.27Q143.5 107.2 143.31 108.25Q143.24 108.66 143.1 109.06Q142.67 110.24 141.62 111.21Q140.25 112.48 137.56 114.24Q133.66 116.75 131.42 119.05ZM127.35 145.7Q129.19 147.21 131.88 147.68Q134.76 148.19 137.11 147.31Q138.03 146.96 138.87 146.4Q140.39 145.39 141.3 143.98Q142.18 142.62 142.48 140.9Q142.85 138.83 142.3 137.05Q141.89 135.71 140.97 134.54Q140.48 133.91 139.9 133.38Q137.92 131.6 134.83 131.06Q131.7 130.51 129.23 131.53Q128.53 131.82 127.9 132.23Q126.69 133 125.87 134.07Q124.71 135.58 124.33 137.7Q124.03 139.42 124.38 141Q124.75 142.63 125.83 144.1Q126.5 145.01 127.35 145.7Z" fill="#FFFFFF" fill-opacity="1.000000" fill-rule="evenodd"/>
		<path id="?" d="M128.49 125.33Q129.2 121.33 131.42 119.05Q133.66 116.75 137.56 114.24Q140.25 112.48 141.62 111.21Q143.02 109.92 143.31 108.25Q143.73 105.92 142 104.17Q140.3 102.42 137.2 101.88Q134 101.31 131.13 102.38Q128.27 103.44 126.19 105.87L115.39 97.39Q119.66 92.36 126.21 90.3Q132.77 88.24 141.24 89.73Q150.74 91.4 155.84 96.39Q160.93 101.37 159.67 108.49Q159.1 111.75 157.52 114.07Q155.96 116.39 154.09 117.85Q152.24 119.3 149.39 121.01Q146.26 122.85 144.68 124.26Q143.1 125.68 142.72 127.84L128.49 125.33ZM131.88 147.68Q127.96 146.99 125.83 144.1Q123.71 141.21 124.33 137.7Q124.97 134.09 127.9 132.23Q130.82 130.35 134.83 131.06Q138.83 131.76 140.97 134.54Q143.12 137.29 142.48 140.9Q141.86 144.41 138.87 146.4Q135.88 148.39 131.88 147.68Z" stroke="#202027" stroke-opacity="1.000000" stroke-width="0.634167"/>
		<rect id="Frame 2043683065" rx="18.775000" width="151.261551" height="151.029739" transform="translate(75.692383 30.353333) rotate(10.000001)" stroke="#202027" stroke-opacity="1.000000" stroke-width="0.500000"/>
	</g>
</svg>
