<svg width="3122" height="36" viewBox="0 0 3122 36" fill="none" xmlns="http://www.w3.org/2000/svg">
<path d="M17.16 16.05C18.44 16.43 19.42 17.05 20.1 17.91C20.78 18.77 21.12 19.83 21.12 21.09C21.12 22.95 20.41 24.4 18.99 25.44C17.59 26.48 15.58 27 12.96 27H2.61V6H12.39C14.83 6 16.73 6.47 18.09 7.41C19.45 8.35 20.13 9.69 20.13 11.43C20.13 12.47 19.87 13.39 19.35 14.19C18.83 14.97 18.1 15.59 17.16 16.05ZM7.44 14.7H11.97C13.03 14.7 13.83 14.49 14.37 14.07C14.91 13.63 15.18 12.99 15.18 12.15C15.18 11.33 14.9 10.7 14.34 10.26C13.8 9.82 13.01 9.6 11.97 9.6H7.44V14.7ZM12.78 23.4C15.06 23.4 16.2 22.5 16.2 20.7C16.2 18.96 15.06 18.09 12.78 18.09H7.44V23.4H12.78ZM26.1635 6H30.9935V19.68L41.0135 6H45.5735V27H40.7735V13.35L30.7535 27H26.1635V6ZM60.1322 18.54H56.7722V27H51.9422V6H56.7722V14.49H60.2522L65.7722 6H70.9022L64.0322 16.14L71.1122 27H65.5922L60.1322 18.54ZM90.4045 9.96H83.6845V27H78.8845V9.96H72.1945V6H90.4045V9.96ZM104.383 27.36C102.203 27.36 100.233 26.89 98.4731 25.95C96.7331 25.01 95.3631 23.72 94.3631 22.08C93.3831 20.42 92.8931 18.56 92.8931 16.5C92.8931 14.44 93.3831 12.59 94.3631 10.95C95.3631 9.29 96.7331 7.99 98.4731 7.05C100.233 6.11 102.203 5.64 104.383 5.64C106.563 5.64 108.523 6.11 110.263 7.05C112.003 7.99 113.373 9.29 114.373 10.95C115.373 12.59 115.873 14.44 115.873 16.5C115.873 18.56 115.373 20.42 114.373 22.08C113.373 23.72 112.003 25.01 110.263 25.95C108.523 26.89 106.563 27.36 104.383 27.36ZM104.383 23.22C105.623 23.22 106.743 22.94 107.743 22.38C108.743 21.8 109.523 21 110.083 19.98C110.663 18.96 110.953 17.8 110.953 16.5C110.953 15.2 110.663 14.04 110.083 13.02C109.523 12 108.743 11.21 107.743 10.65C106.743 10.07 105.623 9.78 104.383 9.78C103.143 9.78 102.023 10.07 101.023 10.65C100.023 11.21 99.2331 12 98.6531 13.02C98.0931 14.04 97.8131 15.2 97.8131 16.5C97.8131 17.8 98.0931 18.96 98.6531 19.98C99.2331 21 100.023 21.8 101.023 22.38C102.023 22.94 103.143 23.22 104.383 23.22ZM129.907 6C131.767 6 133.377 6.31 134.737 6.93C136.117 7.55 137.177 8.43 137.917 9.57C138.657 10.71 139.027 12.06 139.027 13.62C139.027 15.16 138.657 16.51 137.917 17.67C137.177 18.81 136.117 19.69 134.737 20.31C133.377 20.91 131.767 21.21 129.907 21.21H125.677V27H120.817V6H129.907ZM129.637 17.25C131.097 17.25 132.207 16.94 132.967 16.32C133.727 15.68 134.107 14.78 134.107 13.62C134.107 12.44 133.727 11.54 132.967 10.92C132.207 10.28 131.097 9.96 129.637 9.96H125.677V17.25H129.637ZM143.433 6H148.263V19.68L158.283 6H162.843V27H158.043V13.35L148.023 27H143.433V6ZM188.532 6V27H183.672V18.39H174.132V27H169.272V6H174.132V14.28H183.672V6H188.532ZM209.213 22.5H199.463L197.603 27H192.623L201.983 6H206.783L216.173 27H211.073L209.213 22.5ZM207.683 18.81L204.353 10.77L201.023 18.81H207.683Z" fill="#202027"/>
<path d="M286 0L290.862 13.1384L304 18L290.862 22.8616L286 36L281.138 22.8616L268 18L281.138 13.1384L286 0Z" fill="#202027"/>
<path d="M376.57 6L367.63 22.62C366.77 24.22 365.73 25.43 364.51 26.25C363.31 27.07 362 27.48 360.58 27.48C359.48 27.48 358.34 27.24 357.16 26.76L358.33 23.07C359.17 23.33 359.87 23.46 360.43 23.46C361.03 23.46 361.57 23.32 362.05 23.04C362.53 22.74 362.97 22.28 363.37 21.66L363.55 21.42L355.27 6H360.46L366.04 17.28L371.8 6H376.57ZM394.87 9.96H384.88L384.91 27H380.08V6H394.9L394.87 9.96ZM409.21 22.5H399.46L397.6 27H392.62L401.98 6H406.78L416.17 27H411.07L409.21 22.5ZM407.68 18.81L404.35 10.77L401.02 18.81H407.68ZM441.991 23.04V31.35H437.491V27H422.671V31.35H418.171L418.201 23.04H419.041C420.301 23 421.191 22.08 421.711 20.28C422.231 18.48 422.551 15.91 422.671 12.57L422.911 6H439.051V23.04H441.991ZM426.961 13.02C426.861 15.52 426.651 17.62 426.331 19.32C426.011 21 425.521 22.24 424.861 23.04H434.251V9.96H427.051L426.961 13.02ZM460.859 22.5H451.109L449.249 27H444.269L453.629 6H458.429L467.819 27H462.719L460.859 22.5ZM459.329 18.81L455.999 10.77L452.669 18.81H459.329ZM471.803 6H476.633V19.68L486.653 6H491.213V27H486.413V13.35L476.393 27H471.803V6ZM481.493 4.65C477.653 4.65 475.713 3.12 475.673 0.0599982H479.003C479.043 1.52 479.873 2.25 481.493 2.25C482.293 2.25 482.903 2.07 483.323 1.71C483.743 1.33 483.963 0.779998 483.983 0.0599982H487.313C487.293 1.56 486.803 2.7 485.843 3.48C484.883 4.26 483.433 4.65 481.493 4.65ZM524.588 6V27H519.788V19.44C517.968 20.1 516.278 20.43 514.718 20.43C511.898 20.43 509.738 19.76 508.238 18.42C506.738 17.06 505.988 15.11 505.988 12.57V6H510.788V12.03C510.788 13.47 511.168 14.56 511.928 15.3C512.708 16.02 513.828 16.38 515.288 16.38C516.888 16.38 518.388 16.07 519.788 15.45V6H524.588ZM531.009 6H535.839V19.68L545.859 6H550.419V27H545.619V13.35L535.599 27H531.009V6ZM566.777 27.36C564.637 27.36 562.697 26.9 560.957 25.98C559.237 25.04 557.877 23.75 556.877 22.11C555.897 20.45 555.407 18.58 555.407 16.5C555.407 14.42 555.897 12.56 556.877 10.92C557.877 9.26 559.237 7.97 560.957 7.05C562.697 6.11 564.647 5.64 566.807 5.64C568.627 5.64 570.267 5.96 571.727 6.6C573.207 7.24 574.447 8.16 575.447 9.36L572.327 12.24C570.907 10.6 569.147 9.78 567.047 9.78C565.747 9.78 564.587 10.07 563.567 10.65C562.547 11.21 561.747 12 561.167 13.02C560.607 14.04 560.327 15.2 560.327 16.5C560.327 17.8 560.607 18.96 561.167 19.98C561.747 21 562.547 21.8 563.567 22.38C564.587 22.94 565.747 23.22 567.047 23.22C569.147 23.22 570.907 22.39 572.327 20.73L575.447 23.61C574.447 24.83 573.207 25.76 571.727 26.4C570.247 27.04 568.597 27.36 566.777 27.36ZM598.037 6V27H593.237V9.96H586.037L585.887 14.34C585.787 17.32 585.547 19.74 585.167 21.6C584.787 23.44 584.147 24.86 583.247 25.86C582.367 26.84 581.127 27.33 579.527 27.33C578.867 27.33 578.067 27.22 577.127 27L577.427 22.89C577.687 22.97 577.977 23.01 578.297 23.01C579.457 23.01 580.267 22.33 580.727 20.97C581.187 19.59 581.477 17.44 581.597 14.52L581.897 6H598.037ZM614.502 27.36C612.322 27.36 610.352 26.89 608.592 25.95C606.852 25.01 605.482 23.72 604.482 22.08C603.502 20.42 603.012 18.56 603.012 16.5C603.012 14.44 603.502 12.59 604.482 10.95C605.482 9.29 606.852 7.99 608.592 7.05C610.352 6.11 612.322 5.64 614.502 5.64C616.682 5.64 618.642 6.11 620.382 7.05C622.122 7.99 623.492 9.29 624.492 10.95C625.492 12.59 625.992 14.44 625.992 16.5C625.992 18.56 625.492 20.42 624.492 22.08C623.492 23.72 622.122 25.01 620.382 25.95C618.642 26.89 616.682 27.36 614.502 27.36ZM614.502 23.22C615.742 23.22 616.862 22.94 617.862 22.38C618.862 21.8 619.642 21 620.202 19.98C620.782 18.96 621.072 17.8 621.072 16.5C621.072 15.2 620.782 14.04 620.202 13.02C619.642 12 618.862 11.21 617.862 10.65C616.862 10.07 615.742 9.78 614.502 9.78C613.262 9.78 612.142 10.07 611.142 10.65C610.142 11.21 609.352 12 608.772 13.02C608.212 14.04 607.932 15.2 607.932 16.5C607.932 17.8 608.212 18.96 608.772 19.98C609.352 21 610.142 21.8 611.142 22.38C612.142 22.94 613.262 23.22 614.502 23.22Z" fill="#202027"/>
<path d="M697 0L701.862 13.1384L715 18L701.862 22.8616L697 36L692.138 22.8616L679 18L692.138 13.1384L697 0Z" fill="#202027"/>
<path d="M787.75 6V27H782.92V9.96H773.44V27H768.61V6H787.75ZM810.416 23.1V27H794.156V6H810.026V9.9H798.986V14.46H808.736V18.24H798.986V23.1H810.416ZM824.631 6C826.491 6 828.101 6.31 829.461 6.93C830.841 7.55 831.901 8.43 832.641 9.57C833.381 10.71 833.751 12.06 833.751 13.62C833.751 15.16 833.381 16.51 832.641 17.67C831.901 18.81 830.841 19.69 829.461 20.31C828.101 20.91 826.491 21.21 824.631 21.21H820.401V27H815.541V6H824.631ZM824.361 17.25C825.821 17.25 826.931 16.94 827.691 16.32C828.451 15.68 828.831 14.78 828.831 13.62C828.831 12.44 828.451 11.54 827.691 10.92C826.931 10.28 825.821 9.96 824.361 9.96H820.401V17.25H824.361ZM854.417 23.1V27H838.157V6H854.027V9.9H842.987V14.46H852.737V18.24H842.987V23.1H854.417ZM874.093 16.05C875.373 16.43 876.353 17.05 877.033 17.91C877.713 18.77 878.053 19.83 878.053 21.09C878.053 22.95 877.343 24.4 875.923 25.44C874.523 26.48 872.513 27 869.893 27H859.543V6H869.323C871.763 6 873.663 6.47 875.023 7.41C876.383 8.35 877.063 9.69 877.063 11.43C877.063 12.47 876.803 13.39 876.283 14.19C875.763 14.97 875.033 15.59 874.093 16.05ZM864.373 14.7H868.903C869.963 14.7 870.763 14.49 871.303 14.07C871.843 13.63 872.113 12.99 872.113 12.15C872.113 11.33 871.833 10.7 871.273 10.26C870.733 9.82 869.943 9.6 868.903 9.6H864.373V14.7ZM869.713 23.4C871.993 23.4 873.133 22.5 873.133 20.7C873.133 18.96 871.993 18.09 869.713 18.09H864.373V23.4H869.713ZM899.356 23.1V27H883.096V6H898.966V9.9H887.926V14.46H897.676V18.24H887.926V23.1H899.356ZM913.572 6C915.432 6 917.042 6.31 918.402 6.93C919.782 7.55 920.842 8.43 921.582 9.57C922.322 10.71 922.692 12.06 922.692 13.62C922.692 15.16 922.322 16.51 921.582 17.67C920.842 18.81 919.782 19.69 918.402 20.31C917.042 20.91 915.432 21.21 913.572 21.21H909.342V27H904.482V6H913.572ZM913.302 17.25C914.762 17.25 915.872 16.94 916.632 16.32C917.392 15.68 917.772 14.78 917.772 13.62C917.772 12.44 917.392 11.54 916.632 10.92C915.872 10.28 914.762 9.96 913.302 9.96H909.342V17.25H913.302ZM946.358 6V27H941.498V18.39H931.958V27H927.098V6H931.958V14.28H941.498V6H946.358ZM952.819 6H957.649V19.68L967.669 6H972.229V27H967.429V13.35L957.409 27H952.819V6ZM1004.4 9.96H997.684V27H992.884V9.96H986.194V6H1004.4V9.96ZM1024.92 23.1V27H1008.66V6H1024.53V9.9H1013.49V14.46H1023.24V18.24H1013.49V23.1H1024.92ZM1038.17 18.54H1034.81V27H1029.98V6H1034.81V14.49H1038.29L1043.81 6H1048.94L1042.07 16.14L1049.15 27H1043.63L1038.17 18.54ZM1062.47 27.36C1060.33 27.36 1058.39 26.9 1056.65 25.98C1054.93 25.04 1053.57 23.75 1052.57 22.11C1051.59 20.45 1051.1 18.58 1051.1 16.5C1051.1 14.42 1051.59 12.56 1052.57 10.92C1053.57 9.26 1054.93 7.97 1056.65 7.05C1058.39 6.11 1060.34 5.64 1062.5 5.64C1064.32 5.64 1065.96 5.96 1067.42 6.6C1068.9 7.24 1070.14 8.16 1071.14 9.36L1068.02 12.24C1066.6 10.6 1064.84 9.78 1062.74 9.78C1061.44 9.78 1060.28 10.07 1059.26 10.65C1058.24 11.21 1057.44 12 1056.86 13.02C1056.3 14.04 1056.02 15.2 1056.02 16.5C1056.02 17.8 1056.3 18.96 1056.86 19.98C1057.44 21 1058.24 21.8 1059.26 22.38C1060.28 22.94 1061.44 23.22 1062.74 23.22C1064.84 23.22 1066.6 22.39 1068.02 20.73L1071.14 23.61C1070.14 24.83 1068.9 25.76 1067.42 26.4C1065.94 27.04 1064.29 27.36 1062.47 27.36ZM1091.35 9.96H1084.63V27H1079.83V9.96H1073.14V6H1091.35V9.96Z" fill="#202027"/>
<path d="M1161 0L1165.86 13.1384L1179 18L1165.86 22.8616L1161 36L1156.14 22.8616L1143 18L1156.14 13.1384L1161 0Z" fill="#202027"/>
<path d="M1251.75 6V27H1246.92V9.96H1237.44V27H1232.61V6H1251.75ZM1267.25 6C1269.11 6 1270.72 6.31 1272.08 6.93C1273.46 7.55 1274.52 8.43 1275.26 9.57C1276 10.71 1276.37 12.06 1276.37 13.62C1276.37 15.16 1276 16.51 1275.26 17.67C1274.52 18.81 1273.46 19.69 1272.08 20.31C1270.72 20.91 1269.11 21.21 1267.25 21.21H1263.02V27H1258.16V6H1267.25ZM1266.98 17.25C1268.44 17.25 1269.55 16.94 1270.31 16.32C1271.07 15.68 1271.45 14.78 1271.45 13.62C1271.45 12.44 1271.07 11.54 1270.31 10.92C1269.55 10.28 1268.44 9.96 1266.98 9.96H1263.02V17.25H1266.98ZM1291.08 27.36C1288.9 27.36 1286.93 26.89 1285.17 25.95C1283.43 25.01 1282.06 23.72 1281.06 22.08C1280.08 20.42 1279.59 18.56 1279.59 16.5C1279.59 14.44 1280.08 12.59 1281.06 10.95C1282.06 9.29 1283.43 7.99 1285.17 7.05C1286.93 6.11 1288.9 5.64 1291.08 5.64C1293.26 5.64 1295.22 6.11 1296.96 7.05C1298.7 7.99 1300.07 9.29 1301.07 10.95C1302.07 12.59 1302.57 14.44 1302.57 16.5C1302.57 18.56 1302.07 20.42 1301.07 22.08C1300.07 23.72 1298.7 25.01 1296.96 25.95C1295.22 26.89 1293.26 27.36 1291.08 27.36ZM1291.08 23.22C1292.32 23.22 1293.44 22.94 1294.44 22.38C1295.44 21.8 1296.22 21 1296.78 19.98C1297.36 18.96 1297.65 17.8 1297.65 16.5C1297.65 15.2 1297.36 14.04 1296.78 13.02C1296.22 12 1295.44 11.21 1294.44 10.65C1293.44 10.07 1292.32 9.78 1291.08 9.78C1289.84 9.78 1288.72 10.07 1287.72 10.65C1286.72 11.21 1285.93 12 1285.35 13.02C1284.79 14.04 1284.51 15.2 1284.51 16.5C1284.51 17.8 1284.79 18.96 1285.35 19.98C1285.93 21 1286.72 21.8 1287.72 22.38C1288.72 22.94 1289.84 23.22 1291.08 23.22ZM1317.45 27.36C1315.31 27.36 1313.37 26.9 1311.63 25.98C1309.91 25.04 1308.55 23.75 1307.55 22.11C1306.57 20.45 1306.08 18.58 1306.08 16.5C1306.08 14.42 1306.57 12.56 1307.55 10.92C1308.55 9.26 1309.91 7.97 1311.63 7.05C1313.37 6.11 1315.32 5.64 1317.48 5.64C1319.3 5.64 1320.94 5.96 1322.4 6.6C1323.88 7.24 1325.12 8.16 1326.12 9.36L1323 12.24C1321.58 10.6 1319.82 9.78 1317.72 9.78C1316.42 9.78 1315.26 10.07 1314.24 10.65C1313.22 11.21 1312.42 12 1311.84 13.02C1311.28 14.04 1311 15.2 1311 16.5C1311 17.8 1311.28 18.96 1311.84 19.98C1312.42 21 1313.22 21.8 1314.24 22.38C1315.26 22.94 1316.42 23.22 1317.72 23.22C1319.82 23.22 1321.58 22.39 1323 20.73L1326.12 23.61C1325.12 24.83 1323.88 25.76 1322.4 26.4C1320.92 27.04 1319.27 27.36 1317.45 27.36ZM1346.33 9.96H1339.61V27H1334.81V9.96H1328.12V6H1346.33V9.96ZM1363.75 22.5H1354L1352.14 27H1347.16L1356.52 6H1361.32L1370.71 27H1365.61L1363.75 22.5ZM1362.22 18.81L1358.89 10.77L1355.56 18.81H1362.22ZM1390.38 6V27H1385.58V21.42H1381.14L1377.42 27H1372.29L1376.67 20.67C1375.25 20.09 1374.16 19.22 1373.4 18.06C1372.64 16.88 1372.26 15.47 1372.26 13.83C1372.26 12.21 1372.63 10.82 1373.37 9.66C1374.11 8.48 1375.16 7.58 1376.52 6.96C1377.88 6.32 1379.48 6 1381.32 6H1390.38ZM1381.44 9.96C1380.06 9.96 1379 10.28 1378.26 10.92C1377.54 11.56 1377.18 12.51 1377.18 13.77C1377.18 14.99 1377.53 15.93 1378.23 16.59C1378.93 17.25 1379.96 17.58 1381.32 17.58H1385.58V9.96H1381.44ZM1420.76 22.5H1411.01L1409.15 27H1404.17L1413.53 6H1418.33L1427.72 27H1422.62L1420.76 22.5ZM1419.23 18.81L1415.9 10.77L1412.57 18.81H1419.23ZM1440.79 6C1442.65 6 1444.26 6.31 1445.62 6.93C1447 7.55 1448.06 8.43 1448.8 9.57C1449.54 10.71 1449.91 12.06 1449.91 13.62C1449.91 15.16 1449.54 16.51 1448.8 17.67C1448.06 18.81 1447 19.69 1445.62 20.31C1444.26 20.91 1442.65 21.21 1440.79 21.21H1436.56V27H1431.7V6H1440.79ZM1440.52 17.25C1441.98 17.25 1443.09 16.94 1443.85 16.32C1444.61 15.68 1444.99 14.78 1444.99 13.62C1444.99 12.44 1444.61 11.54 1443.85 10.92C1443.09 10.28 1441.98 9.96 1440.52 9.96H1436.56V17.25H1440.52ZM1454.32 6H1459.15V19.68L1469.17 6H1473.73V27H1468.93V13.35L1458.91 27H1454.32V6ZM1505.03 16.44C1505.03 19.22 1504.08 21.41 1502.18 23.01C1500.3 24.59 1497.59 25.47 1494.05 25.65V27.93H1489.58V25.62C1486.02 25.42 1483.29 24.53 1481.39 22.95C1479.51 21.35 1478.57 19.18 1478.57 16.44C1478.57 13.68 1479.51 11.52 1481.39 9.96C1483.29 8.38 1486.02 7.48 1489.58 7.26V5.1H1494.05V7.23C1497.59 7.43 1500.3 8.33 1502.18 9.93C1504.08 11.53 1505.03 13.7 1505.03 16.44ZM1494.05 21.84C1496.17 21.64 1497.75 21.1 1498.79 20.22C1499.83 19.32 1500.35 18.05 1500.35 16.41C1500.35 13.21 1498.25 11.43 1494.05 11.07V21.84ZM1483.28 16.44C1483.28 19.6 1485.38 21.4 1489.58 21.84V11.07C1487.44 11.27 1485.85 11.81 1484.81 12.69C1483.79 13.55 1483.28 14.8 1483.28 16.44ZM1528.97 27L1528.94 14.43L1522.76 24.78H1520.6L1514.42 14.67V27H1509.86V6H1513.88L1521.74 19.05L1529.48 6H1533.5L1533.53 27H1528.97ZM1556.21 23.1V27H1539.95V6H1555.82V9.9H1544.78V14.46H1554.53V18.24H1544.78V23.1H1556.21ZM1577.38 9.96H1570.66V27H1565.86V9.96H1559.17V6H1577.38V9.96ZM1581.64 6H1586.47V19.68L1596.49 6H1601.05V27H1596.25V13.35L1586.23 27H1581.64V6ZM1615.6 18.54H1612.24V27H1607.41V6H1612.24V14.49H1615.72L1621.24 6H1626.37L1619.5 16.14L1626.58 27H1621.06L1615.6 18.54ZM1643.87 22.5H1634.12L1632.26 27H1627.28L1636.64 6H1641.44L1650.83 27H1645.73L1643.87 22.5ZM1642.34 18.81L1639.01 10.77L1635.68 18.81H1642.34Z" fill="#202027"/>
<path d="M1721 0L1725.86 13.1384L1739 18L1725.86 22.8616L1721 36L1716.14 22.8616L1703 18L1716.14 13.1384L1721 0Z" fill="#202027"/>
<path d="M1800.74 18.54H1797.38V27H1792.55V6H1797.38V14.49H1800.86L1806.38 6H1811.51L1804.64 16.14L1811.72 27H1806.2L1800.74 18.54ZM1829.01 22.5H1819.26L1817.4 27H1812.42L1821.78 6H1826.58L1835.97 27H1830.87L1829.01 22.5ZM1827.48 18.81L1824.15 10.77L1820.82 18.81H1827.48ZM1859.06 27L1859.03 14.43L1852.85 24.78H1850.69L1844.51 14.67V27H1839.95V6H1843.97L1851.83 19.05L1859.57 6H1863.59L1863.62 27H1859.06ZM1886.3 23.1V27H1870.04V6H1885.91V9.9H1874.87V14.46H1884.62V18.24H1874.87V23.1H1886.3ZM1910.68 6V27H1905.82V18.39H1896.28V27H1891.42V6H1896.28V14.28H1905.82V6H1910.68ZM1927.32 12.9C1929.88 12.9 1931.84 13.47 1933.2 14.61C1934.58 15.75 1935.27 17.44 1935.27 19.68C1935.27 22.06 1934.51 23.88 1932.99 25.14C1931.49 26.38 1929.37 27 1926.63 27H1917.15V6H1921.98V12.9H1927.32ZM1926.36 23.4C1927.62 23.4 1928.6 23.09 1929.3 22.47C1930.02 21.85 1930.38 20.95 1930.38 19.77C1930.38 17.59 1929.04 16.5 1926.36 16.5H1921.98V23.4H1926.36ZM1940.96 21.42C1941.8 21.42 1942.49 21.69 1943.03 22.23C1943.57 22.75 1943.84 23.44 1943.84 24.3C1943.84 24.7 1943.79 25.1 1943.69 25.5C1943.59 25.9 1943.37 26.5 1943.03 27.3L1941.32 31.62H1938.35L1939.67 26.85C1939.17 26.65 1938.77 26.33 1938.47 25.89C1938.19 25.43 1938.05 24.9 1938.05 24.3C1938.05 23.44 1938.32 22.75 1938.86 22.23C1939.42 21.69 1940.12 21.42 1940.96 21.42ZM1977.62 6V27H1972.76V18.39H1963.22V27H1958.36V6H1963.22V14.28H1972.76V6H1977.62ZM1994.1 27.36C1991.92 27.36 1989.95 26.89 1988.19 25.95C1986.45 25.01 1985.08 23.72 1984.08 22.08C1983.1 20.42 1982.61 18.56 1982.61 16.5C1982.61 14.44 1983.1 12.59 1984.08 10.95C1985.08 9.29 1986.45 7.99 1988.19 7.05C1989.95 6.11 1991.92 5.64 1994.1 5.64C1996.28 5.64 1998.24 6.11 1999.98 7.05C2001.72 7.99 2003.09 9.29 2004.09 10.95C2005.09 12.59 2005.59 14.44 2005.59 16.5C2005.59 18.56 2005.09 20.42 2004.09 22.08C2003.09 23.72 2001.72 25.01 1999.98 25.95C1998.24 26.89 1996.28 27.36 1994.1 27.36ZM1994.1 23.22C1995.34 23.22 1996.46 22.94 1997.46 22.38C1998.46 21.8 1999.24 21 1999.8 19.98C2000.38 18.96 2000.67 17.8 2000.67 16.5C2000.67 15.2 2000.38 14.04 1999.8 13.02C1999.24 12 1998.46 11.21 1997.46 10.65C1996.46 10.07 1995.34 9.78 1994.1 9.78C1992.86 9.78 1991.74 10.07 1990.74 10.65C1989.74 11.21 1988.95 12 1988.37 13.02C1987.81 14.04 1987.53 15.2 1987.53 16.5C1987.53 17.8 1987.81 18.96 1988.37 19.98C1988.95 21 1989.74 21.8 1990.74 22.38C1991.74 22.94 1992.86 23.22 1994.1 23.22ZM2028.83 18.54H2025.77V27H2021V18.54H2017.88L2013.17 27H2007.56L2013.86 16.02L2007.95 6H2013.08L2017.79 14.49H2021V6H2025.77V14.49H2028.89L2033.63 6H2038.76L2032.88 16.02L2039.15 27H2033.54L2028.83 18.54ZM2061.94 6V27H2057.08V18.39H2047.54V27H2042.68V6H2047.54V14.28H2057.08V6H2061.94ZM2068.4 6H2073.23V19.68L2083.25 6H2087.81V27H2083.01V13.35L2072.99 27H2068.4V6ZM2116.26 23.04V31.44H2111.79V27H2094.24V6H2099.07V23.04H2108.43V6H2113.26V23.04H2116.26ZM2130.83 12.9C2133.39 12.9 2135.35 13.47 2136.71 14.61C2138.09 15.75 2138.78 17.44 2138.78 19.68C2138.78 22.06 2138.02 23.88 2136.5 25.14C2135 26.38 2132.88 27 2130.14 27H2120.66V6H2125.49V12.9H2130.83ZM2129.87 23.4C2131.13 23.4 2132.11 23.09 2132.81 22.47C2133.53 21.85 2133.89 20.95 2133.89 19.77C2133.89 17.59 2132.55 16.5 2129.87 16.5H2125.49V23.4H2129.87ZM2141.45 6H2146.28V27H2141.45V6ZM2154.06 21.42C2154.9 21.42 2155.59 21.69 2156.13 22.23C2156.67 22.75 2156.94 23.44 2156.94 24.3C2156.94 24.7 2156.89 25.1 2156.79 25.5C2156.69 25.9 2156.47 26.5 2156.13 27.3L2154.42 31.62H2151.45L2152.77 26.85C2152.27 26.65 2151.87 26.33 2151.57 25.89C2151.29 25.43 2151.15 24.9 2151.15 24.3C2151.15 23.44 2151.42 22.75 2151.96 22.23C2152.52 21.69 2153.22 21.42 2154.06 21.42ZM2171.46 6H2188.41V9.87H2176.29V14.19H2182.11C2184.65 14.19 2186.58 14.72 2187.9 15.78C2189.24 16.84 2189.91 18.37 2189.91 20.37C2189.91 22.47 2189.17 24.1 2187.69 25.26C2186.21 26.42 2184.12 27 2181.42 27H2171.46V6ZM2181.15 23.4C2182.39 23.4 2183.34 23.16 2184 22.68C2184.66 22.18 2184.99 21.46 2184.99 20.52C2184.99 18.68 2183.71 17.76 2181.15 17.76H2176.29V23.4H2181.15ZM2212.97 6L2204.03 22.62C2203.17 24.22 2202.13 25.43 2200.91 26.25C2199.71 27.07 2198.4 27.48 2196.98 27.48C2195.88 27.48 2194.74 27.24 2193.56 26.76L2194.73 23.07C2195.57 23.33 2196.27 23.46 2196.83 23.46C2197.43 23.46 2197.97 23.32 2198.45 23.04C2198.93 22.74 2199.37 22.28 2199.77 21.66L2199.95 21.42L2191.67 6H2196.86L2202.44 17.28L2208.2 6H2212.97ZM2235.59 27L2235.56 14.43L2229.38 24.78H2227.22L2221.04 14.67V27H2216.48V6H2220.5L2228.36 19.05L2236.1 6H2240.12L2240.15 27H2235.59ZM2260.79 22.5H2251.04L2249.18 27H2244.2L2253.56 6H2258.36L2267.75 27H2262.65L2260.79 22.5ZM2259.26 18.81L2255.93 10.77L2252.6 18.81H2259.26ZM2286.53 9.96H2276.54L2276.57 27H2271.74V6H2286.56L2286.53 9.96ZM2300.87 22.5H2291.12L2289.26 27H2284.28L2293.64 6H2298.44L2307.83 27H2302.73L2300.87 22.5ZM2299.34 18.81L2296.01 10.77L2292.68 18.81H2299.34Z" fill="#202027"/>
<path d="M2378 0L2382.86 13.1384L2396 18L2382.86 22.8616L2378 36L2373.14 22.8616L2360 18L2373.14 13.1384L2378 0Z" fill="#202027"/>
<path d="M2464.4 9.96H2454.41L2454.44 27H2449.61V6H2464.43L2464.4 9.96ZM2484.85 23.1V27H2468.59V6H2484.46V9.9H2473.42V14.46H2483.17V18.24H2473.42V23.1H2484.85ZM2509.24 6V27H2504.38V18.39H2494.84V27H2489.98V6H2494.84V14.28H2504.38V6H2509.24ZM2531.96 23.1V27H2515.7V6H2531.57V9.9H2520.53V14.46H2530.28V18.24H2520.53V23.1H2531.96ZM2546.18 6C2548.04 6 2549.65 6.31 2551.01 6.93C2552.39 7.55 2553.45 8.43 2554.19 9.57C2554.93 10.71 2555.3 12.06 2555.3 13.62C2555.3 15.16 2554.93 16.51 2554.19 17.67C2553.45 18.81 2552.39 19.69 2551.01 20.31C2549.65 20.91 2548.04 21.21 2546.18 21.21H2541.95V27H2537.09V6H2546.18ZM2545.91 17.25C2547.37 17.25 2548.48 16.94 2549.24 16.32C2550 15.68 2550.38 14.78 2550.38 13.62C2550.38 12.44 2550 11.54 2549.24 10.92C2548.48 10.28 2547.37 9.96 2545.91 9.96H2541.95V17.25H2545.91ZM2572.87 22.5H2563.12L2561.26 27H2556.28L2565.64 6H2570.44L2579.83 27H2574.73L2572.87 22.5ZM2571.34 18.81L2568.01 10.77L2564.68 18.81H2571.34ZM2598.81 9.96H2592.09V27H2587.29V9.96H2580.6V6H2598.81V9.96ZM2612.79 27.36C2610.61 27.36 2608.64 26.89 2606.88 25.95C2605.14 25.01 2603.77 23.72 2602.77 22.08C2601.79 20.42 2601.3 18.56 2601.3 16.5C2601.3 14.44 2601.79 12.59 2602.77 10.95C2603.77 9.29 2605.14 7.99 2606.88 7.05C2608.64 6.11 2610.61 5.64 2612.79 5.64C2614.97 5.64 2616.93 6.11 2618.67 7.05C2620.41 7.99 2621.78 9.29 2622.78 10.95C2623.78 12.59 2624.28 14.44 2624.28 16.5C2624.28 18.56 2623.78 20.42 2622.78 22.08C2621.78 23.72 2620.41 25.01 2618.67 25.95C2616.93 26.89 2614.97 27.36 2612.79 27.36ZM2612.79 23.22C2614.03 23.22 2615.15 22.94 2616.15 22.38C2617.15 21.8 2617.93 21 2618.49 19.98C2619.07 18.96 2619.36 17.8 2619.36 16.5C2619.36 15.2 2619.07 14.04 2618.49 13.02C2617.93 12 2617.15 11.21 2616.15 10.65C2615.15 10.07 2614.03 9.78 2612.79 9.78C2611.55 9.78 2610.43 10.07 2609.43 10.65C2608.43 11.21 2607.64 12 2607.06 13.02C2606.5 14.04 2606.22 15.2 2606.22 16.5C2606.22 17.8 2606.5 18.96 2607.06 19.98C2607.64 21 2608.43 21.8 2609.43 22.38C2610.43 22.94 2611.55 23.22 2612.79 23.22ZM2638.31 6C2640.17 6 2641.78 6.31 2643.14 6.93C2644.52 7.55 2645.58 8.43 2646.32 9.57C2647.06 10.71 2647.43 12.06 2647.43 13.62C2647.43 15.16 2647.06 16.51 2646.32 17.67C2645.58 18.81 2644.52 19.69 2643.14 20.31C2641.78 20.91 2640.17 21.21 2638.31 21.21H2634.08V27H2629.22V6H2638.31ZM2638.04 17.25C2639.5 17.25 2640.61 16.94 2641.37 16.32C2642.13 15.68 2642.51 14.78 2642.51 13.62C2642.51 12.44 2642.13 11.54 2641.37 10.92C2640.61 10.28 2639.5 9.96 2638.04 9.96H2634.08V17.25H2638.04ZM2671.75 27.36C2669.61 27.36 2667.67 26.9 2665.93 25.98C2664.21 25.04 2662.85 23.75 2661.85 22.11C2660.87 20.45 2660.38 18.58 2660.38 16.5C2660.38 14.42 2660.87 12.56 2661.85 10.92C2662.85 9.26 2664.21 7.97 2665.93 7.05C2667.67 6.11 2669.62 5.64 2671.78 5.64C2673.6 5.64 2675.24 5.96 2676.7 6.6C2678.18 7.24 2679.42 8.16 2680.42 9.36L2677.3 12.24C2675.88 10.6 2674.12 9.78 2672.02 9.78C2670.72 9.78 2669.56 10.07 2668.54 10.65C2667.52 11.21 2666.72 12 2666.14 13.02C2665.58 14.04 2665.3 15.2 2665.3 16.5C2665.3 17.8 2665.58 18.96 2666.14 19.98C2666.72 21 2667.52 21.8 2668.54 22.38C2669.56 22.94 2670.72 23.22 2672.02 23.22C2674.12 23.22 2675.88 22.39 2677.3 20.73L2680.42 23.61C2679.42 24.83 2678.18 25.76 2676.7 26.4C2675.22 27.04 2673.57 27.36 2671.75 27.36ZM2703.01 6V27H2698.21V9.96H2691.01L2690.86 14.34C2690.76 17.32 2690.52 19.74 2690.14 21.6C2689.76 23.44 2689.12 24.86 2688.22 25.86C2687.34 26.84 2686.1 27.33 2684.5 27.33C2683.84 27.33 2683.04 27.22 2682.1 27L2682.4 22.89C2682.66 22.97 2682.95 23.01 2683.27 23.01C2684.43 23.01 2685.24 22.33 2685.7 20.97C2686.16 19.59 2686.45 17.44 2686.57 14.52L2686.87 6H2703.01ZM2728.42 6L2719.48 22.62C2718.62 24.22 2717.58 25.43 2716.36 26.25C2715.16 27.07 2713.85 27.48 2712.43 27.48C2711.33 27.48 2710.19 27.24 2709.01 26.76L2710.18 23.07C2711.02 23.33 2711.72 23.46 2712.28 23.46C2712.88 23.46 2713.42 23.32 2713.9 23.04C2714.38 22.74 2714.82 22.28 2715.22 21.66L2715.4 21.42L2707.12 6H2712.31L2717.89 17.28L2723.65 6H2728.42ZM2749.62 6V27H2744.82V19.44C2743 20.1 2741.31 20.43 2739.75 20.43C2736.93 20.43 2734.77 19.76 2733.27 18.42C2731.77 17.06 2731.02 15.11 2731.02 12.57V6H2735.82V12.03C2735.82 13.47 2736.2 14.56 2736.96 15.3C2737.74 16.02 2738.86 16.38 2740.32 16.38C2741.92 16.38 2743.42 16.07 2744.82 15.45V6H2749.62ZM2770.26 22.5H2760.51L2758.65 27H2753.67L2763.03 6H2767.83L2777.22 27H2772.12L2770.26 22.5ZM2768.73 18.81L2765.4 10.77L2762.07 18.81H2768.73ZM2781.2 6H2786.03V19.68L2796.05 6H2800.61V27H2795.81V13.35L2785.79 27H2781.2V6ZM2790.89 4.65C2787.05 4.65 2785.11 3.12 2785.07 0.0599982H2788.4C2788.44 1.52 2789.27 2.25 2790.89 2.25C2791.69 2.25 2792.3 2.07 2792.72 1.71C2793.14 1.33 2793.36 0.779998 2793.38 0.0599982H2796.71C2796.69 1.56 2796.2 2.7 2795.24 3.48C2794.28 4.26 2792.83 4.65 2790.89 4.65ZM2826.3 6V27H2821.44V18.39H2811.9V27H2807.04V6H2811.9V14.28H2821.44V6H2826.3ZM2842.93 12.9C2845.49 12.9 2847.45 13.47 2848.81 14.61C2850.19 15.75 2850.88 17.44 2850.88 19.68C2850.88 22.06 2850.12 23.88 2848.6 25.14C2847.1 26.38 2844.98 27 2842.24 27H2832.76V6H2837.59V12.9H2842.93ZM2841.97 23.4C2843.23 23.4 2844.21 23.09 2844.91 22.47C2845.63 21.85 2845.99 20.95 2845.99 19.77C2845.99 17.59 2844.65 16.5 2841.97 16.5H2837.59V23.4H2841.97ZM2853.55 6H2858.38V27H2853.55V6ZM2868.59 6L2872.94 12.36L2877.29 6H2882.99L2876 16.05L2883.56 27H2877.83L2872.94 20.04L2868.11 27H2862.5L2870 16.26L2862.98 6H2868.59ZM2919.38 23.04V31.44H2914.91V27H2897.36V6H2902.19V23.04H2911.55V6H2916.38V23.04H2919.38ZM2938.33 16.05C2939.61 16.43 2940.59 17.05 2941.27 17.91C2941.95 18.77 2942.29 19.83 2942.29 21.09C2942.29 22.95 2941.58 24.4 2940.16 25.44C2938.76 26.48 2936.75 27 2934.13 27H2923.78V6H2933.56C2936 6 2937.9 6.47 2939.26 7.41C2940.62 8.35 2941.3 9.69 2941.3 11.43C2941.3 12.47 2941.04 13.39 2940.52 14.19C2940 14.97 2939.27 15.59 2938.33 16.05ZM2928.61 14.7H2933.14C2934.2 14.7 2935 14.49 2935.54 14.07C2936.08 13.63 2936.35 12.99 2936.35 12.15C2936.35 11.33 2936.07 10.7 2935.51 10.26C2934.97 9.82 2934.18 9.6 2933.14 9.6H2928.61V14.7ZM2933.95 23.4C2936.23 23.4 2937.37 22.5 2937.37 20.7C2937.37 18.96 2936.23 18.09 2933.95 18.09H2928.61V23.4H2933.95ZM2963.6 23.1V27H2947.34V6H2963.21V9.9H2952.17V14.46H2961.92V18.24H2952.17V23.1H2963.6ZM2984.77 9.96H2978.05V27H2973.25V9.96H2966.56V6H2984.77V9.96ZM2998.75 27.36C2996.57 27.36 2994.6 26.89 2992.84 25.95C2991.1 25.01 2989.73 23.72 2988.73 22.08C2987.75 20.42 2987.26 18.56 2987.26 16.5C2987.26 14.44 2987.75 12.59 2988.73 10.95C2989.73 9.29 2991.1 7.99 2992.84 7.05C2994.6 6.11 2996.57 5.64 2998.75 5.64C3000.93 5.64 3002.89 6.11 3004.63 7.05C3006.37 7.99 3007.74 9.29 3008.74 10.95C3009.74 12.59 3010.24 14.44 3010.24 16.5C3010.24 18.56 3009.74 20.42 3008.74 22.08C3007.74 23.72 3006.37 25.01 3004.63 25.95C3002.89 26.89 3000.93 27.36 2998.75 27.36ZM2998.75 23.22C2999.99 23.22 3001.11 22.94 3002.11 22.38C3003.11 21.8 3003.89 21 3004.45 19.98C3005.03 18.96 3005.32 17.8 3005.32 16.5C3005.32 15.2 3005.03 14.04 3004.45 13.02C3003.89 12 3003.11 11.21 3002.11 10.65C3001.11 10.07 2999.99 9.78 2998.75 9.78C2997.51 9.78 2996.39 10.07 2995.39 10.65C2994.39 11.21 2993.6 12 2993.02 13.02C2992.46 14.04 2992.18 15.2 2992.18 16.5C2992.18 17.8 2992.46 18.96 2993.02 19.98C2993.6 21 2994.39 21.8 2995.39 22.38C2996.39 22.94 2997.51 23.22 2998.75 23.22ZM3029.74 16.05C3031.02 16.43 3032 17.05 3032.68 17.91C3033.36 18.77 3033.7 19.83 3033.7 21.09C3033.7 22.95 3032.99 24.4 3031.57 25.44C3030.17 26.48 3028.16 27 3025.54 27H3015.19V6H3024.97C3027.41 6 3029.31 6.47 3030.67 7.41C3032.03 8.35 3032.71 9.69 3032.71 11.43C3032.71 12.47 3032.45 13.39 3031.93 14.19C3031.41 14.97 3030.68 15.59 3029.74 16.05ZM3020.02 14.7H3024.55C3025.61 14.7 3026.41 14.49 3026.95 14.07C3027.49 13.63 3027.76 12.99 3027.76 12.15C3027.76 11.33 3027.48 10.7 3026.92 10.26C3026.38 9.82 3025.59 9.6 3024.55 9.6H3020.02V14.7ZM3025.36 23.4C3027.64 23.4 3028.78 22.5 3028.78 20.7C3028.78 18.96 3027.64 18.09 3025.36 18.09H3020.02V23.4H3025.36Z" fill="#202027"/>
<path d="M3104 0L3108.86 13.1384L3122 18L3108.86 22.8616L3104 36L3099.14 22.8616L3086 18L3099.14 13.1384L3104 0Z" fill="#202027"/>
</svg>
