<svg width="732.994141" height="457.085083" viewBox="0 0 732.994 457.085" fill="none" xmlns="http://www.w3.org/2000/svg" xmlns:xlink="http://www.w3.org/1999/xlink">
	<desc>
			Created with Pixso.
	</desc>
	<defs/>
	<rect id="Frame 2043683076" rx="18.775000" width="134.160004" height="80.013336" transform="translate(59.973633 0.260864) rotate(10.000001)" fill="#B0AEFF" fill-opacity="1.000000"/>
	<path id="рыс" d="M97.09 37.67Q95.35 36.61 93.2 36.23Q89.6 35.59 87.21 37.01Q86.76 37.27 86.35 37.61L86.73 35.46L79.5 34.18L74.29 63.6L81.89 64.94L83.6 55.26Q84.01 55.85 84.51 56.35Q86.27 58.09 89.24 58.61Q91.42 58.99 93.43 58.58Q94.15 58.43 94.85 58.18Q95.8 57.84 96.65 57.32Q98.18 56.4 99.38 54.93Q101.25 52.65 101.84 49.29Q102.44 45.93 101.46 43.15Q100.84 41.35 99.71 39.96Q99.09 39.2 98.32 38.56Q97.73 38.07 97.09 37.67ZM143.73 66.74Q146.32 68.67 149.91 69.31Q153.59 69.95 156.54 68.85Q158.27 68.2 159.54 67.05Q160.45 66.23 161.12 65.15L155.78 61.1Q154.52 62.77 152.93 63.2Q151.99 63.45 150.94 63.26Q149.71 63.04 148.83 62.38Q148.24 61.93 147.8 61.29Q147.68 61.11 147.58 60.92Q146.76 59.41 147.14 57.24Q147.51 55.15 148.76 54.03Q148.94 53.86 149.14 53.72Q149.75 53.28 150.43 53.07Q151.51 52.74 152.76 52.96Q153.82 53.14 154.62 53.7Q155.96 54.64 156.57 56.64L162.98 54.67Q162.71 53.42 162.14 52.34Q161.35 50.82 159.94 49.62Q157.55 47.57 153.87 46.92Q150.28 46.29 147.19 47.21Q145.03 47.85 143.39 49.15Q142.68 49.71 142.07 50.39Q141.6 50.91 141.21 51.49Q139.91 53.4 139.47 55.89Q139.04 58.33 139.57 60.54Q139.74 61.26 140.02 61.96Q140.36 62.82 140.83 63.59Q141.93 65.38 143.73 66.74ZM124.7 51.06Q122.87 48.79 118.61 48L113.77 47.15L114.96 40.43L107.4 39.1L103.57 60.76L115 62.78Q119.55 63.62 122.41 62.02Q123.39 61.48 124.11 60.69Q125.49 59.18 125.92 56.8Q126.39 54.11 125.41 52.16Q125.12 51.58 124.7 51.06ZM137.78 44.46L130.23 43.13L126.39 64.79L133.94 66.12L137.78 44.46ZM90.93 52.17Q89.9 52.5 88.7 52.29Q87.51 52.08 86.66 51.42Q86.09 50.98 85.67 50.33Q85.58 50.2 85.51 50.06Q84.67 48.53 85.06 46.33Q85.45 44.13 86.76 42.98Q86.88 42.88 87.01 42.78Q87.62 42.32 88.31 42.1Q89.33 41.77 90.53 41.98Q91.73 42.19 92.58 42.85Q93.15 43.29 93.56 43.94Q93.65 44.07 93.73 44.21Q94.56 45.74 94.17 47.94Q93.78 50.14 92.47 51.29Q92.35 51.39 92.23 51.49Q91.62 51.95 90.93 52.17ZM117.6 57.07Q116.74 57.73 115.16 57.45L112.05 56.86L112.95 51.78L116.07 52.33Q117.5 52.62 118.11 53.36Q118.18 53.44 118.24 53.53Q118.7 54.23 118.5 55.36Q118.29 56.53 117.6 57.07Z" fill="#FFFFFF" fill-opacity="1.000000" fill-rule="evenodd"/>
	<path id="рыс" d="M93.2 36.23Q96.16 36.75 98.32 38.56Q100.5 40.36 101.46 43.15Q102.44 45.93 101.84 49.29Q101.25 52.65 99.38 54.93Q97.51 57.22 94.85 58.18Q92.19 59.13 89.24 58.61Q85.43 57.94 83.6 55.26L81.89 64.94L74.29 63.6L79.5 34.18L86.73 35.46L86.35 37.61Q88.92 35.47 93.2 36.23ZM88.7 52.29Q90.71 52.64 92.23 51.49Q93.75 50.34 94.17 47.94Q94.6 45.54 93.56 43.94Q92.53 42.34 90.53 41.98Q88.53 41.63 87.01 42.78Q85.49 43.93 85.06 46.33Q84.64 48.73 85.67 50.33Q86.7 51.93 88.7 52.29ZM118.61 48Q122.87 48.79 124.7 51.06Q126.53 53.31 125.92 56.8Q125.27 60.42 122.41 62.02Q119.55 63.62 115 62.78L103.57 60.76L107.4 39.1L114.96 40.43L113.77 47.15L118.61 48ZM130.23 43.13L137.78 44.46L133.94 66.12L126.39 64.79L130.23 43.13ZM115.16 57.45Q118.04 57.96 118.5 55.36Q118.73 54.08 118.11 53.36Q117.5 52.62 116.07 52.33L112.95 51.78L112.05 56.86L115.16 57.45ZM149.91 69.31Q146.32 68.67 143.73 66.74Q141.15 64.79 140.02 61.96Q138.9 59.12 139.47 55.89Q140.05 52.65 142.07 50.39Q144.1 48.13 147.19 47.21Q150.28 46.29 153.87 46.92Q157.55 47.57 159.94 49.62Q162.35 51.68 162.98 54.67L156.57 56.64Q155.6 53.46 152.76 52.96Q150.72 52.6 149.14 53.72Q147.57 54.84 147.14 57.24Q146.71 59.68 147.8 61.29Q148.9 62.9 150.94 63.26Q153.78 63.76 155.78 61.1L161.12 65.15Q159.5 67.74 156.54 68.85Q153.59 69.95 149.91 69.31Z" stroke="#202027" stroke-opacity="1.000000" stroke-width="0.634167"/>
	<rect id="Frame 2043683076" rx="18.775000" width="134.160004" height="80.013336" transform="translate(59.973633 0.260864) rotate(10.000001)" stroke="#202027" stroke-opacity="1.000000" stroke-width="0.500000"/>
	<rect id="Frame 2043683071" rx="18.775000" width="191.160004" height="80.013336" transform="translate(200.143555 24.976562) rotate(10.000001)" fill="#B0AEFF" fill-opacity="1.000000"/>
	<path id="акшок" d="M236.4 64.01Q233.99 61.05 228.6 60.1Q228.45 60.07 228.3 60.05Q225.85 59.65 223.3 59.85Q220.61 60.05 218.6 60.93L220.24 66.55Q221.52 65.86 223.21 65.64Q224.9 65.42 226.45 65.7Q229.21 66.18 230.08 67.73Q230.59 68.65 230.44 69.94L226.12 69.18Q221.21 68.31 218.54 69.6Q217.41 70.14 216.66 71.02Q215.66 72.19 215.35 73.96Q215.09 75.4 215.4 76.69Q215.51 77.13 215.68 77.54Q215.73 77.68 215.79 77.81Q216.48 79.31 218.03 80.41Q219.72 81.62 222.23 82.06Q225.82 82.69 227.95 81.22Q228.65 80.74 229.19 80.03L228.7 82.83L235.77 84.07L237.9 72.04Q238.7 67.53 236.89 64.68Q236.66 64.34 236.4 64.01ZM311.38 96.5Q313.81 98.21 317.05 98.78Q320.48 99.38 323.47 98.5Q323.54 98.48 323.62 98.46Q325.68 97.81 327.27 96.56Q328.03 95.96 328.68 95.22Q329.16 94.68 329.56 94.08Q330.83 92.17 331.27 89.7Q331.71 87.19 331.14 84.93Q330.98 84.28 330.73 83.65Q330.37 82.75 329.87 81.93Q328.8 80.23 327.08 78.93Q327.04 78.91 327.01 78.88Q324.48 77.01 321.01 76.4Q317.5 75.78 314.47 76.71Q312.57 77.29 311.06 78.4Q310.16 79.06 309.4 79.91Q308.83 80.56 308.37 81.29Q307.22 83.1 306.81 85.39Q306.38 87.83 306.91 90.05Q307.08 90.77 307.36 91.46Q307.74 92.42 308.27 93.27Q309.34 94.95 311.03 96.24Q311.2 96.37 311.38 96.5ZM249.29 78.5L251.85 78.95L255.52 87.56L264.47 89.13L258.72 76.5L267.83 67.39L259.8 65.97L253.06 73.03L250.34 72.55L251.76 64.56L244.16 63.22L240.33 84.88L247.92 86.22L249.29 78.5ZM301.33 95.63L305.16 73.97L297.65 72.65L294.89 88.23L289.05 87.2L291.81 71.62L284.25 70.29L281.49 85.87L275.62 84.83L278.38 69.25L270.82 67.92L266.99 89.58L301.33 95.63ZM341.86 94.82L344.42 95.27L348.09 103.88L357.04 105.46L351.29 92.82L360.4 83.71L352.37 82.3L345.63 89.35L342.91 88.87L344.33 80.88L336.74 79.54L332.9 101.2L340.49 102.54L341.86 94.82ZM320.34 92.62Q319.32 92.95 318.12 92.74Q316.92 92.53 316.07 91.87Q315.5 91.43 315.08 90.78Q315.02 90.69 314.96 90.58Q314.08 89.03 314.48 86.74Q314.87 84.54 316.19 83.4Q316.3 83.3 316.43 83.21Q317.01 82.77 317.68 82.56Q318.72 82.22 319.94 82.44Q321.17 82.65 322.03 83.33Q322.58 83.76 322.98 84.37Q323.07 84.5 323.14 84.63Q323.99 86.14 323.6 88.35Q323.19 90.64 321.83 91.79Q321.74 91.87 321.64 91.94Q321.03 92.4 320.34 92.62ZM227.32 77.52Q226.34 77.83 225.2 77.63Q223.88 77.4 223.23 76.67Q222.93 76.33 222.81 75.94Q222.66 75.48 222.76 74.94Q222.88 74.27 223.27 73.86Q224.16 72.92 226.47 73.33L229.74 73.9L229.4 75.78Q228.91 76.64 228.18 77.12Q227.92 77.29 227.64 77.41Q227.48 77.47 227.32 77.52Z" fill="#FFFFFF" fill-opacity="1.000000" fill-rule="evenodd"/>
	<path id="акшок" d="M228.6 60.1Q233.99 61.05 236.4 64.01Q238.8 66.97 237.9 72.04L235.77 84.07L228.7 82.83L229.19 80.03Q227 82.9 222.23 82.06Q219.72 81.62 218.03 80.41Q216.35 79.21 215.68 77.54Q215.01 75.87 215.35 73.96Q215.89 70.88 218.54 69.6Q221.21 68.31 226.12 69.18L230.44 69.94Q230.85 66.47 226.45 65.7Q224.9 65.42 223.21 65.64Q221.52 65.86 220.24 66.55L218.6 60.93Q220.61 60.05 223.3 59.85Q226 59.64 228.6 60.1ZM225.2 77.63Q226.53 77.87 227.64 77.41Q228.75 76.94 229.4 75.78L229.74 73.9L226.47 73.33Q223.15 72.74 222.76 74.94Q222.58 75.93 223.23 76.67Q223.88 77.4 225.2 77.63ZM251.85 78.95L249.29 78.5L247.92 86.22L240.33 84.88L244.16 63.22L251.76 64.56L250.34 72.55L253.06 73.03L259.8 65.97L267.83 67.39L258.72 76.5L264.47 89.13L255.52 87.56L251.85 78.95ZM305.16 73.97L301.33 95.63L266.99 89.58L270.82 67.92L278.38 69.25L275.62 84.83L281.49 85.87L284.25 70.29L291.81 71.62L289.05 87.2L294.89 88.23L297.65 72.65L305.16 73.97ZM317.05 98.78Q313.58 98.17 311.03 96.24Q308.48 94.3 307.36 91.46Q306.24 88.63 306.81 85.39Q307.38 82.19 309.4 79.91Q311.44 77.63 314.47 76.71Q317.5 75.78 321.01 76.4Q324.53 77.01 327.08 78.93Q329.63 80.84 330.73 83.65Q331.84 86.46 331.27 89.7Q330.69 92.94 328.68 95.22Q326.67 97.51 323.62 98.46Q320.56 99.4 317.05 98.78ZM318.12 92.74Q320.12 93.09 321.64 91.94Q323.16 90.79 323.6 88.35Q324.02 85.95 322.98 84.37Q321.95 82.79 319.94 82.44Q317.94 82.08 316.43 83.21Q314.91 84.34 314.48 86.74Q314.05 89.18 315.08 90.78Q316.12 92.39 318.12 92.74ZM344.42 95.27L341.86 94.82L340.49 102.54L332.9 101.2L336.74 79.54L344.33 80.88L342.91 88.87L345.63 89.35L352.37 82.3L360.4 83.71L351.29 92.82L357.04 105.46L348.09 103.88L344.42 95.27Z" stroke="#202027" stroke-opacity="1.000000" stroke-width="0.634167"/>
	<rect id="Frame 2043683071" rx="18.775000" width="191.160004" height="80.013336" transform="translate(200.143555 24.976562) rotate(10.000001)" stroke="#202027" stroke-opacity="1.000000" stroke-width="0.500000"/>
	<rect id="Frame 2043683075" rx="18.775000" width="199.160004" height="80.013336" transform="translate(396.447266 59.590332) rotate(10.000001)" fill="#B0AEFF" fill-opacity="1.000000"/>
	<path id="агудар" d="M433.04 98.69Q430.64 95.73 425.24 94.77Q425.09 94.75 424.94 94.72Q422.49 94.33 419.94 94.52Q417.25 94.72 415.24 95.61L416.89 101.22Q418.17 100.53 419.86 100.31Q421.54 100.1 423.1 100.37Q425.86 100.86 426.72 102.41Q427.24 103.33 427.08 104.62L422.77 103.86Q417.85 102.99 415.19 104.27Q414.06 104.82 413.31 105.69Q412.3 106.87 411.99 108.64Q411.74 110.07 412.05 111.37Q412.15 111.8 412.32 112.22Q412.38 112.35 412.44 112.49Q413.13 113.98 414.67 115.09Q416.36 116.29 418.88 116.73Q422.46 117.37 424.6 115.89Q425.3 115.41 425.84 114.7L425.34 117.5L432.42 118.75L434.55 106.72Q435.35 102.2 433.53 99.36Q433.31 99.01 433.04 98.69ZM531.57 116.06Q529.17 113.1 523.77 112.15Q523.62 112.12 523.47 112.1Q521.02 111.7 518.47 111.9Q515.78 112.1 513.77 112.98L515.41 118.59Q516.69 117.9 518.38 117.69Q520.07 117.47 521.62 117.75Q524.38 118.23 525.25 119.78Q525.76 120.7 525.61 121.99L521.3 121.23Q516.38 120.36 513.71 121.64Q512.58 122.19 511.84 123.07Q510.83 124.24 510.52 126.01Q510.26 127.44 510.58 128.74Q510.68 129.17 510.85 129.59Q510.9 129.73 510.96 129.86Q511.66 131.36 513.2 132.46Q514.89 133.66 517.4 134.11Q520.99 134.74 523.12 133.27Q523.82 132.78 524.37 132.07L523.87 134.87L530.95 136.12L533.08 124.09Q533.88 119.57 532.06 116.73Q531.83 116.38 531.57 116.06ZM556.92 118.75Q555.19 117.69 553.03 117.31Q549.43 116.67 547.04 118.09Q546.59 118.36 546.19 118.7L546.57 116.54L539.34 115.26L534.13 144.68L541.72 146.02L543.43 136.34Q543.84 136.94 544.34 137.43Q546.11 139.17 549.07 139.69Q551.25 140.07 553.26 139.66Q553.98 139.51 554.68 139.26Q555.63 138.92 556.49 138.4Q558.01 137.48 559.21 136.01Q561.08 133.73 561.68 130.37Q562.27 127.02 561.3 124.23Q560.67 122.43 559.54 121.04Q558.92 120.28 558.15 119.64Q557.57 119.15 556.92 118.75ZM447.3 105.25L457.89 107.12L458.96 101.09L440.81 97.89L436.97 119.55L444.53 120.88L447.3 105.25ZM471.91 126.62L485.26 105.73L478.02 104.45L470.32 116.74L467.36 102.57L459.56 101.2L464.94 124.78Q464.29 125.65 463.51 125.96Q462.74 126.28 461.66 126.09Q461.52 126.06 461.38 126.03Q460.62 125.85 459.91 125.43Q459.07 124.93 458.53 124.22L454.95 129.07Q455.87 130.14 457.51 130.98Q459.17 131.83 460.88 132.13Q464.12 132.7 466.68 131.63Q466.8 131.58 466.92 131.52Q469.56 130.33 471.91 126.62ZM506.97 136.51L508.84 125.96L505.84 125.43L508.6 109.84L488.57 106.31L486.96 113.82Q486.12 117.58 484.99 119.55Q484.32 120.72 483.35 121.08Q482.69 121.33 481.9 121.21L481.1 121.06L479.23 131.62L486.3 132.87L487.1 128.39L500.73 130.79L499.94 135.27L506.97 136.51ZM550.76 133.25Q549.73 133.58 548.54 133.37Q547.34 133.16 546.49 132.5Q545.92 132.06 545.5 131.41Q545.42 131.28 545.34 131.14Q544.5 129.61 544.89 127.41Q545.28 125.21 546.59 124.06Q546.71 123.96 546.84 123.86Q547.45 123.4 548.14 123.18Q549.17 122.85 550.36 123.06Q551.56 123.28 552.41 123.93Q552.98 124.38 553.4 125.02Q553.48 125.15 553.56 125.29Q554.4 126.82 554.01 129.02Q553.62 131.22 552.31 132.37Q552.19 132.47 552.06 132.57Q551.45 133.03 550.76 133.25ZM492.43 120.18Q493.06 118.47 493.69 115.58L494.14 113.51L499.94 114.54L498.24 124.09L490.73 122.76Q491.79 121.88 492.43 120.18ZM423.97 112.2Q422.99 112.51 421.85 112.31Q420.53 112.07 419.87 111.35Q419.58 111.01 419.46 110.62Q419.31 110.15 419.41 109.61Q419.52 108.94 419.91 108.53Q420.8 107.6 423.11 108L426.38 108.58L426.05 110.45Q425.56 111.32 424.82 111.8Q424.57 111.96 424.28 112.08Q424.13 112.15 423.97 112.2ZM522.49 129.57Q521.51 129.88 520.37 129.68Q519.06 129.45 518.4 128.72Q518.1 128.38 517.98 127.99Q517.84 127.52 517.93 126.99Q518.05 126.32 518.44 125.91Q519.33 124.97 521.64 125.37L524.91 125.95L524.58 127.82Q524.09 128.69 523.35 129.17Q523.09 129.33 522.81 129.45Q522.65 129.52 522.49 129.57Z" fill="#FFFFFF" fill-opacity="1.000000" fill-rule="evenodd"/>
	<path id="агудар" d="M425.24 94.77Q430.64 95.73 433.04 98.69Q435.45 101.65 434.55 106.72L432.42 118.75L425.34 117.5L425.84 114.7Q423.64 117.57 418.88 116.73Q416.36 116.29 414.67 115.09Q412.99 113.88 412.32 112.22Q411.65 110.55 411.99 108.64Q412.54 105.55 415.19 104.27Q417.85 102.99 422.77 103.86L427.08 104.62Q427.5 101.15 423.1 100.37Q421.54 100.1 419.86 100.31Q418.17 100.53 416.89 101.22L415.24 95.61Q417.25 94.72 419.94 94.52Q422.65 94.32 425.24 94.77ZM421.85 112.31Q423.17 112.54 424.28 112.08Q425.39 111.61 426.05 110.45L426.38 108.58L423.11 108Q419.79 107.42 419.41 109.61Q419.23 110.61 419.87 111.35Q420.53 112.07 421.85 112.31ZM457.89 107.12L447.3 105.25L444.53 120.88L436.97 119.55L440.81 97.89L458.96 101.09L457.89 107.12ZM485.26 105.73L471.91 126.62Q469.56 130.33 466.92 131.52Q464.28 132.73 460.88 132.13Q459.17 131.83 457.51 130.98Q455.87 130.14 454.95 129.07L458.53 124.22Q459.07 124.93 459.91 125.43Q460.74 125.93 461.66 126.09Q462.74 126.28 463.51 125.96Q464.29 125.65 464.94 124.78L459.56 101.2L467.36 102.57L470.32 116.74L478.02 104.45L485.26 105.73ZM508.84 125.96L506.97 136.51L499.94 135.27L500.73 130.79L487.1 128.39L486.3 132.87L479.23 131.62L481.1 121.06L481.9 121.21Q483.87 121.51 484.99 119.55Q486.12 117.58 486.96 113.82L488.57 106.31L508.6 109.84L505.84 125.43L508.84 125.96ZM493.69 115.58Q493.06 118.47 492.43 120.18Q491.79 121.88 490.73 122.76L498.24 124.09L499.94 114.54L494.14 113.51L493.69 115.58ZM523.77 112.15Q529.17 113.1 531.57 116.06Q533.97 119.02 533.08 124.09L530.95 136.12L523.87 134.87L524.37 132.07Q522.17 134.95 517.4 134.11Q514.89 133.66 513.2 132.46Q511.52 131.26 510.85 129.59Q510.18 127.92 510.52 126.01Q511.06 122.93 513.71 121.64Q516.38 120.36 521.3 121.23L525.61 121.99Q526.02 118.52 521.62 117.75Q520.07 117.47 518.38 117.69Q516.69 117.9 515.41 118.59L513.77 112.98Q515.78 112.1 518.47 111.9Q521.17 111.69 523.77 112.15ZM520.37 129.68Q521.7 129.91 522.81 129.45Q523.92 128.99 524.58 127.82L524.91 125.95L521.64 125.37Q518.32 124.79 517.93 126.99Q517.76 127.98 518.4 128.72Q519.06 129.45 520.37 129.68ZM553.03 117.31Q555.99 117.83 558.15 119.64Q560.33 121.44 561.3 124.23Q562.27 127.02 561.68 130.37Q561.08 133.73 559.21 136.01Q557.34 138.3 554.68 139.26Q552.03 140.21 549.07 139.69Q545.26 139.02 543.43 136.34L541.72 146.02L534.13 144.68L539.34 115.26L546.57 116.54L546.19 118.7Q548.75 116.55 553.03 117.31ZM548.54 133.37Q550.54 133.72 552.06 132.57Q553.58 131.42 554.01 129.02Q554.43 126.62 553.4 125.02Q552.36 123.42 550.36 123.06Q548.36 122.71 546.84 123.86Q545.32 125.01 544.89 127.41Q544.47 129.81 545.5 131.41Q546.54 133.02 548.54 133.37Z" stroke="#202027" stroke-opacity="1.000000" stroke-width="0.634167"/>
	<rect id="Frame 2043683075" rx="18.775000" width="199.160004" height="80.013336" transform="translate(396.447266 59.590332) rotate(10.000001)" stroke="#202027" stroke-opacity="1.000000" stroke-width="0.500000"/>
	<rect id="Frame 2043683073" rx="18.775000" width="134.160004" height="80.013336" transform="translate(600.629883 95.593140) rotate(10.000001)" fill="#B0AEFF" fill-opacity="1.000000"/>
	<path id="рыс" d="M637.74 133Q636.01 131.94 633.86 131.56Q630.25 130.92 627.87 132.34Q627.42 132.61 627.01 132.95L627.39 130.79L620.16 129.52L614.95 158.93L622.54 160.27L624.26 150.59Q624.66 151.19 625.17 151.68Q626.93 153.42 629.89 153.94Q632.07 154.33 634.09 153.91Q634.81 153.76 635.5 153.51Q636.46 153.17 637.31 152.65Q638.84 151.73 640.03 150.27Q641.91 147.98 642.5 144.62Q643.1 141.27 642.12 138.48Q641.5 136.68 640.37 135.29Q639.75 134.53 638.98 133.89Q638.39 133.4 637.74 133ZM684.39 162.07Q686.97 164.01 690.56 164.64Q694.24 165.29 697.2 164.18Q698.93 163.53 700.2 162.38Q701.1 161.56 701.78 160.48L696.43 156.44Q695.18 158.11 693.59 158.53Q692.65 158.78 691.59 158.59Q690.37 158.38 689.49 157.71Q688.9 157.27 688.46 156.62Q688.34 156.44 688.24 156.25Q687.42 154.74 687.8 152.57Q688.17 150.48 689.42 149.36Q689.6 149.19 689.8 149.05Q690.41 148.62 691.09 148.41Q692.17 148.07 693.42 148.29Q694.48 148.48 695.27 149.03Q696.62 149.97 697.23 151.97L703.63 150Q703.37 148.75 702.8 147.67Q702 146.16 700.6 144.96Q698.21 142.91 694.53 142.26Q690.94 141.62 687.85 142.55Q685.69 143.19 684.05 144.48Q683.34 145.04 682.73 145.72Q682.26 146.24 681.87 146.82Q680.57 148.73 680.13 151.22Q679.7 153.66 680.23 155.87Q680.4 156.59 680.68 157.29Q681.02 158.15 681.49 158.92Q682.59 160.71 684.39 162.07ZM665.35 146.39Q663.53 144.13 659.26 143.33L654.42 142.48L655.61 135.77L648.06 134.44L644.22 156.1L655.66 158.11Q660.21 158.96 663.07 157.36Q664.05 156.81 664.77 156.03Q666.15 154.52 666.57 152.13Q667.05 149.45 666.07 147.49Q665.78 146.91 665.35 146.39ZM678.44 139.79L670.89 138.46L667.05 160.12L674.6 161.45L678.44 139.79ZM631.58 147.5Q630.56 147.83 629.36 147.62Q628.17 147.41 627.31 146.75Q626.74 146.31 626.33 145.67Q626.24 145.53 626.16 145.39Q625.33 143.86 625.72 141.66Q626.11 139.46 627.42 138.31Q627.54 138.21 627.67 138.11Q628.28 137.65 628.96 137.43Q629.99 137.11 631.19 137.32Q632.38 137.53 633.24 138.18Q633.81 138.63 634.22 139.27Q634.31 139.4 634.39 139.54Q635.22 141.07 634.83 143.27Q634.44 145.47 633.13 146.62Q633.01 146.73 632.89 146.82Q632.27 147.28 631.58 147.5ZM658.25 152.41Q657.4 153.07 655.82 152.79L652.7 152.19L653.6 147.11L656.73 147.67Q658.15 147.96 658.77 148.69Q658.84 148.77 658.9 148.86Q659.36 149.56 659.16 150.69Q658.95 151.86 658.25 152.41Z" fill="#FFFFFF" fill-opacity="1.000000" fill-rule="evenodd"/>
	<path id="рыс" d="M633.86 131.56Q636.81 132.08 638.98 133.89Q641.15 135.69 642.12 138.48Q643.1 141.27 642.5 144.62Q641.91 147.98 640.03 150.27Q638.17 152.55 635.5 153.51Q632.85 154.46 629.89 153.94Q626.09 153.27 624.26 150.59L622.54 160.27L614.95 158.93L620.16 129.52L627.39 130.79L627.01 132.95Q629.57 130.8 633.86 131.56ZM629.36 147.62Q631.36 147.97 632.89 146.82Q634.41 145.67 634.83 143.27Q635.26 140.87 634.22 139.27Q633.19 137.67 631.19 137.32Q629.19 136.96 627.67 138.11Q626.14 139.26 625.72 141.66Q625.29 144.06 626.33 145.67Q627.36 147.27 629.36 147.62ZM659.26 143.33Q663.53 144.13 665.35 146.39Q667.19 148.64 666.57 152.13Q665.93 155.76 663.07 157.36Q660.21 158.96 655.66 158.11L644.22 156.1L648.06 134.44L655.61 135.77L654.42 142.48L659.26 143.33ZM670.89 138.46L678.44 139.79L674.6 161.45L667.05 160.12L670.89 138.46ZM655.82 152.79Q658.7 153.3 659.16 150.69Q659.39 149.41 658.77 148.69Q658.15 147.96 656.73 147.67L653.6 147.11L652.7 152.19L655.82 152.79ZM690.56 164.64Q686.97 164.01 684.39 162.07Q681.8 160.13 680.68 157.29Q679.56 154.46 680.13 151.22Q680.7 147.98 682.73 145.72Q684.76 143.46 687.85 142.55Q690.94 141.62 694.53 142.26Q698.21 142.91 700.6 144.96Q703 147.01 703.63 150L697.23 151.97Q696.26 148.79 693.42 148.29Q691.38 147.93 689.8 149.05Q688.23 150.17 687.8 152.57Q687.37 155.01 688.46 156.62Q689.56 158.23 691.59 158.59Q694.43 159.09 696.43 156.44L701.78 160.48Q700.16 163.07 697.2 164.18Q694.24 165.29 690.56 164.64Z" stroke="#202027" stroke-opacity="1.000000" stroke-width="0.634167"/>
	<rect id="Frame 2043683073" rx="18.775000" width="134.160004" height="80.013336" transform="translate(600.629883 95.593140) rotate(10.000001)" stroke="#202027" stroke-opacity="1.000000" stroke-width="0.500000"/>
	<rect id="Frame 2043683076" rx="18.775000" width="124.160004" height="80.013336" transform="translate(63.054688 89.553955) rotate(10.000001)" fill="#B0AEFF" fill-opacity="1.000000"/>
	<path id="тик" d="M93.94 131.7L100.9 132.92L101.97 126.89L80.46 123.1L79.39 129.13L86.39 130.37L83.62 146L91.17 147.33L93.94 131.7ZM112.47 128.75L104.92 127.42L101.08 149.08L108.12 150.32L119.13 140.52L117.12 151.9L124.71 153.24L128.55 131.58L121.55 130.35L110.46 140.09L112.47 128.75ZM138.78 147.76L141.35 148.22L145.02 156.82L153.96 158.4L148.21 145.76L157.32 136.66L149.29 135.24L142.56 142.29L139.84 141.81L141.25 133.82L133.66 132.48L129.82 154.14L137.41 155.48L138.78 147.76Z" fill="#FFFFFF" fill-opacity="1.000000" fill-rule="evenodd"/>
	<path id="тик" d="M100.9 132.92L93.94 131.7L91.17 147.33L83.62 146L86.39 130.37L79.39 129.13L80.46 123.1L101.97 126.89L100.9 132.92ZM104.92 127.42L112.47 128.75L110.46 140.09L121.55 130.35L128.55 131.58L124.71 153.24L117.12 151.9L119.13 140.52L108.12 150.32L101.08 149.08L104.92 127.42ZM141.35 148.22L138.78 147.76L137.41 155.48L129.82 154.14L133.66 132.48L141.25 133.82L139.84 141.81L142.56 142.29L149.29 135.24L157.32 136.66L148.21 145.76L153.96 158.4L145.02 156.82L141.35 148.22Z" stroke="#202027" stroke-opacity="1.000000" stroke-width="0.634167"/>
	<rect id="Frame 2043683076" rx="18.775000" width="124.160004" height="80.013336" transform="translate(63.054688 89.553955) rotate(10.000001)" stroke="#202027" stroke-opacity="1.000000" stroke-width="0.500000"/>
	<rect id="Frame 2043683074" rx="18.775000" width="247.160004" height="80.013336" transform="translate(193.375977 112.533203) rotate(10.000001)" fill="#B0AEFF" fill-opacity="1.000000"/>
	<path id="родимоп" d="M230.65 149.97Q228.92 148.91 226.77 148.53Q223.16 147.89 220.78 149.31Q220.33 149.58 219.92 149.92L220.3 147.76L213.07 146.48L207.86 175.9L215.45 177.24L217.17 167.56Q217.57 168.16 218.08 168.65Q219.84 170.39 222.8 170.91Q224.98 171.29 227 170.88Q227.72 170.73 228.41 170.48Q229.37 170.14 230.22 169.62Q231.75 168.7 232.94 167.23Q234.82 164.95 235.41 161.59Q236.01 158.24 235.03 155.45Q234.41 153.65 233.28 152.26Q232.66 151.5 231.89 150.86Q231.3 150.37 230.65 149.97ZM242.08 173.03Q244.51 174.74 247.74 175.31Q251.17 175.91 254.16 175.03Q254.24 175.01 254.31 174.99Q256.38 174.34 257.96 173.09Q258.72 172.49 259.37 171.75Q259.85 171.21 260.25 170.61Q261.52 168.7 261.96 166.23Q262.41 163.72 261.84 161.46Q261.67 160.81 261.42 160.18Q261.07 159.28 260.56 158.46Q259.5 156.76 257.77 155.46Q257.74 155.44 257.7 155.41Q255.17 153.54 251.71 152.92Q248.2 152.31 245.16 153.24Q243.26 153.82 241.75 154.93Q240.85 155.59 240.1 156.44Q239.52 157.09 239.06 157.82Q237.91 159.63 237.51 161.92Q237.07 164.36 237.6 166.58Q237.78 167.3 238.05 167.99Q238.43 168.95 238.97 169.8Q240.03 171.48 241.72 172.77Q241.9 172.9 242.08 173.03ZM358.75 193.6Q361.18 195.31 364.42 195.88Q367.84 196.48 370.84 195.6Q370.91 195.58 370.99 195.56Q373.05 194.92 374.64 193.67Q375.4 193.07 376.05 192.33Q376.53 191.78 376.92 191.19Q378.2 189.27 378.63 186.81Q379.08 184.29 378.51 182.03Q378.34 181.38 378.1 180.75Q377.74 179.85 377.23 179.04Q376.17 177.33 374.44 176.04Q374.41 176.01 374.37 175.98Q371.85 174.11 368.38 173.5Q364.87 172.88 361.84 173.81Q359.93 174.39 358.42 175.51Q357.53 176.17 356.77 177.01Q356.19 177.66 355.73 178.39Q354.58 180.21 354.18 182.49Q353.75 184.94 354.28 187.15Q354.45 187.87 354.72 188.57Q355.1 189.52 355.64 190.37Q356.71 192.05 358.4 193.34Q358.57 193.47 358.75 193.6ZM288.03 186.66L289.9 176.1L286.89 175.57L289.65 159.99L269.63 156.46L268.01 163.96Q267.18 167.73 266.04 169.69Q265.37 170.87 264.4 171.23Q263.74 171.47 262.95 171.35L262.15 171.21L260.28 181.76L267.36 183.01L268.15 178.53L281.78 180.94L280.99 185.42L288.03 186.66ZM303.48 162.43L295.93 161.09L292.09 182.76L299.13 184L310.14 174.2L308.12 185.58L315.72 186.92L319.55 165.26L312.56 164.03L301.47 173.77L303.48 162.43ZM343.88 180.14L341.86 191.53L348.69 192.74L352.49 171.07L345.34 169.81L336.7 179.94L332.66 167.57L324.67 166.16L320.83 187.82L327.67 189.03L329.72 177.48L333.41 188.06L336.64 188.63L343.88 180.14ZM402.65 202.25L406.49 180.59L384.1 176.64L380.27 198.3L387.82 199.63L390.59 184L397.87 185.29L395.1 200.92L402.65 202.25ZM224.49 164.47Q223.47 164.8 222.27 164.59Q221.08 164.38 220.22 163.72Q219.65 163.28 219.24 162.63Q219.15 162.5 219.07 162.36Q218.24 160.83 218.63 158.63Q219.02 156.43 220.33 155.28Q220.45 155.18 220.57 155.08Q221.19 154.62 221.87 154.4Q222.9 154.07 224.1 154.28Q225.29 154.5 226.14 155.15Q226.72 155.6 227.13 156.24Q227.22 156.37 227.29 156.51Q228.13 158.04 227.74 160.24Q227.35 162.44 226.04 163.59Q225.92 163.69 225.79 163.79Q225.18 164.25 224.49 164.47ZM251.04 169.15Q250.01 169.48 248.81 169.27Q247.62 169.06 246.77 168.4Q246.2 167.96 245.78 167.31Q245.72 167.22 245.66 167.11Q244.77 165.56 245.18 163.27Q245.57 161.07 246.88 159.93Q247 159.83 247.12 159.74Q247.71 159.3 248.37 159.09Q249.42 158.75 250.64 158.97Q251.86 159.18 252.73 159.86Q253.28 160.28 253.68 160.9Q253.76 161.03 253.83 161.16Q254.68 162.67 254.29 164.88Q253.89 167.17 252.52 168.32Q252.43 168.4 252.34 168.47Q251.73 168.93 251.04 169.15ZM367.71 189.73Q366.68 190.05 365.49 189.84Q364.29 189.63 363.44 188.97Q362.87 188.53 362.45 187.89Q362.39 187.79 362.33 187.69Q361.44 186.14 361.85 183.85Q362.24 181.64 363.56 180.5Q363.67 180.41 363.79 180.32Q364.38 179.88 365.04 179.66Q366.09 179.32 367.31 179.54Q368.54 179.75 369.4 180.43Q369.95 180.86 370.35 181.47Q370.43 181.6 370.51 181.73Q371.35 183.25 370.96 185.45Q370.56 187.74 369.19 188.9Q369.1 188.97 369.01 189.04Q368.4 189.51 367.71 189.73ZM273.48 170.33Q274.11 168.62 274.75 165.72L275.19 163.66L280.99 164.68L279.3 174.23L271.78 172.91Q272.85 172.03 273.48 170.33Z" fill="#FFFFFF" fill-opacity="1.000000" fill-rule="evenodd"/>
	<path id="родимоп" d="M226.77 148.53Q229.72 149.05 231.89 150.86Q234.06 152.66 235.03 155.45Q236.01 158.24 235.41 161.59Q234.82 164.95 232.94 167.23Q231.08 169.52 228.41 170.48Q225.76 171.43 222.8 170.91Q219 170.24 217.17 167.56L215.45 177.24L207.86 175.9L213.07 146.48L220.3 147.76L219.92 149.92Q222.48 147.77 226.77 148.53ZM222.27 164.59Q224.27 164.94 225.79 163.79Q227.32 162.64 227.74 160.24Q228.17 157.84 227.13 156.24Q226.1 154.64 224.1 154.28Q222.1 153.93 220.57 155.08Q219.05 156.23 218.63 158.63Q218.2 161.03 219.24 162.63Q220.27 164.24 222.27 164.59ZM247.74 175.31Q244.27 174.7 241.72 172.77Q239.18 170.83 238.05 167.99Q236.93 165.16 237.51 161.92Q238.07 158.72 240.1 156.44Q242.13 154.16 245.16 153.24Q248.2 152.31 251.71 152.92Q255.22 153.55 257.77 155.46Q260.32 157.37 261.42 160.18Q262.53 162.99 261.96 166.23Q261.39 169.47 259.37 171.75Q257.37 174.04 254.31 174.99Q251.26 175.93 247.74 175.31ZM248.81 169.27Q250.81 169.62 252.34 168.47Q253.86 167.32 254.29 164.88Q254.72 162.48 253.68 160.9Q252.64 159.32 250.64 158.97Q248.64 158.61 247.12 159.74Q245.6 160.87 245.18 163.27Q244.74 165.71 245.78 167.31Q246.81 168.92 248.81 169.27ZM289.9 176.1L288.03 186.66L280.99 185.42L281.78 180.94L268.15 178.53L267.36 183.01L260.28 181.76L262.15 171.21L262.95 171.35Q264.92 171.66 266.04 169.69Q267.18 167.73 268.01 163.96L269.63 156.46L289.65 159.99L286.89 175.57L289.9 176.1ZM274.75 165.72Q274.11 168.62 273.48 170.33Q272.85 172.03 271.78 172.91L279.3 174.23L280.99 164.68L275.19 163.66L274.75 165.72ZM295.93 161.09L303.48 162.43L301.47 173.77L312.56 164.03L319.55 165.26L315.72 186.92L308.12 185.58L310.14 174.2L299.13 184L292.09 182.76L295.93 161.09ZM341.86 191.53L343.88 180.14L336.64 188.63L333.41 188.06L329.72 177.48L327.67 189.03L320.83 187.82L324.67 166.16L332.66 167.57L336.7 179.94L345.34 169.81L352.49 171.07L348.69 192.74L341.86 191.53ZM364.42 195.88Q360.94 195.27 358.4 193.34Q355.85 191.4 354.72 188.57Q353.61 185.73 354.18 182.49Q354.75 179.29 356.77 177.01Q358.8 174.74 361.84 173.81Q364.87 172.88 368.38 173.5Q371.89 174.12 374.44 176.04Q376.99 177.94 378.1 180.75Q379.21 183.57 378.63 186.81Q378.06 190.05 376.05 192.33Q374.04 194.61 370.99 195.56Q367.93 196.5 364.42 195.88ZM365.49 189.84Q367.49 190.19 369.01 189.04Q370.53 187.89 370.96 185.45Q371.39 183.05 370.35 181.47Q369.31 179.89 367.31 179.54Q365.31 179.18 363.79 180.32Q362.27 181.45 361.85 183.85Q361.42 186.29 362.45 187.89Q363.49 189.49 365.49 189.84ZM406.49 180.59L402.65 202.25L395.1 200.92L397.87 185.29L390.59 184L387.82 199.63L380.27 198.3L384.1 176.64L406.49 180.59Z" stroke="#202027" stroke-opacity="1.000000" stroke-width="0.634167"/>
	<rect id="Frame 2043683074" rx="18.775000" width="247.160004" height="80.013336" transform="translate(193.375977 112.533203) rotate(10.000001)" stroke="#202027" stroke-opacity="1.000000" stroke-width="0.500000"/>
	<rect id="Frame 2043683073" rx="18.775000" width="134.160004" height="80.013336" transform="translate(444.829102 156.871216) rotate(10.000001)" fill="#B0AEFF" fill-opacity="1.000000"/>
	<path id="рыс" d="M481.94 194.28Q480.21 193.22 478.06 192.84Q474.45 192.2 472.07 193.62Q471.62 193.89 471.21 194.23L471.59 192.07L464.36 190.79L459.15 220.21L466.74 221.55L468.46 211.87Q468.86 212.46 469.37 212.96Q471.13 214.7 474.09 215.22Q476.27 215.6 478.29 215.19Q479.01 215.04 479.7 214.79Q480.66 214.45 481.51 213.93Q483.04 213.01 484.23 211.54Q486.11 209.26 486.7 205.9Q487.3 202.55 486.32 199.76Q485.7 197.96 484.57 196.57Q483.95 195.81 483.18 195.17Q482.59 194.68 481.94 194.28ZM528.59 223.35Q531.17 225.28 534.76 225.92Q538.44 226.57 541.4 225.46Q543.13 224.81 544.4 223.66Q545.3 222.84 545.98 221.76L540.63 217.72Q539.38 219.38 537.79 219.81Q536.85 220.06 535.79 219.87Q534.57 219.65 533.69 218.99Q533.1 218.54 532.66 217.9Q532.54 217.72 532.44 217.53Q531.62 216.02 532 213.85Q532.37 211.76 533.61 210.64Q533.8 210.47 534 210.33Q534.61 209.9 535.29 209.68Q536.37 209.35 537.62 209.57Q538.68 209.75 539.47 210.31Q540.82 211.25 541.43 213.25L547.83 211.28Q547.57 210.03 547 208.95Q546.2 207.43 544.8 206.24Q542.41 204.18 538.73 203.53Q535.14 202.9 532.04 203.83Q529.89 204.46 528.24 205.76Q527.54 206.32 526.92 207Q526.46 207.52 526.07 208.1Q524.77 210.01 524.33 212.5Q523.9 214.94 524.43 217.15Q524.6 217.87 524.87 218.57Q525.22 219.43 525.69 220.2Q526.78 221.99 528.59 223.35ZM509.55 207.67Q507.73 205.4 503.46 204.61L498.62 203.76L499.81 197.05L492.26 195.71L488.42 217.37L499.86 219.39Q504.41 220.23 507.27 218.63Q508.25 218.09 508.96 217.3Q510.35 215.8 510.77 213.41Q511.25 210.72 510.27 208.77Q509.98 208.19 509.55 207.67ZM522.64 201.07L515.08 199.74L511.25 221.4L518.8 222.73L522.64 201.07ZM475.78 208.78Q474.76 209.11 473.56 208.9Q472.36 208.69 471.51 208.03Q470.94 207.59 470.53 206.94Q470.44 206.81 470.36 206.67Q469.53 205.14 469.92 202.94Q470.31 200.74 471.62 199.59Q471.74 199.49 471.86 199.39Q472.48 198.93 473.16 198.71Q474.19 198.38 475.39 198.59Q476.58 198.81 477.43 199.46Q478.01 199.9 478.42 200.55Q478.51 200.68 478.58 200.82Q479.42 202.35 479.03 204.55Q478.64 206.75 477.33 207.9Q477.21 208 477.08 208.1Q476.47 208.56 475.78 208.78ZM502.45 213.68Q501.6 214.34 500.02 214.07L496.9 213.47L497.8 208.39L500.93 208.94Q502.35 209.24 502.97 209.97Q503.04 210.05 503.1 210.14Q503.56 210.84 503.36 211.97Q503.15 213.14 502.45 213.68Z" fill="#FFFFFF" fill-opacity="1.000000" fill-rule="evenodd"/>
	<path id="рыс" d="M478.06 192.84Q481.01 193.36 483.18 195.17Q485.35 196.97 486.32 199.76Q487.3 202.55 486.7 205.9Q486.11 209.26 484.23 211.54Q482.37 213.83 479.7 214.79Q477.05 215.74 474.09 215.22Q470.29 214.55 468.46 211.87L466.74 221.55L459.15 220.21L464.36 190.79L471.59 192.07L471.21 194.23Q473.77 192.08 478.06 192.84ZM473.56 208.9Q475.56 209.25 477.08 208.1Q478.61 206.95 479.03 204.55Q479.46 202.15 478.42 200.55Q477.39 198.95 475.39 198.59Q473.39 198.24 471.86 199.39Q470.34 200.54 469.92 202.94Q469.49 205.34 470.53 206.94Q471.56 208.54 473.56 208.9ZM503.46 204.61Q507.73 205.4 509.55 207.67Q511.39 209.92 510.77 213.41Q510.13 217.04 507.27 218.63Q504.41 220.23 499.86 219.39L488.42 217.37L492.26 195.71L499.81 197.05L498.62 203.76L503.46 204.61ZM515.08 199.74L522.64 201.07L518.8 222.73L511.25 221.4L515.08 199.74ZM500.02 214.07Q502.9 214.57 503.36 211.97Q503.58 210.69 502.97 209.97Q502.35 209.24 500.93 208.94L497.8 208.39L496.9 213.47L500.02 214.07ZM534.76 225.92Q531.17 225.28 528.59 223.35Q526 221.4 524.87 218.57Q523.76 215.74 524.33 212.5Q524.9 209.26 526.92 207Q528.95 204.74 532.04 203.83Q535.14 202.9 538.73 203.53Q542.41 204.18 544.8 206.24Q547.2 208.29 547.83 211.28L541.43 213.25Q540.46 210.07 537.62 209.57Q535.58 209.21 534 210.33Q532.43 211.45 532 213.85Q531.57 216.29 532.66 217.9Q533.75 219.51 535.79 219.87Q538.63 220.37 540.63 217.72L545.98 221.76Q544.36 224.35 541.4 225.46Q538.44 226.57 534.76 225.92Z" stroke="#202027" stroke-opacity="1.000000" stroke-width="0.634167"/>
	<rect id="Frame 2043683073" rx="18.775000" width="134.160004" height="80.013336" transform="translate(444.829102 156.871216) rotate(10.000001)" stroke="#202027" stroke-opacity="1.000000" stroke-width="0.500000"/>
	<rect id="Frame 2043683075" rx="18.775000" width="124.160004" height="80.013336" transform="translate(585.000000 181.587036) rotate(10.000001)" fill="#B0AEFF" fill-opacity="1.000000"/>
	<path id="тик" d="M615.89 223.73L622.84 224.96L623.91 218.93L602.41 215.14L601.34 221.17L608.33 222.4L605.57 238.03L613.12 239.36L615.89 223.73ZM634.42 220.78L626.87 219.45L623.03 241.11L630.07 242.35L641.08 232.55L639.06 243.94L646.65 245.27L650.49 223.61L643.49 222.38L632.41 232.13L634.42 220.78ZM660.73 239.8L663.29 240.25L666.96 248.86L675.91 250.43L670.16 237.8L679.27 228.69L671.24 227.27L664.5 234.33L661.78 233.85L663.2 225.85L655.6 224.52L651.77 246.18L659.36 247.51L660.73 239.8Z" fill="#FFFFFF" fill-opacity="1.000000" fill-rule="evenodd"/>
	<path id="тик" d="M622.84 224.96L615.89 223.73L613.12 239.36L605.57 238.03L608.33 222.4L601.34 221.17L602.41 215.14L623.91 218.93L622.84 224.96ZM626.87 219.45L634.42 220.78L632.41 232.13L643.49 222.38L650.49 223.61L646.65 245.27L639.06 243.94L641.08 232.55L630.07 242.35L623.03 241.11L626.87 219.45ZM663.29 240.25L660.73 239.8L659.36 247.51L651.77 246.18L655.6 224.52L663.2 225.85L661.78 233.85L664.5 234.33L671.24 227.27L679.27 228.69L670.16 237.8L675.91 250.43L666.96 248.86L663.29 240.25Z" stroke="#202027" stroke-opacity="1.000000" stroke-width="0.634167"/>
	<rect id="Frame 2043683075" rx="18.775000" width="124.160004" height="80.013336" transform="translate(585.000000 181.587036) rotate(10.000001)" stroke="#202027" stroke-opacity="1.000000" stroke-width="0.500000"/>
	<rect id="Frame 2043683095" rx="18.775000" width="122.160004" height="80.013336" transform="translate(64.781250 178.936279) rotate(10.000001)" fill="#B0AEFF" fill-opacity="1.000000"/>
	<path id="топ" d="M107.05 238.29Q109.48 240.01 112.72 240.58Q116.15 241.18 119.14 240.3Q119.21 240.28 119.29 240.26Q121.35 239.61 122.94 238.36Q123.7 237.76 124.35 237.02Q124.83 236.48 125.22 235.88Q126.5 233.97 126.93 231.5Q127.38 228.99 126.81 226.73Q126.64 226.08 126.4 225.45Q126.04 224.55 125.53 223.73Q124.47 222.03 122.74 220.73Q122.71 220.71 122.67 220.68Q120.15 218.81 116.68 218.19Q113.17 217.58 110.14 218.51Q108.23 219.09 106.72 220.2Q105.83 220.86 105.07 221.71Q104.49 222.36 104.04 223.09Q102.89 224.9 102.48 227.19Q102.05 229.63 102.58 231.85Q102.75 232.57 103.02 233.26Q103.4 234.22 103.94 235.07Q105.01 236.75 106.7 238.04Q106.87 238.17 107.05 238.29ZM95.8 221.1L102.76 222.33L103.83 216.3L82.32 212.51L81.25 218.54L88.25 219.77L85.48 235.4L93.04 236.73L95.8 221.1ZM150.95 246.95L154.79 225.29L132.4 221.34L128.57 243L136.12 244.33L138.89 228.7L146.17 229.98L143.4 245.61L150.95 246.95ZM116.01 234.42Q114.98 234.75 113.79 234.54Q112.59 234.33 111.74 233.67Q111.17 233.23 110.75 232.58Q110.69 232.48 110.63 232.38Q109.74 230.83 110.15 228.54Q110.54 226.33 111.86 225.2Q111.97 225.1 112.09 225.01Q112.68 224.57 113.35 224.36Q114.39 224.02 115.61 224.23Q116.84 224.45 117.7 225.13Q118.25 225.55 118.65 226.17Q118.73 226.29 118.81 226.43Q119.66 227.94 119.26 230.15Q118.86 232.44 117.49 233.59Q117.4 233.67 117.31 233.74Q116.7 234.2 116.01 234.42Z" fill="#FFFFFF" fill-opacity="1.000000" fill-rule="evenodd"/>
	<path id="топ" d="M102.76 222.33L95.8 221.1L93.04 236.73L85.48 235.4L88.25 219.77L81.25 218.54L82.32 212.51L103.83 216.3L102.76 222.33ZM112.72 240.58Q109.24 239.96 106.7 238.04Q104.15 236.1 103.02 233.26Q101.91 230.43 102.48 227.19Q103.05 223.99 105.07 221.71Q107.1 219.43 110.14 218.51Q113.17 217.58 116.68 218.19Q120.2 218.81 122.74 220.73Q125.29 222.64 126.4 225.45Q127.51 228.26 126.93 231.5Q126.36 234.74 124.35 237.02Q122.34 239.31 119.29 240.26Q116.23 241.2 112.72 240.58ZM113.79 234.54Q115.79 234.89 117.31 233.74Q118.83 232.59 119.26 230.15Q119.69 227.75 118.65 226.17Q117.61 224.59 115.61 224.23Q113.61 223.88 112.09 225.01Q110.58 226.14 110.15 228.54Q109.72 230.98 110.75 232.58Q111.79 234.18 113.79 234.54ZM154.79 225.29L150.95 246.95L143.4 245.61L146.17 229.98L138.89 228.7L136.12 244.33L128.57 243L132.4 221.34L154.79 225.29Z" stroke="#202027" stroke-opacity="1.000000" stroke-width="0.634167"/>
	<rect id="Frame 2043683095" rx="18.775000" width="122.160004" height="80.013336" transform="translate(64.781250 178.936279) rotate(10.000001)" stroke="#202027" stroke-opacity="1.000000" stroke-width="0.500000"/>
	<rect id="Frame 2043683072" rx="18.775000" width="381.160004" height="80.013336" transform="translate(193.133789 201.568237) rotate(10.000001)" fill="#B0AEFF" fill-opacity="1.000000"/>
	<path id="ытсиммаргорп" d="M270.69 266.95Q273.28 268.89 276.87 269.52Q280.55 270.17 283.5 269.06Q285.23 268.41 286.5 267.26Q287.41 266.44 288.08 265.36L282.74 261.32Q281.48 262.99 279.89 263.41Q278.95 263.66 277.9 263.47Q276.67 263.26 275.79 262.59Q275.2 262.15 274.76 261.5Q274.64 261.32 274.54 261.14Q273.72 259.62 274.1 257.45Q274.47 255.36 275.72 254.24Q275.9 254.08 276.11 253.93Q276.72 253.5 277.39 253.29Q278.47 252.95 279.72 253.17Q280.78 253.36 281.58 253.91Q282.92 254.85 283.53 256.85L289.94 254.88Q289.67 253.64 289.1 252.55Q288.31 251.04 286.9 249.84Q284.51 247.79 280.83 247.14Q277.24 246.51 274.15 247.43Q271.99 248.07 270.35 249.36Q269.64 249.92 269.03 250.6Q268.56 251.12 268.17 251.7Q266.88 253.61 266.43 256.1Q266 258.54 266.53 260.75Q266.7 261.48 266.98 262.17Q267.32 263.03 267.79 263.81Q268.89 265.6 270.69 266.95ZM405.46 271.65Q403.06 268.69 397.66 267.74Q397.51 267.71 397.36 267.69Q394.91 267.29 392.36 267.49Q389.67 267.69 387.66 268.57L389.31 274.18Q390.59 273.49 392.27 273.28Q393.96 273.06 395.51 273.34Q398.28 273.82 399.14 275.37Q399.66 276.29 399.5 277.58L395.19 276.82Q390.27 275.95 387.61 277.24Q386.48 277.78 385.73 278.66Q384.72 279.83 384.41 281.6Q384.16 283.04 384.47 284.33Q384.57 284.76 384.74 285.18Q384.8 285.32 384.86 285.45Q385.55 286.95 387.09 288.05Q388.78 289.25 391.3 289.7Q394.88 290.33 397.02 288.86Q397.72 288.37 398.26 287.67L397.76 290.47L404.84 291.71L406.97 279.68Q407.77 275.17 405.95 272.32Q405.73 271.97 405.46 271.65ZM430.81 274.34Q429.08 273.28 426.93 272.9Q423.32 272.26 420.94 273.68Q420.49 273.95 420.08 274.29L420.46 272.13L413.23 270.85L408.02 300.27L415.61 301.61L417.33 291.93Q417.73 292.53 418.23 293.02Q420 294.76 422.96 295.28Q425.14 295.67 427.16 295.25Q427.87 295.1 428.57 294.85Q429.53 294.51 430.38 293.99Q431.91 293.07 433.1 291.6Q434.98 289.32 435.57 285.96Q436.17 282.61 435.19 279.82Q434.57 278.02 433.44 276.63Q432.82 275.87 432.05 275.23Q431.46 274.74 430.81 274.34ZM462.5 300.97Q464.93 302.68 468.17 303.25Q471.6 303.86 474.59 302.98Q474.66 302.95 474.74 302.93Q476.8 302.29 478.39 301.04Q479.15 300.44 479.8 299.7Q480.28 299.16 480.67 298.56Q481.95 296.65 482.39 294.18Q482.83 291.66 482.26 289.4Q482.1 288.76 481.85 288.13Q481.49 287.22 480.99 286.41Q479.92 284.7 478.19 283.41Q478.16 283.38 478.12 283.35Q475.6 281.48 472.13 280.87Q468.62 280.25 465.59 281.18Q463.68 281.76 462.17 282.88Q461.28 283.54 460.52 284.39Q459.94 285.04 459.49 285.76Q458.34 287.58 457.93 289.87Q457.5 292.31 458.03 294.52Q458.2 295.24 458.48 295.94Q458.85 296.89 459.39 297.74Q460.46 299.43 462.15 300.71Q462.32 300.84 462.5 300.97ZM505.44 287.5Q503.7 286.44 501.55 286.06Q497.95 285.42 495.56 286.84Q495.11 287.1 494.7 287.45L495.08 285.29L487.85 284.01L482.64 313.43L490.24 314.77L491.95 305.09Q492.36 305.68 492.86 306.18Q494.62 307.92 497.59 308.44Q499.77 308.82 501.78 308.41Q502.5 308.26 503.2 308.01Q504.15 307.67 505 307.15Q506.53 306.23 507.73 304.76Q509.6 302.48 510.19 299.12Q510.79 295.76 509.81 292.98Q509.19 291.18 508.06 289.79Q507.44 289.03 506.67 288.39Q506.08 287.9 505.44 287.5ZM230.19 247.49Q228.37 245.22 224.1 244.43L219.26 243.58L220.45 236.86L212.9 235.53L209.06 257.19L220.5 259.21Q225.05 260.05 227.91 258.45Q228.89 257.91 229.6 257.12Q230.99 255.61 231.41 253.22Q231.89 250.54 230.91 248.59Q230.62 248.01 230.19 247.49ZM243.28 240.89L235.72 239.56L231.89 261.22L239.44 262.55L243.28 240.89ZM259.76 250.01L266.72 251.24L267.78 245.21L246.28 241.42L245.21 247.45L252.21 248.68L249.44 264.31L256.99 265.64L259.76 250.01ZM301.63 251.18L294.08 249.85L290.24 271.51L297.28 272.75L308.29 262.95L306.28 274.33L313.87 275.67L317.7 254.01L310.71 252.78L299.62 262.53L301.63 251.18ZM342.03 268.9L340.01 280.28L346.84 281.49L350.64 259.82L343.49 258.56L334.85 268.7L330.81 256.32L322.82 254.91L318.98 276.57L325.82 277.78L327.87 266.23L331.56 276.81L334.79 277.38L342.03 268.9ZM375 274.71L372.99 286.1L379.82 287.3L383.61 265.63L376.46 264.37L367.82 274.51L363.78 262.14L355.79 260.73L351.96 282.39L358.8 283.59L360.84 272.04L364.53 282.62L367.76 283.19L375 274.71ZM447.61 283.14L458.21 285.01L459.28 278.98L441.13 275.78L437.29 297.44L444.85 298.77L447.61 283.14ZM534.3 314.54L538.14 292.88L515.75 288.93L511.92 310.59L519.47 311.93L522.24 296.29L529.52 297.58L526.75 313.21L534.3 314.54ZM424.65 288.84Q423.63 289.17 422.43 288.96Q421.23 288.75 420.38 288.09Q419.81 287.65 419.4 287.01Q419.31 286.87 419.23 286.73Q418.4 285.2 418.79 283Q419.18 280.8 420.49 279.65Q420.61 279.55 420.73 279.45Q421.35 278.99 422.03 278.77Q423.06 278.45 424.26 278.66Q425.45 278.87 426.3 279.52Q426.88 279.97 427.29 280.61Q427.38 280.74 427.45 280.88Q428.29 282.41 427.9 284.61Q427.51 286.81 426.2 287.96Q426.08 288.07 425.95 288.16Q425.34 288.62 424.65 288.84ZM471.46 297.1Q470.44 297.42 469.24 297.21Q468.04 297 467.19 296.34Q466.62 295.9 466.2 295.26Q466.14 295.16 466.08 295.06Q465.2 293.51 465.6 291.22Q465.99 289.01 467.31 287.88Q467.42 287.78 467.54 287.69Q468.13 287.25 468.8 287.03Q469.84 286.69 471.06 286.91Q472.29 287.13 473.15 287.8Q473.7 288.23 474.1 288.84Q474.19 288.97 474.26 289.1Q475.11 290.62 474.72 292.82Q474.31 295.11 472.94 296.27Q472.85 296.34 472.76 296.42Q472.15 296.88 471.46 297.1ZM499.28 302Q498.25 302.33 497.06 302.12Q495.86 301.91 495.01 301.25Q494.44 300.81 494.02 300.16Q493.93 300.03 493.86 299.89Q493.02 298.36 493.41 296.16Q493.8 293.96 495.11 292.81Q495.23 292.71 495.36 292.61Q495.97 292.15 496.66 291.93Q497.68 291.6 498.88 291.81Q500.08 292.03 500.93 292.68Q501.5 293.12 501.92 293.77Q502 293.9 502.08 294.04Q502.91 295.57 502.52 297.77Q502.14 299.97 500.82 301.12Q500.7 301.22 500.58 301.32Q499.97 301.78 499.28 302ZM223.09 253.5Q222.24 254.16 220.66 253.88L217.54 253.29L218.44 248.21L221.57 248.76Q222.99 249.05 223.61 249.79Q223.68 249.87 223.74 249.96Q224.2 250.66 224 251.79Q223.79 252.96 223.09 253.5ZM396.39 285.16Q395.41 285.47 394.27 285.27Q392.95 285.04 392.29 284.31Q392 283.97 391.88 283.58Q391.73 283.12 391.83 282.58Q391.94 281.91 392.33 281.5Q393.22 280.56 395.53 280.97L398.8 281.54L398.47 283.42Q397.98 284.28 397.24 284.76Q396.99 284.93 396.7 285.05Q396.55 285.11 396.39 285.16Z" fill="#FFFFFF" fill-opacity="1.000000" fill-rule="evenodd"/>
	<path id="ытсиммаргорп" d="M224.1 244.43Q228.37 245.22 230.19 247.49Q232.03 249.74 231.41 253.22Q230.77 256.85 227.91 258.45Q225.05 260.05 220.5 259.21L209.06 257.19L212.9 235.53L220.45 236.86L219.26 243.58L224.1 244.43ZM235.72 239.56L243.28 240.89L239.44 262.55L231.89 261.22L235.72 239.56ZM220.66 253.88Q223.54 254.39 224 251.79Q224.22 250.51 223.61 249.79Q222.99 249.05 221.57 248.76L218.44 248.21L217.54 253.29L220.66 253.88ZM266.72 251.24L259.76 250.01L256.99 265.64L249.44 264.31L252.21 248.68L245.21 247.45L246.28 241.42L267.78 245.21L266.72 251.24ZM276.87 269.52Q273.28 268.89 270.69 266.95Q268.11 265.01 266.98 262.17Q265.86 259.34 266.43 256.1Q267.01 252.86 269.03 250.6Q271.06 248.34 274.15 247.43Q277.24 246.51 280.83 247.14Q284.51 247.79 286.9 249.84Q289.31 251.89 289.94 254.88L283.53 256.85Q282.56 253.67 279.72 253.17Q277.68 252.81 276.11 253.93Q274.53 255.05 274.1 257.45Q273.67 259.89 274.76 261.5Q275.86 263.11 277.9 263.47Q280.74 263.98 282.74 261.32L288.08 265.36Q286.46 267.95 283.5 269.06Q280.55 270.17 276.87 269.52ZM294.08 249.85L301.63 251.18L299.62 262.53L310.71 252.78L317.7 254.01L313.87 275.67L306.28 274.33L308.29 262.95L297.28 272.75L290.24 271.51L294.08 249.85ZM340.01 280.28L342.03 268.9L334.79 277.38L331.56 276.81L327.87 266.23L325.82 277.78L318.98 276.57L322.82 254.91L330.81 256.32L334.85 268.7L343.49 258.56L350.64 259.82L346.84 281.49L340.01 280.28ZM372.99 286.1L375 274.71L367.76 283.19L364.53 282.62L360.84 272.04L358.8 283.59L351.96 282.39L355.79 260.73L363.78 262.14L367.82 274.51L376.46 264.37L383.61 265.63L379.82 287.3L372.99 286.1ZM397.66 267.74Q403.06 268.69 405.46 271.65Q407.87 274.61 406.97 279.68L404.84 291.71L397.76 290.47L398.26 287.67Q396.06 290.54 391.3 289.7Q388.78 289.25 387.09 288.05Q385.41 286.85 384.74 285.18Q384.07 283.51 384.41 281.6Q384.96 278.52 387.61 277.24Q390.27 275.95 395.19 276.82L399.5 277.58Q399.92 274.11 395.51 273.34Q393.96 273.06 392.27 273.28Q390.59 273.49 389.31 274.18L387.66 268.57Q389.67 267.69 392.36 267.49Q395.07 267.28 397.66 267.74ZM394.27 285.27Q395.59 285.51 396.7 285.05Q397.81 284.58 398.47 283.42L398.8 281.54L395.53 280.97Q392.21 280.38 391.83 282.58Q391.65 283.57 392.29 284.31Q392.95 285.04 394.27 285.27ZM426.93 272.9Q429.88 273.42 432.05 275.23Q434.22 277.03 435.19 279.82Q436.17 282.61 435.57 285.96Q434.98 289.32 433.1 291.6Q431.24 293.89 428.57 294.85Q425.92 295.8 422.96 295.28Q419.16 294.61 417.33 291.93L415.61 301.61L408.02 300.27L413.23 270.85L420.46 272.13L420.08 274.29Q422.64 272.14 426.93 272.9ZM422.43 288.96Q424.43 289.31 425.95 288.16Q427.48 287.01 427.9 284.61Q428.33 282.21 427.29 280.61Q426.26 279.01 424.26 278.66Q422.26 278.3 420.73 279.45Q419.21 280.6 418.79 283Q418.36 285.4 419.4 287.01Q420.43 288.61 422.43 288.96ZM458.21 285.01L447.61 283.14L444.85 298.77L437.29 297.44L441.13 275.78L459.28 278.98L458.21 285.01ZM468.17 303.25Q464.69 302.64 462.15 300.71Q459.6 298.77 458.48 295.94Q457.36 293.1 457.93 289.87Q458.5 286.67 460.52 284.39Q462.56 282.11 465.59 281.18Q468.62 280.25 472.13 280.87Q475.65 281.49 478.19 283.41Q480.74 285.32 481.85 288.13Q482.96 290.94 482.39 294.18Q481.81 297.42 479.8 299.7Q477.79 301.98 474.74 302.93Q471.68 303.87 468.17 303.25ZM469.24 297.21Q471.24 297.57 472.76 296.42Q474.28 295.26 474.72 292.82Q475.14 290.43 474.1 288.84Q473.06 287.26 471.06 286.91Q469.06 286.56 467.54 287.69Q466.03 288.82 465.6 291.22Q465.17 293.66 466.2 295.26Q467.24 296.86 469.24 297.21ZM501.55 286.06Q504.51 286.58 506.67 288.39Q508.85 290.19 509.81 292.98Q510.79 295.76 510.19 299.12Q509.6 302.48 507.73 304.76Q505.86 307.05 503.2 308.01Q500.54 308.96 497.59 308.44Q493.78 307.77 491.95 305.09L490.24 314.77L482.64 313.43L487.85 284.01L495.08 285.29L494.7 287.45Q497.27 285.3 501.55 286.06ZM497.06 302.12Q499.06 302.47 500.58 301.32Q502.1 300.17 502.52 297.77Q502.95 295.37 501.92 293.77Q500.88 292.17 498.88 291.81Q496.88 291.46 495.36 292.61Q493.84 293.76 493.41 296.16Q492.99 298.56 494.02 300.16Q495.05 301.76 497.06 302.12ZM538.14 292.88L534.3 314.54L526.75 313.21L529.52 297.58L522.24 296.29L519.47 311.93L511.92 310.59L515.75 288.93L538.14 292.88Z" stroke="#202027" stroke-opacity="1.000000" stroke-width="0.634167"/>
	<rect id="Frame 2043683072" rx="18.775000" width="381.160004" height="80.013336" transform="translate(193.133789 201.568237) rotate(10.000001)" stroke="#202027" stroke-opacity="1.000000" stroke-width="0.500000"/>
	<rect id="Frame 2043683094" rx="18.775000" width="122.160004" height="80.013336" transform="translate(576.551758 269.175049) rotate(10.000001)" fill="#B0AEFF" fill-opacity="1.000000"/>
	<path id="топ" d="M618.82 328.53Q621.25 330.25 624.49 330.82Q627.91 331.42 630.9 330.54Q630.98 330.52 631.06 330.49Q633.12 329.85 634.71 328.6Q635.47 328 636.12 327.26Q636.59 326.72 636.99 326.12Q638.27 324.21 638.7 321.74Q639.15 319.23 638.58 316.97Q638.41 316.32 638.17 315.69Q637.81 314.78 637.3 313.97Q636.24 312.26 634.51 310.97Q634.48 310.94 634.44 310.92Q631.92 309.04 628.45 308.43Q624.94 307.81 621.9 308.75Q620 309.33 618.49 310.44Q617.6 311.1 616.84 311.95Q616.26 312.6 615.81 313.32Q614.65 315.14 614.25 317.43Q613.82 319.87 614.35 322.08Q614.52 322.81 614.79 323.5Q615.17 324.45 615.71 325.31Q616.78 326.99 618.47 328.28Q618.64 328.41 618.82 328.53ZM607.57 311.34L614.53 312.57L615.6 306.54L594.09 302.75L593.02 308.78L600.02 310.01L597.25 325.64L604.81 326.97L607.57 311.34ZM662.72 337.19L666.56 315.52L644.17 311.58L640.34 333.24L647.89 334.57L650.66 318.94L657.94 320.22L655.17 335.85L662.72 337.19ZM627.78 324.66Q626.75 324.99 625.56 324.78Q624.36 324.57 623.51 323.91Q622.94 323.47 622.52 322.82Q622.46 322.72 622.4 322.62Q621.51 321.07 621.92 318.78Q622.31 316.57 623.63 315.44Q623.74 315.34 623.86 315.25Q624.45 314.81 625.12 314.6Q626.16 314.26 627.38 314.47Q628.61 314.69 629.47 315.36Q630.02 315.79 630.42 316.41Q630.5 316.53 630.58 316.67Q631.43 318.18 631.03 320.39Q630.63 322.68 629.26 323.83Q629.17 323.91 629.08 323.98Q628.47 324.44 627.78 324.66Z" fill="#FFFFFF" fill-opacity="1.000000" fill-rule="evenodd"/>
	<path id="топ" d="M614.53 312.57L607.57 311.34L604.81 326.97L597.25 325.64L600.02 310.01L593.02 308.78L594.09 302.75L615.6 306.54L614.53 312.57ZM624.49 330.82Q621.01 330.2 618.47 328.28Q615.92 326.34 614.79 323.5Q613.68 320.67 614.25 317.43Q614.82 314.23 616.84 311.95Q618.87 309.67 621.9 308.75Q624.94 307.81 628.45 308.43Q631.96 309.05 634.51 310.97Q637.06 312.88 638.17 315.69Q639.28 318.5 638.7 321.74Q638.13 324.98 636.12 327.26Q634.11 329.54 631.06 330.49Q628 331.44 624.49 330.82ZM625.56 324.78Q627.56 325.13 629.08 323.98Q630.6 322.83 631.03 320.39Q631.46 317.99 630.42 316.41Q629.38 314.82 627.38 314.47Q625.38 314.12 623.86 315.25Q622.34 316.38 621.92 318.78Q621.49 321.22 622.52 322.82Q623.56 324.42 625.56 324.78ZM666.56 315.52L662.72 337.19L655.17 335.85L657.94 320.22L650.66 318.94L647.89 334.57L640.34 333.24L644.17 311.58L666.56 315.52Z" stroke="#202027" stroke-opacity="1.000000" stroke-width="0.634167"/>
	<rect id="Frame 2043683094" rx="18.775000" width="122.160004" height="80.013336" transform="translate(576.551758 269.175049) rotate(10.000001)" stroke="#202027" stroke-opacity="1.000000" stroke-width="0.500000"/>
	<rect id="Frame 2043683096" rx="18.775000" width="130.160004" height="80.013336" transform="translate(97.761719 274.046875) rotate(10.000001)" fill="#B0AEFF" fill-opacity="1.000000"/>
	<path id="гим" d="M124.21 315.41L134.8 317.28L135.87 311.25L117.72 308.04L113.88 329.71L121.44 331.04L124.21 315.41ZM146.38 313.1L138.82 311.77L134.99 333.43L142.02 334.67L153.04 324.87L151.02 336.25L158.61 337.59L162.45 315.93L155.45 314.7L144.37 324.45L146.38 313.1ZM186.77 330.82L184.76 342.2L191.59 343.41L195.38 321.74L188.23 320.48L179.59 330.62L175.56 318.24L167.56 316.83L163.73 338.49L170.57 339.7L172.61 328.15L176.3 338.73L179.53 339.3L186.77 330.82Z" fill="#FFFFFF" fill-opacity="1.000000" fill-rule="evenodd"/>
	<path id="гим" d="M134.8 317.28L124.21 315.41L121.44 331.04L113.88 329.71L117.72 308.04L135.87 311.25L134.8 317.28ZM138.82 311.77L146.38 313.1L144.37 324.45L155.45 314.7L162.45 315.93L158.61 337.59L151.02 336.25L153.04 324.87L142.02 334.67L134.99 333.43L138.82 311.77ZM184.76 342.2L186.77 330.82L179.53 339.3L176.3 338.73L172.61 328.15L170.57 339.7L163.73 338.49L167.56 316.83L175.56 318.24L179.59 330.62L188.23 320.48L195.38 321.74L191.59 343.41L184.76 342.2Z" stroke="#202027" stroke-opacity="1.000000" stroke-width="0.634167"/>
	<rect id="Frame 2043683096" rx="18.775000" width="130.160004" height="80.013336" transform="translate(97.761719 274.046875) rotate(10.000001)" stroke="#202027" stroke-opacity="1.000000" stroke-width="0.500000"/>
	<rect id="Frame 2043683093" rx="18.775000" width="213.160004" height="80.013336" transform="translate(233.992188 298.068115) rotate(10.000001)" fill="#B0AEFF" fill-opacity="1.000000"/>
	<path id="анидор" d="M270.67 337.18Q268.26 334.22 262.87 333.27Q262.72 333.24 262.57 333.22Q260.12 332.82 257.57 333.02Q254.88 333.22 252.87 334.1L254.51 339.71Q255.79 339.02 257.48 338.81Q259.17 338.59 260.72 338.86Q263.48 339.35 264.35 340.9Q264.86 341.82 264.71 343.11L260.39 342.35Q255.48 341.48 252.81 342.76Q251.68 343.31 250.93 344.18Q249.93 345.36 249.61 347.13Q249.36 348.56 249.67 349.86Q249.78 350.29 249.95 350.71Q250 350.84 250.06 350.98Q250.75 352.47 252.3 353.58Q253.98 354.78 256.5 355.23Q260.09 355.86 262.22 354.39Q262.92 353.9 263.46 353.19L262.97 355.99L270.04 357.24L272.17 345.21Q272.97 340.69 271.16 337.85Q270.93 337.5 270.67 337.18ZM365.24 373.11Q367.67 374.83 370.9 375.4Q374.33 376 377.32 375.12Q377.4 375.1 377.47 375.08Q379.54 374.43 381.12 373.18Q381.88 372.58 382.53 371.84Q383.01 371.3 383.41 370.7Q384.68 368.79 385.12 366.32Q385.57 363.81 385 361.55Q384.83 360.9 384.58 360.27Q384.23 359.37 383.72 358.55Q382.66 356.85 380.93 355.55Q380.9 355.53 380.86 355.5Q378.33 353.63 374.87 353.02Q371.36 352.4 368.32 353.33Q366.42 353.91 364.91 355.02Q364.01 355.68 363.26 356.53Q362.68 357.18 362.22 357.91Q361.07 359.72 360.67 362.01Q360.23 364.45 360.76 366.67Q360.94 367.39 361.21 368.08Q361.59 369.04 362.13 369.89Q363.19 371.57 364.88 372.86Q365.06 372.99 365.24 373.11ZM408.17 359.65Q406.44 358.58 404.29 358.2Q400.68 357.57 398.3 358.98Q397.85 359.25 397.44 359.59L397.82 357.43L390.59 356.16L385.38 385.58L392.97 386.92L394.69 377.24Q395.09 377.83 395.59 378.32Q397.36 380.06 400.32 380.58Q402.5 380.97 404.52 380.55Q405.24 380.41 405.93 380.16Q406.89 379.81 407.74 379.3Q409.27 378.38 410.46 376.91Q412.34 374.62 412.93 371.27Q413.53 367.91 412.55 365.12Q411.93 363.32 410.8 361.93Q410.18 361.17 409.41 360.53Q408.82 360.04 408.17 359.65ZM285.99 337.71L278.43 336.38L274.6 358.04L282.15 359.38L283.49 351.78L291.29 353.16L289.95 360.75L297.54 362.09L301.38 340.43L293.78 339.09L292.36 347.12L284.56 345.74L285.99 337.71ZM314.04 342.66L306.49 341.33L302.66 362.99L309.69 364.23L320.71 354.43L318.69 365.82L326.28 367.16L330.12 345.5L323.12 344.26L312.04 354.01L314.04 342.66ZM356.23 377.06L358.1 366.5L355.09 365.97L357.85 350.39L337.83 346.86L336.22 354.36Q335.38 358.13 334.25 360.09Q333.57 361.26 332.6 361.63Q331.95 361.87 331.15 361.75L330.35 361.61L328.48 372.16L335.56 373.41L336.35 368.93L349.98 371.34L349.19 375.81L356.23 377.06ZM374.2 369.24Q373.17 369.57 371.97 369.36Q370.78 369.15 369.93 368.49Q369.36 368.05 368.94 367.4Q368.88 367.31 368.82 367.2Q367.93 365.65 368.34 363.36Q368.73 361.16 370.04 360.02Q370.16 359.92 370.28 359.83Q370.87 359.39 371.53 359.18Q372.58 358.84 373.8 359.05Q375.02 359.27 375.89 359.95Q376.44 360.37 376.84 360.99Q376.92 361.12 376.99 361.25Q377.84 362.76 377.45 364.97Q377.05 367.26 375.68 368.41Q375.59 368.49 375.5 368.56Q374.89 369.02 374.2 369.24ZM402.01 374.15Q400.99 374.47 399.79 374.26Q398.59 374.05 397.74 373.39Q397.17 372.95 396.76 372.31Q396.67 372.18 396.59 372.04Q395.76 370.51 396.15 368.31Q396.54 366.11 397.85 364.96Q397.97 364.85 398.09 364.76Q398.71 364.29 399.39 364.08Q400.42 363.75 401.62 363.96Q402.81 364.17 403.66 364.83Q404.24 365.27 404.65 365.91Q404.74 366.05 404.81 366.19Q405.65 367.72 405.26 369.91Q404.87 372.11 403.56 373.26Q403.44 373.37 403.31 373.47Q402.7 373.93 402.01 374.15ZM341.68 360.73Q342.31 359.02 342.95 356.12L343.39 354.06L349.19 355.08L347.5 364.63L339.99 363.3Q341.05 362.43 341.68 360.73ZM261.59 350.69Q260.61 351 259.47 350.8Q258.15 350.57 257.5 349.84Q257.2 349.5 257.08 349.11Q256.93 348.64 257.03 348.1Q257.15 347.44 257.54 347.02Q258.43 346.09 260.74 346.49L264 347.07L263.67 348.94Q263.18 349.81 262.44 350.29Q262.19 350.45 261.91 350.57Q261.75 350.64 261.59 350.69Z" fill="#FFFFFF" fill-opacity="1.000000" fill-rule="evenodd"/>
	<path id="анидор" d="M262.87 333.27Q268.26 334.22 270.67 337.18Q273.07 340.14 272.17 345.21L270.04 357.24L262.97 355.99L263.46 353.19Q261.26 356.07 256.5 355.23Q253.98 354.78 252.3 353.58Q250.62 352.38 249.95 350.71Q249.28 349.04 249.61 347.13Q250.16 344.05 252.81 342.76Q255.48 341.48 260.39 342.35L264.71 343.11Q265.12 339.64 260.72 338.86Q259.17 338.59 257.48 338.81Q255.79 339.02 254.51 339.71L252.87 334.1Q254.88 333.22 257.57 333.02Q260.27 332.81 262.87 333.27ZM259.47 350.8Q260.8 351.03 261.91 350.57Q263.01 350.11 263.67 348.94L264 347.07L260.74 346.49Q257.42 345.91 257.03 348.1Q256.85 349.1 257.5 349.84Q258.15 350.57 259.47 350.8ZM278.43 336.38L285.99 337.71L284.56 345.74L292.36 347.12L293.78 339.09L301.38 340.43L297.54 362.09L289.95 360.75L291.29 353.16L283.49 351.78L282.15 359.38L274.6 358.04L278.43 336.38ZM306.49 341.33L314.04 342.66L312.04 354.01L323.12 344.26L330.12 345.5L326.28 367.16L318.69 365.82L320.71 354.43L309.69 364.23L302.66 362.99L306.49 341.33ZM358.1 366.5L356.23 377.06L349.19 375.81L349.98 371.34L336.35 368.93L335.56 373.41L328.48 372.16L330.35 361.61L331.15 361.75Q333.12 362.05 334.25 360.09Q335.38 358.13 336.22 354.36L337.83 346.86L357.85 350.39L355.09 365.97L358.1 366.5ZM342.95 356.12Q342.31 359.02 341.68 360.73Q341.05 362.43 339.99 363.3L347.5 364.63L349.19 355.08L343.39 354.06L342.95 356.12ZM370.9 375.4Q367.43 374.79 364.88 372.86Q362.34 370.92 361.21 368.08Q360.09 365.25 360.67 362.01Q361.23 358.81 363.26 356.53Q365.29 354.25 368.32 353.33Q371.36 352.4 374.87 353.02Q378.38 353.63 380.93 355.55Q383.48 357.46 384.58 360.27Q385.69 363.08 385.12 366.32Q384.55 369.56 382.53 371.84Q380.53 374.13 377.47 375.08Q374.42 376.02 370.9 375.4ZM371.97 369.36Q373.98 369.71 375.5 368.56Q377.02 367.41 377.45 364.97Q377.88 362.57 376.84 360.99Q375.8 359.41 373.8 359.05Q371.8 358.7 370.28 359.83Q368.76 360.96 368.34 363.36Q367.9 365.8 368.94 367.4Q369.97 369.01 371.97 369.36ZM404.29 358.2Q407.24 358.72 409.41 360.53Q411.58 362.34 412.55 365.12Q413.53 367.91 412.93 371.27Q412.34 374.62 410.46 376.91Q408.6 379.2 405.93 380.16Q403.28 381.11 400.32 380.58Q396.52 379.91 394.69 377.24L392.97 386.92L385.38 385.58L390.59 356.16L397.82 357.43L397.44 359.59Q400 357.45 404.29 358.2ZM399.79 374.26Q401.79 374.62 403.31 373.47Q404.84 372.31 405.26 369.91Q405.69 367.51 404.65 365.91Q403.62 364.31 401.62 363.96Q399.62 363.61 398.09 364.76Q396.57 365.91 396.15 368.31Q395.72 370.71 396.76 372.31Q397.79 373.91 399.79 374.26Z" stroke="#202027" stroke-opacity="1.000000" stroke-width="0.634167"/>
	<rect id="Frame 2043683093" rx="18.775000" width="213.160004" height="80.013336" transform="translate(233.992188 298.068115) rotate(10.000001)" stroke="#202027" stroke-opacity="1.000000" stroke-width="0.500000"/>
	<rect id="Frame 2043683095" rx="18.775000" width="130.160004" height="80.013336" transform="translate(451.961914 336.502075) rotate(10.000001)" fill="#B0AEFF" fill-opacity="1.000000"/>
	<path id="гим" d="M478.41 377.86L489 379.73L490.07 373.7L471.92 370.5L468.09 392.16L475.64 393.49L478.41 377.86ZM500.58 375.55L493.03 374.22L489.19 395.88L496.23 397.12L507.24 387.32L505.22 398.71L512.81 400.05L516.65 378.39L509.65 377.15L498.57 386.9L500.58 375.55ZM540.97 393.27L538.96 404.66L545.79 405.86L549.59 384.19L542.43 382.93L533.79 393.07L529.76 380.7L521.76 379.29L517.93 400.95L524.77 402.16L526.81 390.6L530.51 401.19L533.74 401.75L540.97 393.27Z" fill="#FFFFFF" fill-opacity="1.000000" fill-rule="evenodd"/>
	<path id="гим" d="M489 379.73L478.41 377.86L475.64 393.49L468.09 392.16L471.92 370.5L490.07 373.7L489 379.73ZM493.03 374.22L500.58 375.55L498.57 386.9L509.65 377.15L516.65 378.39L512.81 400.05L505.22 398.71L507.24 387.32L496.23 397.12L489.19 395.88L493.03 374.22ZM538.96 404.66L540.97 393.27L533.74 401.75L530.51 401.19L526.81 390.6L524.77 402.16L517.93 400.95L521.76 379.29L529.76 380.7L533.79 393.07L542.43 382.93L549.59 384.19L545.79 405.86L538.96 404.66Z" stroke="#202027" stroke-opacity="1.000000" stroke-width="0.634167"/>
	<rect id="Frame 2043683095" rx="18.775000" width="130.160004" height="80.013336" transform="translate(451.961914 336.502075) rotate(10.000001)" stroke="#202027" stroke-opacity="1.000000" stroke-width="0.500000"/>
</svg>
