<svg width="545.339844" height="505.215698" viewBox="0 0 545.34 505.216" fill="none" xmlns="http://www.w3.org/2000/svg" xmlns:xlink="http://www.w3.org/1999/xlink">
	<desc>
			Created with Pixso.
	</desc>
	<defs/>
	<rect id="Frame 2043683080" rx="18.775000" width="100.966667" height="100.966667" transform="translate(74.769531 0.263672) rotate(9.999999)" fill="#D9B6FF" fill-opacity="1.000000"/>
	<rect id="Frame 2043683080" rx="18.775000" width="100.966667" height="100.966667" transform="translate(74.769531 0.263672) rotate(9.999999)" stroke="#271A58" stroke-opacity="1.000000" stroke-width="0.500000"/>
	<rect id="Frame 2043683097" rx="18.775000" width="100.966667" height="100.966667" transform="translate(182.266602 19.218262) rotate(9.999999)" fill="#1FA46C" fill-opacity="1.000000"/>
	<rect id="Frame 2043683097" rx="18.775000" width="100.966667" height="100.966667" transform="translate(182.266602 19.218262) rotate(9.999999)" stroke="#271A58" stroke-opacity="1.000000" stroke-width="0.500000"/>
	<rect id="Frame 2043683096" rx="18.775000" width="100.966667" height="100.966667" transform="translate(289.763672 38.172852) rotate(9.999999)" fill="#565EEF" fill-opacity="1.000000"/>
	<rect id="Frame 2043683096" rx="18.775000" width="100.966667" height="100.966667" transform="translate(289.763672 38.172852) rotate(9.999999)" stroke="#271A58" stroke-opacity="1.000000" stroke-width="0.500000"/>
	<rect id="Frame 2043683099" rx="18.775000" width="100.966667" height="100.966667" transform="translate(397.260742 57.127441) rotate(9.999999)" fill="#00C1FF" fill-opacity="1.000000"/>
	<rect id="Frame 2043683099" rx="18.775000" width="100.966667" height="100.966667" transform="translate(397.260742 57.127441) rotate(9.999999)" stroke="#271A58" stroke-opacity="1.000000" stroke-width="0.500000"/>
	<rect id="Frame 2043683103" rx="18.775000" width="100.966667" height="100.966667" transform="translate(55.829102 107.683105) rotate(9.999999)" fill="#F25050" fill-opacity="1.000000"/>
	<rect id="Frame 2043683103" rx="18.775000" width="100.966667" height="100.966667" transform="translate(55.829102 107.683105) rotate(9.999999)" stroke="#271A58" stroke-opacity="1.000000" stroke-width="0.500000"/>
	<rect id="Frame 2043683102" rx="18.775000" width="100.966667" height="100.966667" transform="translate(163.326172 126.637695) rotate(9.999999)" fill="#FFC700" fill-opacity="1.000000"/>
	<rect id="Frame 2043683102" rx="18.775000" width="100.966667" height="100.966667" transform="translate(163.326172 126.637695) rotate(9.999999)" stroke="#271A58" stroke-opacity="1.000000" stroke-width="0.500000"/>
	<rect id="Frame 2043683105" rx="18.775000" width="100.966667" height="100.966667" transform="translate(270.822266 145.592407) rotate(9.999999)" fill="#99D100" fill-opacity="1.000000"/>
	<rect id="Frame 2043683105" rx="18.775000" width="100.966667" height="100.966667" transform="translate(270.822266 145.592407) rotate(9.999999)" stroke="#271A58" stroke-opacity="1.000000" stroke-width="0.500000"/>
	<rect id="Frame 2043683107" rx="18.775000" width="100.966667" height="100.966667" transform="translate(378.319336 164.546997) rotate(9.999999)" fill="#AD61FF" fill-opacity="1.000000"/>
	<rect id="Frame 2043683107" rx="18.775000" width="100.966667" height="100.966667" transform="translate(378.319336 164.546997) rotate(9.999999)" stroke="#271A58" stroke-opacity="1.000000" stroke-width="0.500000"/>
	<rect id="Frame 2043683108" rx="18.775000" width="100.966667" height="100.966667" transform="translate(36.887695 215.102783) rotate(9.999999)" fill="#565EEF" fill-opacity="1.000000"/>
	<rect id="Frame 2043683108" rx="18.775000" width="100.966667" height="100.966667" transform="translate(36.887695 215.102783) rotate(9.999999)" stroke="#271A58" stroke-opacity="1.000000" stroke-width="0.500000"/>
	<rect id="Frame 2043683110" rx="18.775000" width="100.966667" height="100.966667" transform="translate(144.384766 234.057373) rotate(9.999999)" fill="#00C1FF" fill-opacity="1.000000"/>
	<rect id="Frame 2043683110" rx="18.775000" width="100.966667" height="100.966667" transform="translate(144.384766 234.057373) rotate(9.999999)" stroke="#271A58" stroke-opacity="1.000000" stroke-width="0.500000"/>
	<rect id="Frame 2043683112" rx="18.775000" width="100.966667" height="100.966667" transform="translate(251.881836 253.011963) rotate(9.999999)" fill="#FF6D00" fill-opacity="1.000000"/>
	<rect id="Frame 2043683112" rx="18.775000" width="100.966667" height="100.966667" transform="translate(251.881836 253.011963) rotate(9.999999)" stroke="#271A58" stroke-opacity="1.000000" stroke-width="0.500000"/>
	<rect id="Frame 2043683111" rx="18.775000" width="100.966667" height="100.966667" transform="translate(359.378906 271.966553) rotate(9.999999)" fill="#1FA46C" fill-opacity="1.000000"/>
	<rect id="Frame 2043683111" rx="18.775000" width="100.966667" height="100.966667" transform="translate(359.378906 271.966553) rotate(9.999999)" stroke="#271A58" stroke-opacity="1.000000" stroke-width="0.500000"/>
	<rect id="Frame 2043683115" rx="18.775000" width="100.966667" height="100.966667" transform="translate(17.947266 322.522217) rotate(9.999999)" fill="#AD61FF" fill-opacity="1.000000"/>
	<rect id="Frame 2043683115" rx="18.775000" width="100.966667" height="100.966667" transform="translate(17.947266 322.522217) rotate(9.999999)" stroke="#271A58" stroke-opacity="1.000000" stroke-width="0.500000"/>
	<rect id="Frame 2043683116" rx="18.775000" width="100.966667" height="100.966667" transform="translate(125.443359 341.476807) rotate(9.999999)" fill="#99D100" fill-opacity="1.000000"/>
	<rect id="Frame 2043683116" rx="18.775000" width="100.966667" height="100.966667" transform="translate(125.443359 341.476807) rotate(9.999999)" stroke="#271A58" stroke-opacity="1.000000" stroke-width="0.500000"/>
	<rect id="Frame 2043683117" rx="18.775000" width="100.966667" height="100.966667" transform="translate(232.940430 360.431519) rotate(9.999999)" fill="#FFC700" fill-opacity="1.000000"/>
	<rect id="Frame 2043683117" rx="18.775000" width="100.966667" height="100.966667" transform="translate(232.940430 360.431519) rotate(9.999999)" stroke="#271A58" stroke-opacity="1.000000" stroke-width="0.500000"/>
	<rect id="Frame 2043683118" rx="18.775000" width="100.966667" height="100.966667" transform="translate(340.437500 379.386108) rotate(9.999999)" fill="#D9B6FF" fill-opacity="1.000000"/>
	<rect id="Frame 2043683118" rx="18.775000" width="100.966667" height="100.966667" transform="translate(340.437500 379.386108) rotate(9.999999)" stroke="#271A58" stroke-opacity="1.000000" stroke-width="0.500000"/>
</svg>
