<svg width="625.022461" height="528.259399" viewBox="0 0 625.022 528.259" fill="none" xmlns="http://www.w3.org/2000/svg" xmlns:xlink="http://www.w3.org/1999/xlink">
	<desc>
			Created with Pixso.
	</desc>
	<defs/>
	<rect id="Frame 2043683103" rx="18.775000" width="105.960831" height="141.447784" transform="translate(76.437500 0.269287) rotate(10.000000)" fill="#565EEF" fill-opacity="1.000000"/>
	<path id="?" d="M112.85 80Q111.51 81.38 111.08 83.8L119.69 85.32Q119.83 84.55 120.21 83.93Q120.49 83.51 120.88 83.16Q121.83 82.3 123.72 81.19Q125.45 80.15 126.57 79.28Q127.7 78.39 128.64 76.99Q129.6 75.59 129.95 73.61Q130.34 71.39 129.71 69.51Q129.12 67.75 127.63 66.29Q124.54 63.27 118.79 62.26Q113.67 61.36 109.7 62.6Q107.2 63.39 105.25 64.89Q104.11 65.77 103.15 66.89L109.68 72.03Q110.54 71.03 111.62 70.41Q112.12 70.12 112.68 69.91Q113.16 69.73 113.66 69.63Q114.95 69.36 116.35 69.61Q118.23 69.94 119.26 71Q119.83 71.58 120.01 72.27Q120.16 72.83 120.05 73.46Q120 73.72 119.92 73.95Q119.66 74.67 119.03 75.26Q118.2 76.02 116.57 77.09Q114.21 78.61 112.85 80ZM110.39 96.13Q111.5 97.04 113.13 97.33Q114.87 97.63 116.3 97.1Q116.85 96.89 117.36 96.55Q118.28 95.94 118.83 95.08Q119.36 94.26 119.54 93.22Q119.77 91.97 119.43 90.89Q119.19 90.08 118.63 89.37Q118.34 88.99 117.98 88.67Q116.78 87.6 114.91 87.27Q113.02 86.93 111.53 87.55Q111.11 87.73 110.72 87.98Q109.99 88.44 109.49 89.09Q108.79 90 108.56 91.29Q108.38 92.33 108.59 93.28Q108.82 94.27 109.47 95.16Q109.88 95.71 110.39 96.13Z" fill="#FFFFFF" fill-opacity="1.000000" fill-rule="evenodd"/>
	<path id="?" d="M111.08 83.8Q111.51 81.38 112.85 80Q114.21 78.61 116.57 77.09Q118.2 76.02 119.03 75.26Q119.87 74.48 120.05 73.46Q120.3 72.06 119.26 71Q118.23 69.94 116.35 69.61Q114.41 69.27 112.68 69.91Q110.94 70.56 109.68 72.03L103.15 66.89Q105.74 63.85 109.7 62.6Q113.67 61.36 118.79 62.26Q124.54 63.27 127.63 66.29Q130.71 69.3 129.95 73.61Q129.6 75.59 128.64 76.99Q127.7 78.39 126.57 79.28Q125.45 80.15 123.72 81.19Q121.83 82.3 120.88 83.16Q119.92 84.01 119.69 85.32L111.08 83.8ZM113.13 97.33Q110.76 96.91 109.47 95.16Q108.19 93.41 108.56 91.29Q108.95 89.1 110.72 87.98Q112.49 86.84 114.91 87.27Q117.33 87.69 118.63 89.37Q119.93 91.04 119.54 93.22Q119.17 95.35 117.36 96.55Q115.55 97.75 113.13 97.33Z" stroke="#271A58" stroke-opacity="1.000000" stroke-width="0.511614"/>
	<rect id="Frame 2043683103" rx="18.775000" width="105.960831" height="141.447784" transform="translate(76.437500 0.269287) rotate(10.000000)" stroke="#271A58" stroke-opacity="1.000000" stroke-width="0.500000"/>
	<rect id="Frame 2043683100" rx="18.775000" width="105.960831" height="141.447784" transform="translate(187.435547 19.841064) rotate(10.000000)" fill="#009EE4" fill-opacity="1.000000"/>
	<path id="?" d="M223.85 99.57Q222.51 100.95 222.08 103.37L230.69 104.89Q230.82 104.12 231.21 103.51Q231.48 103.08 231.88 102.73Q232.83 101.87 234.72 100.76Q236.45 99.72 237.57 98.85Q238.7 97.96 239.64 96.56Q240.6 95.16 240.94 93.19Q241.34 90.96 240.71 89.08Q240.12 87.32 238.63 85.86Q235.54 82.85 229.79 81.83Q224.67 80.93 220.7 82.18Q218.2 82.96 216.25 84.46Q215.11 85.34 214.15 86.46L220.68 91.6Q221.54 90.6 222.61 89.98Q223.12 89.69 223.68 89.48Q224.16 89.3 224.66 89.2Q225.95 88.93 227.35 89.18Q229.22 89.51 230.25 90.57Q230.83 91.15 231.01 91.84Q231.16 92.4 231.05 93.04Q231 93.29 230.92 93.52Q230.66 94.24 230.02 94.83Q229.19 95.59 227.57 96.66Q225.2 98.18 223.85 99.57ZM221.39 115.7Q222.5 116.61 224.13 116.9Q225.87 117.21 227.29 116.67Q227.85 116.46 228.36 116.12Q229.28 115.51 229.83 114.66Q230.36 113.84 230.54 112.79Q230.76 111.54 230.43 110.46Q230.19 109.66 229.63 108.94Q229.33 108.56 228.98 108.24Q227.78 107.17 225.91 106.84Q224.02 106.51 222.52 107.13Q222.11 107.3 221.72 107.55Q220.99 108.01 220.49 108.66Q219.79 109.58 219.56 110.86Q219.38 111.9 219.59 112.85Q219.81 113.84 220.47 114.73Q220.87 115.28 221.39 115.7Z" fill="#FFFFFF" fill-opacity="1.000000" fill-rule="evenodd"/>
	<path id="?" d="M222.08 103.37Q222.51 100.95 223.85 99.57Q225.2 98.18 227.57 96.66Q229.19 95.59 230.02 94.83Q230.87 94.05 231.05 93.04Q231.3 91.63 230.25 90.57Q229.22 89.51 227.35 89.18Q225.41 88.84 223.68 89.48Q221.94 90.13 220.68 91.6L214.15 86.46Q216.74 83.43 220.7 82.18Q224.67 80.93 229.79 81.83Q235.54 82.85 238.63 85.86Q241.71 88.88 240.94 93.19Q240.6 95.16 239.64 96.56Q238.7 97.96 237.57 98.85Q236.45 99.72 234.72 100.76Q232.83 101.87 231.88 102.73Q230.92 103.58 230.69 104.89L222.08 103.37ZM224.13 116.9Q221.76 116.48 220.47 114.73Q219.18 112.98 219.56 110.86Q219.95 108.67 221.72 107.55Q223.49 106.41 225.91 106.84Q228.33 107.27 229.63 108.94Q230.93 110.61 230.54 112.79Q230.17 114.92 228.36 116.12Q226.55 117.33 224.13 116.9Z" stroke="#271A58" stroke-opacity="1.000000" stroke-width="0.511614"/>
	<rect id="Frame 2043683100" rx="18.775000" width="105.960831" height="141.447784" transform="translate(187.435547 19.841064) rotate(10.000000)" stroke="#271A58" stroke-opacity="1.000000" stroke-width="0.500000"/>
	<rect id="Frame 2043683094" rx="18.775000" width="105.960831" height="141.447784" transform="translate(298.432617 39.412964) rotate(10.000000)" fill="#AD61FF" fill-opacity="1.000000"/>
	<path id="?" d="M334.18 118.55Q332.52 120.26 331.99 123.26L342.66 125.15Q342.83 124.19 343.31 123.43Q343.64 122.9 344.13 122.46Q345.31 121.4 347.66 120.02Q349.8 118.74 351.18 117.65Q352.59 116.56 353.75 114.82Q354.94 113.08 355.37 110.63Q355.86 107.87 355.08 105.54Q354.34 103.36 352.5 101.55Q348.68 97.82 341.55 96.56Q335.19 95.44 330.27 96.99Q327.18 97.96 324.76 99.82Q323.34 100.91 322.16 102.3L330.26 108.67Q331.32 107.43 332.65 106.66Q333.28 106.3 333.96 106.04Q334.56 105.82 335.18 105.69Q336.78 105.36 338.51 105.67Q340.84 106.08 342.12 107.39Q342.83 108.11 343.06 108.96Q343.24 109.66 343.1 110.45Q343.05 110.76 342.94 111.05Q342.62 111.95 341.83 112.67Q340.8 113.62 338.79 114.94Q335.86 116.82 334.18 118.55ZM331.13 138.54Q332.51 139.67 334.53 140.03Q336.68 140.41 338.45 139.74Q339.14 139.48 339.77 139.06Q340.91 138.3 341.59 137.25Q342.25 136.23 342.48 134.94Q342.75 133.39 342.34 132.05Q342.03 131.05 341.35 130.17Q340.98 129.69 340.54 129.3Q339.05 127.97 336.74 127.56Q334.39 127.14 332.54 127.91Q332.02 128.13 331.54 128.44Q330.63 129.01 330.02 129.81Q329.15 130.95 328.86 132.54Q328.64 133.83 328.9 135.01Q329.18 136.24 329.99 137.34Q330.49 138.02 331.13 138.54Z" fill="#FFFFFF" fill-opacity="1.000000" fill-rule="evenodd"/>
	<path id="?" d="M331.99 123.26Q332.52 120.26 334.18 118.55Q335.86 116.82 338.79 114.94Q340.8 113.62 341.83 112.67Q342.88 111.71 343.1 110.45Q343.41 108.71 342.12 107.39Q340.84 106.08 338.51 105.67Q336.11 105.25 333.96 106.04Q331.82 106.84 330.26 108.67L322.16 102.3Q325.36 98.54 330.27 96.99Q335.19 95.44 341.55 96.56Q348.68 97.82 352.5 101.55Q356.32 105.29 355.37 110.63Q354.94 113.08 353.75 114.82Q352.59 116.56 351.18 117.65Q349.8 118.74 347.66 120.02Q345.31 121.4 344.13 122.46Q342.95 123.52 342.66 125.15L331.99 123.26ZM334.53 140.03Q331.58 139.51 329.99 137.34Q328.4 135.17 328.86 132.54Q329.34 129.83 331.54 128.44Q333.73 127.03 336.74 127.56Q339.74 128.09 341.35 130.17Q342.96 132.23 342.48 134.94Q342.01 137.57 339.77 139.06Q337.53 140.56 334.53 140.03Z" stroke="#271A58" stroke-opacity="1.000000" stroke-width="0.511614"/>
	<rect id="Frame 2043683094" rx="18.775000" width="105.960831" height="141.447784" transform="translate(298.432617 39.412964) rotate(10.000000)" stroke="#271A58" stroke-opacity="1.000000" stroke-width="0.500000"/>
	<rect id="Frame 2043683095" rx="18.775000" width="105.960831" height="141.447784" transform="translate(409.430664 58.984863) rotate(10.000000)" fill="#F25050" fill-opacity="1.000000"/>
	<path id="?" d="M445.18 138.12Q443.52 139.84 442.98 142.84L453.66 144.72Q453.82 143.76 454.31 143Q454.64 142.47 455.13 142.03Q456.31 140.97 458.65 139.59Q460.8 138.31 462.18 137.23Q463.58 136.13 464.75 134.39Q465.94 132.65 466.37 130.21Q466.86 127.45 466.07 125.11Q465.34 122.93 463.49 121.13Q459.67 117.39 452.54 116.13Q446.19 115.01 441.27 116.56Q438.17 117.54 435.76 119.39Q434.34 120.48 433.16 121.87L441.25 128.24Q442.31 127 443.65 126.23Q444.27 125.87 444.96 125.62Q445.56 125.39 446.18 125.27Q447.78 124.94 449.51 125.24Q451.84 125.65 453.12 126.96Q453.83 127.69 454.05 128.54Q454.24 129.23 454.1 130.02Q454.04 130.33 453.94 130.63Q453.62 131.52 452.83 132.24Q451.8 133.19 449.79 134.51Q446.86 136.39 445.18 138.12ZM442.13 158.11Q443.51 159.24 445.53 159.6Q447.68 159.98 449.45 159.32Q450.14 159.06 450.77 158.64Q451.91 157.88 452.59 156.82Q453.25 155.8 453.48 154.51Q453.75 152.96 453.34 151.62Q453.03 150.62 452.34 149.74Q451.98 149.26 451.54 148.87Q450.05 147.54 447.73 147.13Q445.39 146.72 443.53 147.49Q443.02 147.7 442.54 148.01Q441.63 148.58 441.02 149.39Q440.14 150.52 439.86 152.11Q439.63 153.4 439.9 154.58Q440.18 155.81 440.99 156.91Q441.49 157.59 442.13 158.11Z" fill="#FFFFFF" fill-opacity="1.000000" fill-rule="evenodd"/>
	<path id="?" d="M442.98 142.84Q443.52 139.84 445.18 138.12Q446.86 136.39 449.79 134.51Q451.8 133.19 452.83 132.24Q453.88 131.28 454.1 130.02Q454.41 128.28 453.12 126.96Q451.84 125.65 449.51 125.24Q447.11 124.82 444.96 125.62Q442.81 126.41 441.25 128.24L433.16 121.87Q436.36 118.11 441.27 116.56Q446.19 115.01 452.54 116.13Q459.67 117.39 463.49 121.13Q467.32 124.86 466.37 130.21Q465.94 132.65 464.75 134.39Q463.58 136.13 462.18 137.23Q460.8 138.31 458.65 139.59Q456.31 140.97 455.13 142.03Q453.94 143.09 453.66 144.72L442.98 142.84ZM445.53 159.6Q442.58 159.08 440.99 156.91Q439.4 154.74 439.86 152.11Q440.34 149.4 442.54 148.01Q444.73 146.6 447.73 147.13Q450.73 147.66 452.34 149.74Q453.95 151.8 453.48 154.51Q453.01 157.14 450.77 158.64Q448.53 160.13 445.53 159.6Z" stroke="#271A58" stroke-opacity="1.000000" stroke-width="0.511614"/>
	<rect id="Frame 2043683095" rx="18.775000" width="105.960831" height="141.447784" transform="translate(409.430664 58.984863) rotate(10.000000)" stroke="#271A58" stroke-opacity="1.000000" stroke-width="0.500000"/>
	<rect id="Frame 2043683101" rx="18.775000" width="105.960831" height="141.447784" transform="translate(520.428711 78.556641) rotate(10.000000)" fill="#009EE4" fill-opacity="1.000000"/>
	<path id="?" d="M556.84 158.29Q555.5 159.67 555.07 162.09L563.68 163.61Q563.82 162.84 564.21 162.22Q564.48 161.79 564.87 161.44Q565.82 160.59 567.71 159.47Q569.44 158.44 570.56 157.56Q571.69 156.68 572.63 155.28Q573.59 153.87 573.94 151.9Q574.33 149.67 573.7 147.79Q573.11 146.03 571.62 144.58Q568.54 141.56 562.78 140.55Q557.66 139.64 553.69 140.89Q551.19 141.68 549.24 143.18Q548.1 144.06 547.14 145.18L553.68 150.31Q554.53 149.31 555.61 148.7Q556.11 148.41 556.67 148.2Q557.15 148.02 557.65 147.92Q558.94 147.65 560.34 147.9Q562.22 148.23 563.25 149.29Q563.82 149.87 564 150.56Q564.15 151.12 564.04 151.75Q564 152 563.91 152.24Q563.65 152.96 563.02 153.54Q562.19 154.31 560.56 155.38Q558.2 156.89 556.84 158.29ZM554.38 174.42Q555.5 175.33 557.12 175.61Q558.86 175.92 560.29 175.39Q560.84 175.18 561.35 174.84Q562.27 174.22 562.82 173.37Q563.35 172.55 563.54 171.51Q563.76 170.26 563.43 169.18Q563.18 168.37 562.62 167.66Q562.33 167.28 561.97 166.96Q560.77 165.88 558.9 165.55Q557.01 165.22 555.52 165.84Q555.1 166.02 554.71 166.26Q553.98 166.73 553.48 167.37Q552.78 168.29 552.55 169.57Q552.37 170.62 552.58 171.57Q552.81 172.56 553.46 173.45Q553.87 174 554.38 174.42Z" fill="#FFFFFF" fill-opacity="1.000000" fill-rule="evenodd"/>
	<path id="?" d="M555.07 162.09Q555.5 159.67 556.84 158.29Q558.2 156.89 560.56 155.38Q562.19 154.31 563.02 153.54Q563.86 152.77 564.04 151.75Q564.29 150.35 563.25 149.29Q562.22 148.23 560.34 147.9Q558.4 147.56 556.67 148.2Q554.93 148.84 553.68 150.31L547.14 145.18Q549.73 142.14 553.69 140.89Q557.66 139.64 562.78 140.55Q568.54 141.56 571.62 144.58Q574.7 147.59 573.94 151.9Q573.59 153.87 572.63 155.28Q571.69 156.68 570.56 157.56Q569.44 158.44 567.71 159.47Q565.82 160.59 564.87 161.44Q563.91 162.3 563.68 163.61L555.07 162.09ZM557.12 175.61Q554.75 175.2 553.46 173.45Q552.18 171.7 552.55 169.57Q552.94 167.39 554.71 166.26Q556.48 165.13 558.9 165.55Q561.32 165.98 562.62 167.66Q563.92 169.33 563.54 171.51Q563.16 173.63 561.35 174.84Q559.54 176.04 557.12 175.61Z" stroke="#271A58" stroke-opacity="1.000000" stroke-width="0.511614"/>
	<rect id="Frame 2043683101" rx="18.775000" width="105.960831" height="141.447784" transform="translate(520.428711 78.556641) rotate(10.000000)" stroke="#271A58" stroke-opacity="1.000000" stroke-width="0.500000"/>
	<rect id="Frame 2043683104" rx="18.775000" width="105.960831" height="141.447784" transform="translate(50.722656 146.106445) rotate(10.000000)" fill="#1FA46C" fill-opacity="1.000000"/>
	<path id="?" d="M87.14 225.84Q85.79 227.22 85.37 229.64L93.97 231.16Q94.11 230.39 94.5 229.77Q94.77 229.34 95.16 228.99Q96.12 228.14 98.01 227.02Q99.74 225.99 100.85 225.11Q101.99 224.23 102.93 222.83Q103.88 221.42 104.23 219.45Q104.63 217.23 103.99 215.34Q103.4 213.58 101.91 212.13Q98.83 209.11 93.08 208.1Q87.95 207.19 83.98 208.44Q81.49 209.23 79.54 210.73Q78.39 211.61 77.44 212.73L83.97 217.86Q84.83 216.86 85.9 216.25Q86.41 215.96 86.96 215.75Q87.44 215.57 87.94 215.47Q89.23 215.2 90.63 215.45Q92.51 215.78 93.54 216.84Q94.11 217.42 94.3 218.1Q94.45 218.67 94.33 219.3Q94.29 219.55 94.2 219.79Q93.94 220.51 93.31 221.09Q92.48 221.86 90.85 222.92Q88.49 224.44 87.14 225.84ZM84.67 241.96Q85.79 242.88 87.42 243.16Q89.16 243.47 90.58 242.94Q91.14 242.73 91.64 242.39Q92.57 241.77 93.12 240.92Q93.64 240.1 93.83 239.06Q94.05 237.81 93.72 236.73Q93.47 235.92 92.92 235.21Q92.62 234.83 92.27 234.51Q91.07 233.43 89.2 233.1Q87.31 232.77 85.81 233.39Q85.39 233.57 85 233.81Q84.27 234.28 83.78 234.92Q83.07 235.84 82.85 237.12Q82.66 238.17 82.88 239.12Q83.1 240.11 83.76 241Q84.16 241.55 84.67 241.96Z" fill="#FFFFFF" fill-opacity="1.000000" fill-rule="evenodd"/>
	<path id="?" d="M85.37 229.64Q85.79 227.22 87.14 225.84Q88.49 224.44 90.85 222.92Q92.48 221.86 93.31 221.09Q94.15 220.32 94.33 219.3Q94.58 217.9 93.54 216.84Q92.51 215.78 90.63 215.45Q88.7 215.1 86.96 215.75Q85.23 216.39 83.97 217.86L77.44 212.73Q80.02 209.69 83.98 208.44Q87.95 207.19 93.08 208.1Q98.83 209.11 101.91 212.13Q105 215.14 104.23 219.45Q103.88 221.42 102.93 222.83Q101.99 224.23 100.85 225.11Q99.74 225.99 98.01 227.02Q96.12 228.14 95.16 228.99Q94.21 229.85 93.97 231.16L85.37 229.64ZM87.42 243.16Q85.04 242.75 83.76 241Q82.47 239.25 82.85 237.12Q83.23 234.94 85 233.81Q86.78 232.68 89.2 233.1Q91.62 233.53 92.92 235.21Q94.22 236.87 93.83 239.06Q93.45 241.18 91.64 242.39Q89.84 243.59 87.42 243.16Z" stroke="#271A58" stroke-opacity="1.000000" stroke-width="0.511614"/>
	<rect id="Frame 2043683104" rx="18.775000" width="105.960831" height="141.447784" transform="translate(50.722656 146.106445) rotate(10.000000)" stroke="#271A58" stroke-opacity="1.000000" stroke-width="0.500000"/>
	<rect id="Frame 2043683096" rx="18.775000" width="105.960831" height="141.447784" transform="translate(161.719727 165.678345) rotate(10.000000)" fill="#F25050" fill-opacity="1.000000"/>
	<path id="?" d="M197.47 244.81Q195.81 246.53 195.27 249.53L205.94 251.41Q206.11 250.45 206.59 249.69Q206.93 249.16 207.42 248.73Q208.6 247.67 210.94 246.28Q213.09 245 214.47 243.92Q215.87 242.82 217.04 241.08Q218.23 239.34 218.66 236.9Q219.15 234.14 218.36 231.81Q217.63 229.63 215.78 227.82Q211.96 224.08 204.83 222.83Q198.48 221.71 193.56 223.25Q190.46 224.23 188.05 226.09Q186.63 227.18 185.45 228.57L193.54 234.93Q194.6 233.69 195.94 232.93Q196.56 232.57 197.25 232.31Q197.85 232.09 198.47 231.96Q200.07 231.63 201.8 231.93Q204.13 232.35 205.41 233.66Q206.12 234.38 206.34 235.23Q206.53 235.93 206.39 236.71Q206.33 237.03 206.23 237.32Q205.91 238.21 205.12 238.93Q204.09 239.88 202.08 241.2Q199.15 243.09 197.47 244.81ZM194.41 264.81Q195.8 265.94 197.81 266.29Q199.97 266.67 201.74 266.01Q202.43 265.75 203.06 265.33Q204.2 264.57 204.88 263.51Q205.54 262.5 205.76 261.2Q206.04 259.65 205.63 258.31Q205.32 257.31 204.63 256.43Q204.27 255.96 203.83 255.57Q202.34 254.23 200.02 253.82Q197.68 253.41 195.82 254.18Q195.31 254.39 194.83 254.7Q193.92 255.28 193.3 256.08Q192.43 257.22 192.15 258.8Q191.92 260.1 192.19 261.28Q192.47 262.5 193.28 263.6Q193.78 264.29 194.41 264.81Z" fill="#FFFFFF" fill-opacity="1.000000" fill-rule="evenodd"/>
	<path id="?" d="M195.27 249.53Q195.81 246.53 197.47 244.81Q199.15 243.09 202.08 241.2Q204.09 239.88 205.12 238.93Q206.17 237.97 206.39 236.71Q206.7 234.97 205.41 233.66Q204.13 232.35 201.8 231.93Q199.4 231.51 197.25 232.31Q195.1 233.11 193.54 234.93L185.45 228.57Q188.65 224.8 193.56 223.25Q198.48 221.71 204.83 222.83Q211.96 224.08 215.78 227.82Q219.6 231.56 218.66 236.9Q218.23 239.34 217.04 241.08Q215.87 242.82 214.47 243.92Q213.09 245 210.94 246.28Q208.6 247.67 207.42 248.73Q206.23 249.79 205.94 251.41L195.27 249.53ZM197.81 266.29Q194.87 265.77 193.28 263.6Q191.68 261.44 192.15 258.8Q192.63 256.1 194.83 254.7Q197.02 253.29 200.02 253.82Q203.02 254.35 204.63 256.43Q206.24 258.5 205.76 261.2Q205.3 263.84 203.06 265.33Q200.81 266.82 197.81 266.29Z" stroke="#271A58" stroke-opacity="1.000000" stroke-width="0.511614"/>
	<rect id="Frame 2043683096" rx="18.775000" width="105.960831" height="141.447784" transform="translate(161.719727 165.678345) rotate(10.000000)" stroke="#271A58" stroke-opacity="1.000000" stroke-width="0.500000"/>
	<rect id="Frame 2043683112" rx="18.775000" width="105.960831" height="141.447784" transform="translate(272.717773 185.250366) rotate(10.000000)" fill="#009EE4" fill-opacity="1.000000"/>
	<path id="?" d="M309.13 264.98Q307.79 266.36 307.36 268.78L315.97 270.3Q316.11 269.53 316.5 268.92Q316.77 268.49 317.16 268.14Q318.11 267.28 320 266.17Q321.73 265.13 322.85 264.26Q323.98 263.37 324.92 261.97Q325.88 260.57 326.23 258.6Q326.62 256.37 325.99 254.49Q325.4 252.73 323.91 251.27Q320.83 248.26 315.07 247.24Q309.95 246.34 305.98 247.59Q303.48 248.37 301.53 249.87Q300.39 250.75 299.43 251.87L305.97 257.01Q306.82 256.01 307.9 255.39Q308.4 255.1 308.96 254.89Q309.44 254.71 309.94 254.61Q311.23 254.34 312.63 254.59Q314.51 254.92 315.54 255.98Q316.11 256.56 316.29 257.25Q316.44 257.81 316.33 258.45Q316.29 258.7 316.2 258.93Q315.94 259.65 315.31 260.24Q314.48 261 312.85 262.07Q310.49 263.59 309.13 264.98ZM306.67 281.11Q307.79 282.02 309.41 282.31Q311.15 282.61 312.58 282.08Q313.13 281.87 313.64 281.53Q314.56 280.92 315.11 280.07Q315.64 279.25 315.83 278.2Q316.05 276.95 315.72 275.87Q315.47 275.07 314.91 274.35Q314.62 273.97 314.26 273.65Q313.06 272.58 311.19 272.25Q309.3 271.91 307.81 272.54Q307.39 272.71 307 272.96Q306.27 273.42 305.77 274.07Q305.07 274.99 304.84 276.27Q304.66 277.31 304.87 278.26Q305.1 279.25 305.75 280.14Q306.16 280.69 306.67 281.11Z" fill="#FFFFFF" fill-opacity="1.000000" fill-rule="evenodd"/>
	<path id="?" d="M307.36 268.78Q307.79 266.36 309.13 264.98Q310.49 263.59 312.85 262.07Q314.48 261 315.31 260.24Q316.15 259.46 316.33 258.45Q316.58 257.04 315.54 255.98Q314.51 254.92 312.63 254.59Q310.69 254.25 308.96 254.89Q307.22 255.54 305.97 257.01L299.43 251.87Q302.02 248.84 305.98 247.59Q309.95 246.34 315.07 247.24Q320.83 248.26 323.91 251.27Q326.99 254.29 326.23 258.6Q325.88 260.57 324.92 261.97Q323.98 263.37 322.85 264.26Q321.73 265.13 320 266.17Q318.11 267.28 317.16 268.14Q316.2 268.99 315.97 270.3L307.36 268.78ZM309.41 282.31Q307.04 281.89 305.75 280.14Q304.47 278.39 304.84 276.27Q305.23 274.08 307 272.96Q308.77 271.82 311.19 272.25Q313.61 272.68 314.91 274.35Q316.21 276.02 315.83 278.2Q315.45 280.33 313.64 281.53Q311.83 282.73 309.41 282.31Z" stroke="#271A58" stroke-opacity="1.000000" stroke-width="0.511614"/>
	<rect id="Frame 2043683112" rx="18.775000" width="105.960831" height="141.447784" transform="translate(272.717773 185.250366) rotate(10.000000)" stroke="#271A58" stroke-opacity="1.000000" stroke-width="0.500000"/>
	<rect id="Frame 2043683098" rx="18.775000" width="105.960831" height="141.447784" transform="translate(383.715820 204.822144) rotate(10.000000)" fill="#99D100" fill-opacity="1.000000"/>
	<path id="?" d="M419.46 283.96Q417.8 285.67 417.27 288.67L427.94 290.55Q428.11 289.6 428.59 288.84Q428.93 288.31 429.41 287.87Q430.6 286.81 432.94 285.43Q435.08 284.15 436.47 283.06Q437.87 281.97 439.04 280.23Q440.22 278.49 440.65 276.04Q441.14 273.28 440.36 270.95Q439.63 268.77 437.78 266.96Q433.96 263.23 426.83 261.97Q420.48 260.85 415.55 262.4Q412.46 263.37 410.04 265.23Q408.63 266.32 407.44 267.71L415.54 274.07Q416.6 272.84 417.93 272.07Q418.56 271.71 419.25 271.45Q419.85 271.23 420.46 271.1Q422.07 270.77 423.8 271.08Q426.12 271.49 427.4 272.8Q428.11 273.52 428.34 274.37Q428.52 275.07 428.39 275.86Q428.33 276.17 428.22 276.46Q427.9 277.35 427.12 278.08Q426.09 279.03 424.07 280.35Q421.14 282.23 419.46 283.96ZM416.41 303.95Q417.79 305.08 419.81 305.44Q421.97 305.82 423.73 305.15Q424.42 304.89 425.05 304.47Q426.19 303.71 426.88 302.66Q427.53 301.64 427.76 300.35Q428.04 298.8 427.62 297.46Q427.32 296.46 426.63 295.57Q426.26 295.1 425.82 294.71Q424.34 293.38 422.02 292.97Q419.67 292.55 417.82 293.32Q417.3 293.54 416.82 293.85Q415.91 294.42 415.3 295.22Q414.43 296.36 414.15 297.95Q413.92 299.24 414.19 300.42Q414.46 301.64 415.27 302.75Q415.78 303.43 416.41 303.95Z" fill="#FFFFFF" fill-opacity="1.000000" fill-rule="evenodd"/>
	<path id="?" d="M417.27 288.67Q417.8 285.67 419.46 283.96Q421.14 282.23 424.07 280.35Q426.09 279.03 427.12 278.08Q428.16 277.12 428.39 275.86Q428.69 274.12 427.4 272.8Q426.12 271.49 423.8 271.08Q421.4 270.66 419.25 271.45Q417.1 272.25 415.54 274.07L407.44 267.71Q410.65 263.95 415.55 262.4Q420.48 260.85 426.83 261.97Q433.96 263.23 437.78 266.96Q441.6 270.7 440.65 276.04Q440.22 278.49 439.04 280.23Q437.87 281.97 436.47 283.06Q435.08 284.15 432.94 285.43Q430.6 286.81 429.41 287.87Q428.23 288.93 427.94 290.55L417.27 288.67ZM419.81 305.44Q416.87 304.92 415.27 302.75Q413.68 300.58 414.15 297.95Q414.63 295.24 416.82 293.85Q419.02 292.44 422.02 292.97Q425.02 293.5 426.63 295.57Q428.24 297.64 427.76 300.35Q427.29 302.98 425.05 304.47Q422.81 305.96 419.81 305.44Z" stroke="#271A58" stroke-opacity="1.000000" stroke-width="0.511614"/>
	<rect id="Frame 2043683098" rx="18.775000" width="105.960831" height="141.447784" transform="translate(383.715820 204.822144) rotate(10.000000)" stroke="#271A58" stroke-opacity="1.000000" stroke-width="0.500000"/>
	<rect id="Frame 2043683102" rx="18.775000" width="105.960831" height="141.447784" transform="translate(494.713867 224.394043) rotate(10.000000)" fill="#FFC700" fill-opacity="1.000000"/>
	<path id="?" d="M531.13 304.12Q529.79 305.51 529.36 307.93L537.97 309.45Q538.1 308.67 538.49 308.06Q538.76 307.63 539.15 307.28Q540.11 306.43 542 305.31Q543.73 304.28 544.84 303.4Q545.98 302.52 546.92 301.11Q547.87 299.71 548.22 297.74Q548.62 295.51 547.99 293.63Q547.39 291.87 545.9 290.41Q542.82 287.4 537.07 286.39Q531.95 285.48 527.97 286.73Q525.48 287.52 523.53 289.02Q522.38 289.9 521.43 291.02L527.96 296.15Q528.82 295.15 529.89 294.53Q530.4 294.24 530.95 294.04Q531.44 293.86 531.93 293.75Q533.23 293.49 534.62 293.73Q536.5 294.07 537.53 295.12Q538.1 295.71 538.29 296.39Q538.44 296.96 538.33 297.59Q538.28 297.84 538.19 298.08Q537.94 298.8 537.3 299.38Q536.47 300.15 534.84 301.21Q532.48 302.73 531.13 304.12ZM528.66 320.25Q529.78 321.16 531.41 321.45Q533.15 321.76 534.57 321.22Q535.13 321.01 535.64 320.68Q536.56 320.06 537.11 319.21Q537.64 318.39 537.82 317.35Q538.04 316.1 537.71 315.01Q537.46 314.21 536.91 313.5Q536.61 313.11 536.26 312.8Q535.06 311.72 533.19 311.39Q531.3 311.06 529.8 311.68Q529.38 311.85 529 312.1Q528.26 312.57 527.77 313.21Q527.07 314.13 526.84 315.41Q526.65 316.45 526.87 317.4Q527.09 318.39 527.75 319.28Q528.15 319.83 528.66 320.25Z" fill="#FFFFFF" fill-opacity="1.000000" fill-rule="evenodd"/>
	<path id="?" d="M529.36 307.93Q529.79 305.51 531.13 304.12Q532.48 302.73 534.84 301.21Q536.47 300.15 537.3 299.38Q538.15 298.6 538.33 297.59Q538.57 296.18 537.53 295.12Q536.5 294.07 534.62 293.73Q532.69 293.39 530.95 294.04Q529.22 294.68 527.96 296.15L521.43 291.02Q524.01 287.98 527.97 286.73Q531.95 285.48 537.07 286.39Q542.82 287.4 545.9 290.41Q548.99 293.43 548.22 297.74Q547.87 299.71 546.92 301.11Q545.98 302.52 544.84 303.4Q543.73 304.28 542 305.31Q540.11 306.43 539.15 307.28Q538.2 308.14 537.97 309.45L529.36 307.93ZM531.41 321.45Q529.03 321.03 527.75 319.28Q526.46 317.54 526.84 315.41Q527.23 313.23 529 312.1Q530.77 310.97 533.19 311.39Q535.61 311.82 536.91 313.5Q538.21 315.16 537.82 317.35Q537.44 319.47 535.64 320.68Q533.83 321.88 531.41 321.45Z" stroke="#271A58" stroke-opacity="1.000000" stroke-width="0.511614"/>
	<rect id="Frame 2043683102" rx="18.775000" width="105.960831" height="141.447784" transform="translate(494.713867 224.394043) rotate(10.000000)" stroke="#271A58" stroke-opacity="1.000000" stroke-width="0.500000"/>
	<rect id="Frame 2043683109" rx="18.775000" width="105.960831" height="141.447784" transform="translate(25.007812 291.943848) rotate(10.000000)" fill="#009EE4" fill-opacity="1.000000"/>
	<path id="?" d="M61.42 371.67Q60.08 373.06 59.65 375.48L68.26 377Q68.4 376.22 68.78 375.61Q69.05 375.18 69.45 374.83Q70.4 373.98 72.29 372.86Q74.02 371.83 75.14 370.95Q76.27 370.07 77.21 368.66Q78.17 367.26 78.52 365.29Q78.91 363.06 78.28 361.18Q77.69 359.42 76.2 357.96Q73.11 354.95 67.36 353.93Q62.24 353.03 58.27 354.28Q55.77 355.07 53.82 356.57Q52.68 357.44 51.72 358.57L58.25 363.7Q59.11 362.7 60.19 362.08Q60.69 361.79 61.25 361.59Q61.73 361.41 62.23 361.3Q63.52 361.04 64.92 361.28Q66.8 361.61 67.83 362.67Q68.4 363.26 68.58 363.94Q68.73 364.51 68.62 365.14Q68.57 365.39 68.49 365.63Q68.23 366.35 67.59 366.93Q66.76 367.7 65.14 368.76Q62.78 370.28 61.42 371.67ZM58.96 387.8Q60.07 388.71 61.7 389Q63.44 389.31 64.86 388.77Q65.42 388.56 65.93 388.22Q66.85 387.61 67.4 386.76Q67.93 385.94 68.11 384.9Q68.34 383.65 68 382.57Q67.76 381.76 67.2 381.05Q66.91 380.66 66.55 380.35Q65.35 379.27 63.48 378.94Q61.59 378.61 60.1 379.23Q59.68 379.4 59.29 379.65Q58.56 380.12 58.06 380.76Q57.36 381.68 57.13 382.96Q56.95 384 57.16 384.95Q57.39 385.94 58.04 386.83Q58.45 387.38 58.96 387.8Z" fill="#FFFFFF" fill-opacity="1.000000" fill-rule="evenodd"/>
	<path id="?" d="M59.65 375.48Q60.08 373.06 61.42 371.67Q62.78 370.28 65.14 368.76Q66.76 367.7 67.59 366.93Q68.44 366.15 68.62 365.14Q68.87 363.73 67.83 362.67Q66.8 361.61 64.92 361.28Q62.98 360.94 61.25 361.59Q59.51 362.23 58.25 363.7L51.72 358.57Q54.31 355.53 58.27 354.28Q62.24 353.03 67.36 353.93Q73.11 354.95 76.2 357.96Q79.28 360.98 78.52 365.29Q78.17 367.26 77.21 368.66Q76.27 370.07 75.14 370.95Q74.02 371.83 72.29 372.86Q70.4 373.98 69.45 374.83Q68.49 375.69 68.26 377L59.65 375.48ZM61.7 389Q59.33 388.58 58.04 386.83Q56.76 385.09 57.13 382.96Q57.52 380.78 59.29 379.65Q61.06 378.51 63.48 378.94Q65.9 379.37 67.2 381.05Q68.5 382.71 68.11 384.9Q67.74 387.02 65.93 388.22Q64.12 389.43 61.7 389Z" stroke="#271A58" stroke-opacity="1.000000" stroke-width="0.511614"/>
	<rect id="Frame 2043683109" rx="18.775000" width="105.960831" height="141.447784" transform="translate(25.007812 291.943848) rotate(10.000000)" stroke="#271A58" stroke-opacity="1.000000" stroke-width="0.500000"/>
	<rect id="Frame 2043683105" rx="18.775000" width="105.960831" height="141.447784" transform="translate(136.004883 311.515625) rotate(10.000000)" fill="#99D100" fill-opacity="1.000000"/>
	<path id="?" d="M171.75 390.65Q170.09 392.37 169.56 395.37L180.23 397.25Q180.4 396.29 180.88 395.53Q181.22 395 181.7 394.56Q182.88 393.51 185.23 392.12Q187.37 390.84 188.76 389.76Q190.16 388.66 191.33 386.92Q192.51 385.18 192.94 382.74Q193.43 379.98 192.65 377.65Q191.92 375.46 190.07 373.66Q186.25 369.92 179.12 368.66Q172.77 367.54 167.84 369.09Q164.75 370.07 162.33 371.92Q160.92 373.01 159.73 374.41L167.83 380.77Q168.89 379.53 170.22 378.76Q170.85 378.4 171.54 378.15Q172.14 377.93 172.75 377.8Q174.35 377.47 176.09 377.77Q178.41 378.18 179.69 379.49Q180.4 380.22 180.63 381.07Q180.81 381.77 180.67 382.55Q180.62 382.86 180.51 383.16Q180.19 384.05 179.41 384.77Q178.38 385.72 176.36 387.04Q173.43 388.93 171.75 390.65ZM168.7 410.64Q170.08 411.77 172.1 412.13Q174.26 412.51 176.02 411.85Q176.71 411.59 177.34 411.17Q178.48 410.41 179.16 409.35Q179.82 408.33 180.05 407.04Q180.32 405.49 179.91 404.15Q179.61 403.15 178.92 402.27Q178.55 401.8 178.11 401.4Q176.63 400.07 174.31 399.66Q171.96 399.25 170.11 400.02Q169.59 400.23 169.11 400.54Q168.2 401.12 167.59 401.92Q166.72 403.05 166.44 404.64Q166.21 405.93 166.47 407.11Q166.75 408.34 167.56 409.44Q168.06 410.12 168.7 410.64Z" fill="#FFFFFF" fill-opacity="1.000000" fill-rule="evenodd"/>
	<path id="?" d="M169.56 395.37Q170.09 392.37 171.75 390.65Q173.43 388.93 176.36 387.04Q178.38 385.72 179.41 384.77Q180.45 383.81 180.67 382.55Q180.98 380.81 179.69 379.49Q178.41 378.18 176.09 377.77Q173.69 377.35 171.54 378.15Q169.39 378.95 167.83 380.77L159.73 374.41Q162.93 370.64 167.84 369.09Q172.77 367.54 179.12 368.66Q186.25 369.92 190.07 373.66Q193.89 377.39 192.94 382.74Q192.51 385.18 191.33 386.92Q190.16 388.66 188.76 389.76Q187.37 390.84 185.23 392.12Q182.88 393.51 181.7 394.56Q180.52 395.62 180.23 397.25L169.56 395.37ZM172.1 412.13Q169.16 411.61 167.56 409.44Q165.97 407.28 166.44 404.64Q166.92 401.93 169.11 400.54Q171.31 399.13 174.31 399.66Q177.31 400.19 178.92 402.27Q180.53 404.33 180.05 407.04Q179.58 409.68 177.34 411.17Q175.1 412.66 172.1 412.13Z" stroke="#271A58" stroke-opacity="1.000000" stroke-width="0.511614"/>
	<rect id="Frame 2043683105" rx="18.775000" width="105.960831" height="141.447784" transform="translate(136.004883 311.515625) rotate(10.000000)" stroke="#271A58" stroke-opacity="1.000000" stroke-width="0.500000"/>
	<rect id="Frame 2043683106" rx="18.775000" width="105.960831" height="141.447784" transform="translate(247.002930 331.087646) rotate(10.000000)" fill="#009EE4" fill-opacity="1.000000"/>
	<path id="?" d="M282.75 410.22Q281.09 411.94 280.56 414.94L291.23 416.82Q291.4 415.86 291.88 415.1Q292.21 414.57 292.7 414.14Q293.88 413.08 296.23 411.69Q298.37 410.41 299.75 409.33Q301.16 408.23 302.32 406.49Q303.51 404.75 303.94 402.31Q304.43 399.55 303.65 397.22Q302.91 395.04 301.07 393.23Q297.25 389.49 290.12 388.23Q283.76 387.11 278.84 388.66Q275.75 389.64 273.33 391.5Q271.91 392.59 270.73 393.98L278.82 400.34Q279.89 399.1 281.22 398.34Q281.85 397.98 282.54 397.72Q283.13 397.5 283.75 397.37Q285.35 397.04 287.08 397.34Q289.41 397.75 290.69 399.07Q291.4 399.79 291.63 400.64Q291.81 401.34 291.67 402.12Q291.62 402.44 291.51 402.73Q291.19 403.62 290.4 404.34Q289.37 405.29 287.36 406.61Q284.43 408.5 282.75 410.22ZM279.7 430.22Q281.08 431.35 283.1 431.7Q285.25 432.08 287.02 431.42Q287.71 431.16 288.34 430.74Q289.48 429.98 290.16 428.92Q290.82 427.91 291.05 426.61Q291.32 425.06 290.91 423.72Q290.6 422.72 289.92 421.84Q289.55 421.37 289.11 420.97Q287.62 419.64 285.31 419.23Q282.96 418.82 281.11 419.59Q280.59 419.8 280.11 420.11Q279.2 420.69 278.59 421.49Q277.72 422.62 277.43 424.21Q277.21 425.51 277.47 426.68Q277.75 427.91 278.56 429.01Q279.06 429.7 279.7 430.22Z" fill="#FFFFFF" fill-opacity="1.000000" fill-rule="evenodd"/>
	<path id="?" d="M280.56 414.94Q281.09 411.94 282.75 410.22Q284.43 408.5 287.36 406.61Q289.37 405.29 290.4 404.34Q291.45 403.38 291.67 402.12Q291.98 400.38 290.69 399.07Q289.41 397.75 287.08 397.34Q284.68 396.92 282.54 397.72Q280.39 398.52 278.82 400.34L270.73 393.98Q273.93 390.21 278.84 388.66Q283.76 387.11 290.12 388.23Q297.25 389.49 301.07 393.23Q304.89 396.97 303.94 402.31Q303.51 404.75 302.32 406.49Q301.16 408.23 299.75 409.33Q298.37 410.41 296.23 411.69Q293.88 413.08 292.7 414.14Q291.51 415.2 291.23 416.82L280.56 414.94ZM283.1 431.7Q280.16 431.18 278.56 429.01Q276.97 426.85 277.43 424.21Q277.91 421.51 280.11 420.11Q282.31 418.7 285.31 419.23Q288.31 419.76 289.92 421.84Q291.53 423.91 291.05 426.61Q290.58 429.25 288.34 430.74Q286.1 432.23 283.1 431.7Z" stroke="#271A58" stroke-opacity="1.000000" stroke-width="0.511614"/>
	<rect id="Frame 2043683106" rx="18.775000" width="105.960831" height="141.447784" transform="translate(247.002930 331.087646) rotate(10.000000)" stroke="#271A58" stroke-opacity="1.000000" stroke-width="0.500000"/>
	<rect id="Frame 2043683107" rx="18.775000" width="105.960831" height="141.447784" transform="translate(358.000977 350.659424) rotate(10.000000)" fill="#AD61FF" fill-opacity="1.000000"/>
	<path id="?" d="M394.41 430.39Q393.07 431.77 392.64 434.19L401.25 435.71Q401.39 434.94 401.78 434.32Q402.05 433.9 402.44 433.55Q403.4 432.69 405.29 431.58Q407.02 430.54 408.13 429.67Q409.26 428.78 410.21 427.38Q411.16 425.98 411.51 424Q411.9 421.78 411.27 419.9Q410.68 418.14 409.19 416.68Q406.11 413.66 400.36 412.65Q395.23 411.75 391.26 412.99Q388.76 413.78 386.81 415.28Q385.67 416.16 384.72 417.28L391.25 422.42Q392.1 421.42 393.18 420.8Q393.69 420.51 394.24 420.3Q394.72 420.12 395.22 420.02Q396.51 419.75 397.91 420Q399.79 420.33 400.82 421.39Q401.39 421.97 401.57 422.66Q401.72 423.22 401.61 423.85Q401.57 424.11 401.48 424.34Q401.22 425.06 400.59 425.65Q399.76 426.41 398.13 427.48Q395.77 429 394.41 430.39ZM391.95 446.52Q393.07 447.43 394.69 447.72Q396.43 448.02 397.86 447.49Q398.42 447.28 398.92 446.94Q399.85 446.33 400.39 445.48Q400.92 444.65 401.11 443.61Q401.33 442.36 401 441.28Q400.75 440.47 400.2 439.76Q399.9 439.38 399.55 439.06Q398.35 437.99 396.48 437.66Q394.58 437.32 393.09 437.94Q392.67 438.12 392.28 438.37Q391.55 438.83 391.06 439.48Q390.35 440.39 390.13 441.68Q389.94 442.72 390.16 443.67Q390.38 444.66 391.04 445.55Q391.44 446.1 391.95 446.52Z" fill="#FFFFFF" fill-opacity="1.000000" fill-rule="evenodd"/>
	<path id="?" d="M392.64 434.19Q393.07 431.77 394.41 430.39Q395.77 429 398.13 427.48Q399.76 426.41 400.59 425.65Q401.43 424.87 401.61 423.85Q401.86 422.45 400.82 421.39Q399.79 420.33 397.91 420Q395.97 419.66 394.24 420.3Q392.51 420.95 391.25 422.42L384.72 417.28Q387.3 414.24 391.26 412.99Q395.23 411.75 400.36 412.65Q406.11 413.66 409.19 416.68Q412.27 419.69 411.51 424Q411.16 425.98 410.21 427.38Q409.26 428.78 408.13 429.67Q407.02 430.54 405.29 431.58Q403.4 432.69 402.44 433.55Q401.49 434.4 401.25 435.71L392.64 434.19ZM394.69 447.72Q392.32 447.3 391.04 445.55Q389.75 443.8 390.13 441.68Q390.51 439.49 392.28 438.37Q394.06 437.23 396.48 437.66Q398.9 438.08 400.2 439.76Q401.5 441.43 401.11 443.61Q400.73 445.74 398.92 446.94Q397.12 448.14 394.69 447.72Z" stroke="#271A58" stroke-opacity="1.000000" stroke-width="0.511614"/>
	<rect id="Frame 2043683107" rx="18.775000" width="105.960831" height="141.447784" transform="translate(358.000977 350.659424) rotate(10.000000)" stroke="#271A58" stroke-opacity="1.000000" stroke-width="0.500000"/>
	<rect id="Frame 2043683108" rx="18.775000" width="105.960831" height="141.447784" transform="translate(468.998047 370.231445) rotate(10.000000)" fill="#565EEF" fill-opacity="1.000000"/>
	<path id="?" d="M505.41 449.96Q504.07 451.34 503.64 453.77L512.25 455.28Q512.39 454.51 512.78 453.9Q513.05 453.47 513.44 453.12Q514.39 452.26 516.28 451.15Q518.01 450.11 519.13 449.24Q520.26 448.36 521.2 446.95Q522.16 445.55 522.51 443.58Q522.9 441.35 522.27 439.47Q521.68 437.71 520.19 436.25Q517.11 433.24 511.36 432.22Q506.23 431.32 502.26 432.57Q499.76 433.35 497.81 434.85Q496.67 435.73 495.71 436.86L502.25 441.99Q503.1 440.99 504.18 440.37Q504.68 440.08 505.24 439.87Q505.72 439.69 506.22 439.59Q507.51 439.32 508.91 439.57Q510.79 439.9 511.82 440.96Q512.39 441.54 512.57 442.23Q512.72 442.79 512.61 443.43Q512.57 443.68 512.48 443.92Q512.22 444.63 511.59 445.22Q510.76 445.99 509.13 447.05Q506.77 448.57 505.41 449.96ZM502.95 466.09Q504.07 467 505.69 467.29Q507.43 467.6 508.86 467.06Q509.41 466.85 509.92 466.51Q510.84 465.9 511.39 465.05Q511.92 464.23 512.11 463.18Q512.33 461.93 512 460.85Q511.75 460.05 511.19 459.33Q510.9 458.95 510.54 458.64Q509.34 457.56 507.47 457.23Q505.58 456.9 504.09 457.52Q503.67 457.69 503.28 457.94Q502.55 458.4 502.05 459.05Q501.35 459.97 501.12 461.25Q500.94 462.29 501.15 463.24Q501.38 464.23 502.03 465.12Q502.44 465.67 502.95 466.09Z" fill="#FFFFFF" fill-opacity="1.000000" fill-rule="evenodd"/>
	<path id="?" d="M503.64 453.77Q504.07 451.34 505.41 449.96Q506.77 448.57 509.13 447.05Q510.76 445.99 511.59 445.22Q512.43 444.44 512.61 443.43Q512.86 442.02 511.82 440.96Q510.79 439.9 508.91 439.57Q506.97 439.23 505.24 439.87Q503.51 440.52 502.25 441.99L495.71 436.86Q498.3 433.82 502.26 432.57Q506.23 431.32 511.36 432.22Q517.11 433.24 520.19 436.25Q523.27 439.27 522.51 443.58Q522.16 445.55 521.2 446.95Q520.26 448.36 519.13 449.24Q518.01 450.11 516.28 451.15Q514.39 452.26 513.44 453.12Q512.48 453.97 512.25 455.28L503.64 453.77ZM505.69 467.29Q503.32 466.87 502.03 465.12Q500.75 463.37 501.12 461.25Q501.51 459.06 503.28 457.94Q505.05 456.8 507.47 457.23Q509.9 457.66 511.19 459.33Q512.49 461 512.11 463.18Q511.73 465.31 509.92 466.51Q508.11 467.72 505.69 467.29Z" stroke="#271A58" stroke-opacity="1.000000" stroke-width="0.511614"/>
	<rect id="Frame 2043683108" rx="18.775000" width="105.960831" height="141.447784" transform="translate(468.998047 370.231445) rotate(10.000000)" stroke="#271A58" stroke-opacity="1.000000" stroke-width="0.500000"/>
</svg>
