<svg width="582.983398" height="513.643982" viewBox="0 0 582.983 513.644" fill="none" xmlns="http://www.w3.org/2000/svg" xmlns:xlink="http://www.w3.org/1999/xlink">
	<desc>
			Created with Pixso.
	</desc>
	<defs/>
	<rect id="Frame 2043683076" rx="18.775000" width="244.160004" height="80.013336" transform="translate(75.080078 0.260864) rotate(10.000001)" fill="#FFC700" fill-opacity="1.000000"/>
	<path id="36 − 6 = ?" d="M135.49 46.11Q133.76 45.04 131.59 44.66Q128.06 44.04 125.47 45.31Q125.18 45.46 124.9 45.62Q125.65 42.85 127.46 41.48Q127.68 41.32 127.91 41.17Q128.25 40.96 128.62 40.8Q130.57 39.91 133.13 40.36Q136.25 40.91 138.04 42.71L141.92 37.53Q140.58 36.27 138.51 35.37Q136.45 34.47 134.05 34.04Q129.61 33.26 125.93 34.47Q124.45 34.96 123.17 35.75Q121.26 36.94 119.78 38.81Q117.31 41.94 116.46 46.73Q115.33 53.1 117.88 57.2Q118 57.39 118.12 57.58Q118.71 58.43 119.43 59.16Q122.21 61.96 126.97 62.8Q130.05 63.34 132.76 62.61Q134.62 62.1 136.08 61.03Q136.73 60.55 137.31 59.95Q137.82 59.42 138.23 58.81Q139.3 57.24 139.66 55.19Q140 53.26 139.57 51.53Q139.42 50.92 139.18 50.34Q138.79 49.41 138.22 48.62Q137.41 47.48 136.23 46.61Q135.87 46.35 135.49 46.11ZM209.04 59.08Q207.3 58.01 205.14 57.63Q201.61 57 199.01 58.28Q198.72 58.42 198.45 58.59Q199.2 55.82 201.01 54.45Q201.22 54.29 201.46 54.14Q201.8 53.93 202.16 53.77Q204.11 52.88 206.67 53.33Q209.8 53.88 211.58 55.67L215.47 50.5Q214.12 49.24 212.06 48.34Q209.99 47.43 207.59 47.01Q203.15 46.23 199.48 47.44Q198 47.93 196.71 48.72Q194.8 49.91 193.32 51.78Q190.86 54.91 190.01 59.7Q188.88 66.07 191.42 70.16Q191.54 70.36 191.67 70.55Q192.26 71.4 192.97 72.12Q195.75 74.93 200.52 75.77Q203.6 76.31 206.31 75.58Q208.17 75.07 209.62 74Q210.28 73.52 210.85 72.92Q211.37 72.39 211.78 71.78Q212.84 70.21 213.21 68.15Q213.55 66.23 213.12 64.5Q212.97 63.89 212.73 63.31Q212.34 62.38 211.77 61.59Q210.95 60.45 209.77 59.58Q209.42 59.31 209.04 59.08ZM271.59 73.82Q270.48 74.96 270.13 76.96L277.24 78.22Q277.35 77.58 277.68 77.07Q277.9 76.72 278.22 76.43Q279.01 75.72 280.57 74.8Q282 73.95 282.93 73.22Q283.86 72.49 284.64 71.33Q285.43 70.17 285.72 68.54Q286.04 66.7 285.52 65.15Q285.03 63.7 283.8 62.49Q281.25 60 276.5 59.16Q272.27 58.42 268.98 59.45Q266.92 60.1 265.31 61.34Q264.37 62.06 263.58 62.99L268.97 67.23Q269.68 66.41 270.57 65.9Q270.99 65.66 271.45 65.49Q271.85 65.34 272.26 65.25Q273.32 65.03 274.48 65.24Q276.03 65.51 276.88 66.38Q277.35 66.86 277.51 67.43Q277.63 67.9 277.54 68.42Q277.5 68.63 277.43 68.83Q277.22 69.42 276.69 69.9Q276.01 70.54 274.66 71.42Q272.71 72.67 271.59 73.82ZM112.12 45.18Q110.64 42.76 107.35 41.46L114.25 36.25L115.12 31.29L94.89 27.72L93.81 33.83L104.85 35.78L98.9 40.29L98.01 45.29L101.33 45.87Q104.37 46.41 105 47.94Q105.26 48.56 105.12 49.35Q105 50.02 104.63 50.49Q104.23 51.01 103.54 51.29Q102.21 51.84 100.17 51.48Q98.17 51.13 96.21 50.17Q94.26 49.2 92.83 47.79L88.89 53.25Q90.78 54.94 93.55 56.17Q95.38 56.98 97.29 57.48Q98.28 57.74 99.28 57.92Q103.31 58.63 106.28 57.81Q109.25 57 110.96 55.12Q111.88 54.11 112.43 52.94Q112.91 51.91 113.11 50.76Q113.46 48.83 112.98 47.12Q112.71 46.15 112.17 45.26Q112.14 45.22 112.12 45.18ZM249.79 61.25L230.09 57.78L229.06 63.58L248.77 67.05L249.79 61.25ZM175.36 53.32L155.65 49.85L154.62 55.68L174.32 59.16L175.36 53.32ZM129.89 56.87Q128.84 57.32 127.49 57.09Q125.9 56.81 125.02 55.87Q124.91 55.74 124.8 55.61Q124.47 55.16 124.31 54.67Q124.03 53.85 124.2 52.87Q124.38 51.86 124.95 51.17Q125.28 50.78 125.73 50.5Q125.99 50.33 126.27 50.21Q127.34 49.76 128.7 50.01Q130.15 50.26 131 51.11Q131.17 51.27 131.31 51.45Q131.6 51.83 131.77 52.26Q132.11 53.13 131.92 54.19Q131.71 55.34 131.05 56.06Q130.77 56.38 130.39 56.61Q130.15 56.76 129.89 56.87ZM203.44 69.84Q202.38 70.29 201.03 70.05Q199.45 69.77 198.57 68.83Q198.45 68.71 198.35 68.57Q198.02 68.13 197.85 67.64Q197.57 66.81 197.75 65.84Q197.93 64.83 198.5 64.14Q198.82 63.75 199.27 63.46Q199.53 63.3 199.81 63.18Q200.89 62.73 202.25 62.97Q203.69 63.23 204.55 64.08Q204.71 64.24 204.85 64.42Q205.15 64.8 205.32 65.23Q205.65 66.09 205.46 67.16Q205.26 68.3 204.6 69.03Q204.31 69.34 203.94 69.58Q203.7 69.73 203.44 69.84ZM248 71.37L228.3 67.9L227.27 73.69L246.97 77.17L248 71.37ZM269.56 87.15Q270.48 87.9 271.82 88.14Q273.26 88.39 274.44 87.95Q274.9 87.78 275.32 87.5Q276.08 86.99 276.53 86.29Q276.97 85.61 277.12 84.75Q277.31 83.71 277.03 82.82Q276.83 82.15 276.37 81.57Q276.12 81.25 275.83 80.99Q274.84 80.1 273.29 79.83Q271.73 79.55 270.49 80.06Q270.15 80.21 269.83 80.41Q269.22 80.8 268.82 81.33Q268.23 82.09 268.05 83.15Q267.89 84.01 268.07 84.8Q268.26 85.61 268.8 86.35Q269.13 86.8 269.56 87.15Z" fill="#FFFFFF" fill-opacity="1.000000" fill-rule="evenodd"/>
	<path id="36 − 6 = ?" d="M107.35 41.46Q110.69 42.78 112.17 45.26Q113.65 47.72 113.11 50.76Q112.68 53.24 110.96 55.12Q109.25 57 106.28 57.81Q103.31 58.63 99.28 57.92Q96.32 57.4 93.55 56.17Q90.78 54.94 88.89 53.25L92.83 47.79Q94.26 49.2 96.21 50.17Q98.17 51.13 100.17 51.48Q102.21 51.84 103.54 51.29Q104.88 50.74 105.12 49.35Q105.61 46.63 101.33 45.87L98.01 45.29L98.9 40.29L104.85 35.78L93.81 33.83L94.89 27.72L115.12 31.29L114.25 36.25L107.35 41.46ZM131.59 44.66Q134.23 45.12 136.23 46.61Q138.24 48.09 139.18 50.34Q140.12 52.59 139.66 55.19Q139.16 58.03 137.31 59.95Q135.47 61.87 132.76 62.61Q130.05 63.34 126.97 62.8Q120.98 61.74 118.12 57.58Q115.28 53.4 116.46 46.73Q117.31 41.94 119.78 38.81Q122.26 35.68 125.93 34.47Q129.61 33.26 134.05 34.04Q136.45 34.47 138.51 35.37Q140.58 36.27 141.92 37.53L138.04 42.71Q136.25 40.91 133.13 40.36Q130.09 39.83 127.91 41.17Q125.74 42.52 124.9 45.62Q127.67 43.97 131.59 44.66ZM127.49 57.09Q129.17 57.38 130.39 56.61Q131.63 55.83 131.92 54.19Q132.2 52.59 131.31 51.45Q130.42 50.31 128.7 50.01Q126.99 49.7 125.73 50.5Q124.48 51.28 124.2 52.87Q123.92 54.43 124.8 55.61Q125.69 56.77 127.49 57.09ZM155.65 49.85L175.36 53.32L174.32 59.16L154.62 55.68L155.65 49.85ZM205.14 57.63Q207.77 58.09 209.77 59.58Q211.78 61.06 212.73 63.31Q213.67 65.56 213.21 68.15Q212.7 70.99 210.85 72.92Q209.01 74.84 206.31 75.58Q203.6 76.31 200.52 75.77Q194.52 74.71 191.67 70.55Q188.83 66.37 190.01 59.7Q190.86 54.91 193.32 51.78Q195.8 48.65 199.48 47.44Q203.15 46.23 207.59 47.01Q209.99 47.43 212.06 48.34Q214.12 49.24 215.47 50.5L211.58 55.67Q209.8 53.88 206.67 53.33Q203.64 52.79 201.46 54.14Q199.29 55.49 198.45 58.59Q201.22 56.93 205.14 57.63ZM201.03 70.05Q202.71 70.35 203.94 69.58Q205.17 68.8 205.46 67.16Q205.75 65.56 204.85 64.42Q203.97 63.28 202.25 62.97Q200.53 62.67 199.27 63.46Q198.03 64.25 197.75 65.84Q197.47 67.4 198.35 68.57Q199.24 69.74 201.03 70.05ZM230.09 57.78L249.79 61.25L248.77 67.05L229.06 63.58L230.09 57.78ZM228.3 67.9L248 71.37L246.97 77.17L227.27 73.69L228.3 67.9ZM270.13 76.96Q270.48 74.96 271.59 73.82Q272.71 72.67 274.66 71.42Q276.01 70.54 276.69 69.9Q277.39 69.26 277.54 68.42Q277.74 67.26 276.88 66.38Q276.03 65.51 274.48 65.24Q272.88 64.95 271.45 65.49Q270.01 66.02 268.97 67.23L263.58 62.99Q265.71 60.48 268.98 59.45Q272.27 58.42 276.5 59.16Q281.25 60 283.8 62.49Q286.35 64.98 285.72 68.54Q285.43 70.17 284.64 71.33Q283.86 72.49 282.93 73.22Q282 73.95 280.57 74.8Q279.01 75.72 278.22 76.43Q277.43 77.14 277.24 78.22L270.13 76.96ZM271.82 88.14Q269.86 87.79 268.8 86.35Q267.74 84.9 268.05 83.15Q268.37 81.34 269.83 80.41Q271.29 79.47 273.29 79.83Q275.29 80.18 276.37 81.57Q277.44 82.94 277.12 84.75Q276.81 86.5 275.32 87.5Q273.82 88.49 271.82 88.14Z" stroke="#202027" stroke-opacity="1.000000" stroke-width="0.634167"/>
	<rect id="Frame 2043683076" rx="18.775000" width="244.160004" height="80.013336" transform="translate(75.080078 0.260864) rotate(10.000001)" stroke="#202027" stroke-opacity="1.000000" stroke-width="0.500000"/>
	<rect id="Frame 2043683094" rx="18.775000" width="219.160004" height="80.013336" transform="translate(323.579102 44.077881) rotate(10.000001)" fill="#FFC700" fill-opacity="1.000000"/>
	<path id="4 ÷ 2 = ?" d="M435.45 116.62L436.56 110.35L425.76 108.44L431.91 104.49Q435.16 102.43 436.49 100.58Q437.07 99.78 437.47 98.91Q438 97.75 438.23 96.46Q438.54 94.69 438.15 93.1Q437.97 92.4 437.65 91.72Q437.51 91.43 437.35 91.14Q436.31 89.34 434.34 88.07Q432.07 86.59 428.87 86.03Q424.84 85.32 421.6 86.36Q419.38 87.07 417.69 88.43Q416.91 89.06 416.24 89.82L421.55 94.13Q422.33 93.28 423.3 92.8Q423.65 92.63 424.04 92.5Q424.42 92.37 424.82 92.3Q425.88 92.1 427.02 92.3Q428.78 92.61 429.56 93.54Q429.81 93.82 429.95 94.15Q430.27 94.87 430.1 95.81Q430.1 95.85 430.09 95.89Q429.89 96.88 429.22 97.78Q428.53 98.71 426.75 99.88L414.54 107.82L413.67 112.78L435.45 116.62ZM495.75 113.35Q494.64 114.49 494.29 116.49L501.4 117.74Q501.51 117.11 501.83 116.6Q502.06 116.25 502.38 115.96Q503.17 115.25 504.73 114.33Q506.16 113.47 507.08 112.75Q508.02 112.02 508.8 110.86Q509.59 109.7 509.88 108.07Q510.2 106.23 509.68 104.68Q509.19 103.22 507.96 102.02Q505.41 99.53 500.66 98.69Q496.42 97.94 493.14 98.97Q491.08 99.62 489.47 100.86Q488.52 101.59 487.73 102.52L493.13 106.76Q493.84 105.93 494.73 105.42Q495.15 105.18 495.6 105.01Q496 104.86 496.42 104.78Q497.48 104.56 498.64 104.76Q500.19 105.03 501.04 105.91Q501.51 106.39 501.67 106.96Q501.79 107.42 501.7 107.95Q501.66 108.15 501.59 108.35Q501.37 108.94 500.85 109.43Q500.16 110.06 498.82 110.94Q496.87 112.2 495.75 113.35ZM361.42 98.04L365.57 98.77L366.68 92.5L362.53 91.77L363.37 87.02L355.89 85.7L355.05 90.45L349.37 89.45L363.66 75.11L355.47 73.67L339.83 88.92L338.91 94.07L353.7 96.68L352.75 102.04L360.47 103.4L361.42 98.04ZM390.14 88.83Q390.91 89.44 392 89.63Q392.98 89.8 393.84 89.56Q394.42 89.4 394.95 89.04Q395.45 88.71 395.81 88.25Q396.38 87.52 396.56 86.48Q396.75 85.41 396.44 84.52Q396.27 84.01 395.92 83.55Q395.56 83.05 395.08 82.71Q394.35 82.17 393.35 82Q392.24 81.8 391.3 82.12Q390.82 82.28 390.38 82.57Q389.95 82.86 389.63 83.25Q389 84 388.81 85.11Q388.61 86.19 388.92 87.11Q389.09 87.61 389.41 88.07Q389.73 88.51 390.14 88.83ZM473.95 100.78L454.25 97.31L453.22 103.1L472.92 106.58L473.95 100.78ZM401.51 93.2L381.81 89.72L380.78 95.56L400.48 99.03L401.51 93.2ZM472.16 110.9L452.46 107.42L451.43 113.22L471.13 116.69L472.16 110.9ZM387.15 106Q387.9 106.59 388.96 106.77Q389.91 106.94 390.76 106.71Q391.37 106.54 391.92 106.17Q392.44 105.81 392.8 105.34Q393.35 104.6 393.53 103.58Q393.71 102.6 393.44 101.76Q393.26 101.2 392.89 100.69Q392.52 100.2 392.04 99.85Q391.31 99.32 390.32 99.14Q389.17 98.94 388.21 99.27Q387.76 99.42 387.35 99.7Q386.93 99.97 386.62 100.34Q385.98 101.09 385.78 102.22Q385.59 103.28 385.88 104.19Q386.05 104.71 386.38 105.19Q386.71 105.66 387.15 106ZM493.71 126.67Q494.64 127.43 495.98 127.67Q497.42 127.92 498.59 127.48Q499.05 127.3 499.47 127.02Q500.24 126.52 500.69 125.81Q501.13 125.13 501.28 124.27Q501.46 123.24 501.19 122.35Q500.98 121.68 500.53 121.09Q500.28 120.78 499.99 120.51Q499 119.62 497.45 119.35Q495.89 119.08 494.65 119.59Q494.31 119.73 493.99 119.94Q493.38 120.32 492.97 120.86Q492.39 121.61 492.2 122.67Q492.05 123.53 492.23 124.32Q492.41 125.14 492.96 125.87Q493.29 126.33 493.71 126.67Z" fill="#FFFFFF" fill-opacity="1.000000" fill-rule="evenodd"/>
	<path id="4 ÷ 2 = ?" d="M365.57 98.77L361.42 98.04L360.47 103.4L352.75 102.04L353.7 96.68L338.91 94.07L339.83 88.92L355.47 73.67L363.66 75.11L349.37 89.45L355.05 90.45L355.89 85.7L363.37 87.02L362.53 91.77L366.68 92.5L365.57 98.77ZM392 89.63Q390.32 89.33 389.41 88.07Q388.51 86.79 388.81 85.11Q389.1 83.43 390.38 82.57Q391.67 81.7 393.35 82Q394.99 82.29 395.92 83.55Q396.86 84.8 396.56 86.48Q396.27 88.16 394.95 89.04Q393.64 89.92 392 89.63ZM381.81 89.72L401.51 93.2L400.48 99.03L380.78 95.56L381.81 89.72ZM388.96 106.77Q387.29 106.48 386.38 105.19Q385.48 103.89 385.78 102.22Q386.07 100.54 387.35 99.7Q388.64 98.85 390.32 99.14Q391.95 99.43 392.89 100.69Q393.82 101.95 393.53 103.58Q393.24 105.26 391.92 106.17Q390.6 107.06 388.96 106.77ZM436.56 110.35L435.45 116.62L413.67 112.78L414.54 107.82L426.75 99.88Q428.53 98.71 429.22 97.78Q429.92 96.85 430.1 95.81Q430.35 94.45 429.56 93.54Q428.78 92.61 427.02 92.3Q425.46 92.03 424.04 92.5Q422.62 92.97 421.55 94.13L416.24 89.82Q418.36 87.4 421.6 86.36Q424.84 85.32 428.87 86.03Q432.07 86.59 434.34 88.07Q436.62 89.54 437.65 91.72Q438.68 93.91 438.23 96.46Q437.83 98.74 436.49 100.58Q435.16 102.43 431.91 104.49L425.76 108.44L436.56 110.35ZM454.25 97.31L473.95 100.78L472.92 106.58L453.22 103.1L454.25 97.31ZM452.46 107.42L472.16 110.9L471.13 116.69L451.43 113.22L452.46 107.42ZM494.29 116.49Q494.64 114.49 495.75 113.35Q496.87 112.2 498.82 110.94Q500.16 110.06 500.85 109.43Q501.55 108.79 501.7 107.95Q501.9 106.78 501.04 105.91Q500.19 105.03 498.64 104.76Q497.04 104.48 495.6 105.01Q494.17 105.54 493.13 106.76L487.73 102.52Q489.87 100 493.14 98.97Q496.42 97.94 500.66 98.69Q505.41 99.53 507.96 102.02Q510.51 104.51 509.88 108.07Q509.59 109.7 508.8 110.86Q508.02 112.02 507.08 112.75Q506.16 113.47 504.73 114.33Q503.17 115.25 502.38 115.96Q501.59 116.66 501.4 117.74L494.29 116.49ZM495.98 127.67Q494.02 127.32 492.96 125.87Q491.89 124.43 492.2 122.67Q492.52 120.87 493.99 119.94Q495.45 119 497.45 119.35Q499.45 119.7 500.53 121.09Q501.6 122.47 501.28 124.27Q500.97 126.03 499.47 127.02Q497.98 128.02 495.98 127.67Z" stroke="#202027" stroke-opacity="1.000000" stroke-width="0.634167"/>
	<rect id="Frame 2043683094" rx="18.775000" width="219.160004" height="80.013336" transform="translate(323.579102 44.077881) rotate(10.000001)" stroke="#202027" stroke-opacity="1.000000" stroke-width="0.500000"/>
	<rect id="Frame 2043683071" rx="18.775000" width="267.160004" height="80.013336" transform="translate(59.884766 86.446289) rotate(10.000001)" fill="#FFC700" fill-opacity="1.000000"/>
	<path id="100 ÷ 4 = ?" d="M98.14 145.44Q100.32 146.97 103.21 147.48Q105.91 147.95 108.35 147.36Q109.12 147.17 109.87 146.88Q110.43 146.66 110.97 146.38Q113.37 145.11 115.13 142.63Q117.3 139.62 118.1 135.1Q118.89 130.59 117.9 127.01Q117.09 124.09 115.27 122.08Q114.87 121.63 114.41 121.23Q113.8 120.68 113.11 120.23Q111.04 118.85 108.37 118.38Q105.5 117.88 102.95 118.55Q102.3 118.73 101.66 118.98Q101.14 119.18 100.65 119.44Q98.2 120.71 96.4 123.22Q94.23 126.24 93.44 130.75Q92.64 135.27 93.63 138.84Q94.46 141.82 96.33 143.85Q96.7 144.26 97.12 144.63Q97.61 145.07 98.14 145.44ZM125.52 150.27Q127.7 151.79 130.59 152.3Q133.29 152.78 135.73 152.19Q136.5 152 137.25 151.71Q137.81 151.48 138.35 151.2Q140.75 149.93 142.51 147.46Q144.67 144.44 145.47 139.92Q146.27 135.42 145.28 131.84Q144.47 128.92 142.65 126.9Q142.25 126.46 141.79 126.06Q141.17 125.51 140.49 125.05Q138.42 123.68 135.75 123.21Q132.88 122.7 130.33 123.38Q129.67 123.55 129.04 123.81Q128.52 124.01 128.03 124.27Q125.58 125.54 123.78 128.05Q121.61 131.07 120.82 135.58Q120.02 140.1 121.01 143.67Q121.84 146.65 123.71 148.68Q124.08 149.09 124.5 149.46Q124.99 149.89 125.52 150.27ZM279.29 164.04Q278.18 165.19 277.82 167.19L284.94 168.44Q285.05 167.8 285.37 167.29Q285.59 166.94 285.92 166.65Q286.71 165.95 288.27 165.02Q289.7 164.17 290.62 163.45Q291.56 162.72 292.33 161.55Q293.12 160.4 293.41 158.77Q293.74 156.93 293.22 155.37Q292.73 153.92 291.5 152.71Q288.95 150.22 284.2 149.38Q279.96 148.64 276.68 149.67Q274.62 150.32 273 151.56Q272.06 152.28 271.27 153.21L276.67 157.45Q277.38 156.63 278.26 156.12Q278.68 155.88 279.14 155.71Q279.54 155.56 279.95 155.47Q281.02 155.25 282.17 155.46Q283.73 155.73 284.58 156.61Q285.05 157.09 285.2 157.65Q285.32 158.12 285.23 158.64Q285.2 158.85 285.13 159.05Q284.91 159.64 284.39 160.12Q283.7 160.76 282.36 161.64Q280.4 162.89 279.29 164.04ZM86.76 144L91.72 116.03L78.61 113.72L77.53 119.83L82.72 120.74L78.85 142.61L86.76 144ZM216.5 161.35L220.66 162.09L221.77 155.81L217.61 155.08L218.45 150.33L210.98 149.01L210.14 153.76L204.46 152.76L218.74 138.42L210.55 136.98L194.91 152.23L194 157.39L208.78 159.99L207.83 165.35L215.55 166.71L216.5 161.35ZM169.64 138.82Q170.41 139.42 171.5 139.61Q172.48 139.79 173.34 139.54Q173.92 139.38 174.45 139.03Q174.95 138.69 175.31 138.24Q175.88 137.5 176.06 136.46Q176.25 135.4 175.94 134.5Q175.77 133.99 175.42 133.53Q175.06 133.04 174.58 132.69Q173.85 132.16 172.85 131.98Q171.74 131.79 170.8 132.1Q170.32 132.26 169.88 132.56Q169.45 132.85 169.13 133.23Q168.5 133.99 168.31 135.1Q168.11 136.18 168.42 137.09Q168.59 137.6 168.91 138.05Q169.23 138.49 169.64 138.82ZM105.78 140.98Q105.1 141.14 104.36 141.01Q103.57 140.87 102.96 140.46Q101.99 139.81 101.48 138.5Q100.65 136.35 101.39 132.15Q102.13 127.96 103.66 126.23Q104.59 125.17 105.71 124.9Q106.43 124.72 107.22 124.86Q107.96 124.99 108.55 125.37Q109.53 126.01 110.05 127.36Q110.89 129.5 110.14 133.7Q109.4 137.89 107.87 139.62Q106.92 140.71 105.78 140.98ZM133.16 145.81Q132.48 145.97 131.74 145.83Q130.95 145.7 130.34 145.28Q129.37 144.64 128.86 143.33Q128.03 141.17 128.77 136.98Q129.51 132.78 131.03 131.06Q131.97 130 133.09 129.72Q133.81 129.55 134.6 129.69Q135.34 129.82 135.92 130.2Q136.91 130.84 137.43 132.19Q138.27 134.33 137.52 138.52Q136.78 142.72 135.25 144.45Q134.3 145.54 133.16 145.81ZM257.49 151.48L237.78 148L236.76 153.8L256.46 157.27L257.49 151.48ZM181.01 143.18L161.31 139.71L160.28 145.54L179.98 149.02L181.01 143.18ZM255.69 161.59L235.99 158.12L234.97 163.92L254.67 167.39L255.69 161.59ZM166.65 155.99Q167.4 156.57 168.46 156.76Q169.41 156.92 170.26 156.69Q170.87 156.53 171.42 156.15Q171.94 155.8 172.3 155.32Q172.85 154.59 173.03 153.57Q173.21 152.59 172.94 151.74Q172.76 151.18 172.39 150.68Q172.02 150.18 171.54 149.84Q170.81 149.3 169.81 149.13Q168.67 148.93 167.71 149.25Q167.26 149.41 166.85 149.68Q166.43 149.96 166.12 150.32Q165.48 151.07 165.28 152.2Q165.09 153.26 165.38 154.17Q165.55 154.7 165.88 155.17Q166.21 155.65 166.65 155.99ZM277.25 177.37Q278.17 178.12 279.52 178.36Q280.95 178.62 282.13 178.17Q282.59 178 283.01 177.72Q283.77 177.21 284.23 176.51Q284.66 175.83 284.82 174.97Q285 173.94 284.73 173.04Q284.52 172.38 284.06 171.79Q283.82 171.47 283.53 171.21Q282.53 170.32 280.99 170.05Q279.43 169.77 278.19 170.29Q277.84 170.43 277.52 170.64Q276.92 171.02 276.51 171.55Q275.93 172.31 275.74 173.37Q275.59 174.23 275.77 175.02Q275.95 175.83 276.49 176.57Q276.83 177.03 277.25 177.37Z" fill="#FFFFFF" fill-opacity="1.000000" fill-rule="evenodd"/>
	<path id="100 ÷ 4 = ?" d="M91.72 116.03L86.76 144L78.85 142.61L82.72 120.74L77.53 119.83L78.61 113.72L91.72 116.03ZM103.21 147.48Q99.61 146.84 97.12 144.63Q94.63 142.42 93.63 138.84Q92.64 135.27 93.44 130.75Q94.23 126.24 96.4 123.22Q98.56 120.2 101.66 118.98Q104.77 117.75 108.37 118.38Q111.92 119.01 114.41 121.23Q116.91 123.44 117.9 127.01Q118.89 130.59 118.1 135.1Q117.3 139.62 115.13 142.63Q112.98 145.66 109.87 146.88Q106.77 148.1 103.21 147.48ZM104.36 141.01Q106.36 141.36 107.87 139.62Q109.4 137.89 110.14 133.7Q110.89 129.5 110.05 127.36Q109.22 125.21 107.22 124.86Q105.18 124.5 103.66 126.23Q102.13 127.96 101.39 132.15Q100.65 136.35 101.48 138.5Q102.32 140.65 104.36 141.01ZM130.59 152.3Q126.99 151.67 124.5 149.46Q122.01 147.25 121.01 143.67Q120.02 140.1 120.82 135.58Q121.61 131.07 123.78 128.05Q125.94 125.03 129.04 123.81Q132.14 122.57 135.75 123.21Q139.3 123.83 141.79 126.06Q144.29 128.27 145.28 131.84Q146.27 135.42 145.47 139.92Q144.67 144.44 142.51 147.46Q140.35 150.48 137.25 151.71Q134.14 152.93 130.59 152.3ZM131.74 145.83Q133.74 146.19 135.25 144.45Q136.78 142.72 137.52 138.52Q138.27 134.33 137.43 132.19Q136.6 130.04 134.6 129.69Q132.56 129.33 131.03 131.06Q129.51 132.78 128.77 136.98Q128.03 141.17 128.86 143.33Q129.7 145.48 131.74 145.83ZM171.5 139.61Q169.82 139.32 168.91 138.05Q168.01 136.78 168.31 135.1Q168.6 133.42 169.88 132.56Q171.17 131.69 172.85 131.98Q174.49 132.27 175.42 133.53Q176.36 134.79 176.06 136.46Q175.77 138.14 174.45 139.03Q173.14 139.9 171.5 139.61ZM161.31 139.71L181.01 143.18L179.98 149.02L160.28 145.54L161.31 139.71ZM168.46 156.76Q166.78 156.46 165.88 155.17Q164.98 153.88 165.28 152.2Q165.57 150.52 166.85 149.68Q168.14 148.83 169.81 149.13Q171.45 149.42 172.39 150.68Q173.32 151.93 173.03 153.57Q172.74 155.25 171.42 156.15Q170.1 157.05 168.46 156.76ZM220.66 162.09L216.5 161.35L215.55 166.71L207.83 165.35L208.78 159.99L194 157.39L194.91 152.23L210.55 136.98L218.74 138.42L204.46 152.76L210.14 153.76L210.98 149.01L218.45 150.33L217.61 155.08L221.77 155.81L220.66 162.09ZM237.78 148L257.49 151.48L256.46 157.27L236.76 153.8L237.78 148ZM235.99 158.12L255.69 161.59L254.67 167.39L234.97 163.92L235.99 158.12ZM277.82 167.19Q278.18 165.19 279.29 164.04Q280.4 162.89 282.36 161.64Q283.7 160.76 284.39 160.12Q285.08 159.48 285.23 158.64Q285.44 157.48 284.58 156.61Q283.73 155.73 282.17 155.46Q280.57 155.17 279.14 155.71Q277.71 156.24 276.67 157.45L271.27 153.21Q273.41 150.7 276.68 149.67Q279.96 148.64 284.2 149.38Q288.95 150.22 291.5 152.71Q294.04 155.21 293.41 158.77Q293.12 160.4 292.33 161.55Q291.56 162.72 290.62 163.45Q289.7 164.17 288.27 165.02Q286.71 165.95 285.92 166.65Q285.13 167.36 284.94 168.44L277.82 167.19ZM279.52 178.36Q277.55 178.02 276.49 176.57Q275.43 175.13 275.74 173.37Q276.06 171.56 277.52 170.64Q278.99 169.7 280.99 170.05Q282.99 170.4 284.06 171.79Q285.14 173.16 284.82 174.97Q284.51 176.73 283.01 177.72Q281.52 178.71 279.52 178.36Z" stroke="#202027" stroke-opacity="1.000000" stroke-width="0.634167"/>
	<rect id="Frame 2043683071" rx="18.775000" width="267.160004" height="80.013336" transform="translate(59.884766 86.446289) rotate(10.000001)" stroke="#202027" stroke-opacity="1.000000" stroke-width="0.500000"/>
	<rect id="Frame 2043683075" rx="18.775000" width="207.160004" height="80.013336" transform="translate(331.034180 134.257324) rotate(10.000001)" fill="#FFEC8F" fill-opacity="1.000000"/>
	<path id="1 + 3 = ?" d="M491.48 201.46Q490.37 202.6 490.02 204.6L497.13 205.86Q497.24 205.22 497.56 204.71Q497.79 204.36 498.11 204.07Q498.9 203.36 500.46 202.44Q501.89 201.58 502.82 200.86Q503.75 200.13 504.53 198.97Q505.32 197.81 505.61 196.18Q505.93 194.34 505.41 192.79Q504.92 191.33 503.69 190.13Q501.14 187.64 496.39 186.8Q492.16 186.05 488.87 187.08Q486.81 187.74 485.2 188.97Q484.25 189.7 483.47 190.63L488.86 194.87Q489.57 194.04 490.46 193.53Q490.88 193.29 491.34 193.12Q491.73 192.97 492.15 192.89Q493.21 192.67 494.37 192.87Q495.92 193.15 496.77 194.02Q497.24 194.5 497.4 195.07Q497.52 195.53 497.43 196.06Q497.39 196.27 497.32 196.46Q497.11 197.06 496.58 197.54Q495.9 198.17 494.55 199.05Q492.6 200.31 491.48 201.46ZM357.59 191.76L362.55 163.78L349.44 161.47L348.36 167.58L353.55 168.5L349.68 190.36L357.59 191.76ZM431.49 190.36Q430.01 187.94 426.72 186.64L433.62 181.43L434.5 176.47L414.27 172.9L413.19 179.01L424.22 180.96L418.27 185.47L417.39 190.47L420.7 191.05Q423.75 191.59 424.38 193.12Q424.64 193.74 424.5 194.53Q424.38 195.2 424.01 195.67Q423.61 196.19 422.91 196.47Q421.58 197.02 419.54 196.66Q417.54 196.31 415.59 195.35Q413.63 194.38 412.2 192.97L408.27 198.43Q410.15 200.12 412.92 201.35Q414.76 202.16 416.67 202.66Q417.65 202.92 418.65 203.1Q422.68 203.81 425.65 202.99Q428.63 202.18 430.34 200.3Q431.25 199.29 431.8 198.12Q432.28 197.09 432.49 195.94Q432.83 194.01 432.35 192.3Q432.08 191.33 431.54 190.44Q431.52 190.4 431.49 190.36ZM389.3 185.93L396.05 187.12L397.08 181.28L390.33 180.09L391.5 173.51L385.34 172.42L384.17 179.01L377.38 177.81L376.35 183.64L383.14 184.84L381.97 191.44L388.13 192.52L389.3 185.93ZM469.68 188.89L449.98 185.42L448.95 191.21L468.65 194.69L469.68 188.89ZM467.89 199.01L448.19 195.54L447.16 201.33L466.86 204.81L467.89 199.01ZM489.44 214.79Q490.37 215.54 491.71 215.78Q493.15 216.03 494.33 215.59Q494.79 215.42 495.21 215.14Q495.97 214.63 496.42 213.92Q496.86 213.25 497.01 212.39Q497.19 211.35 496.92 210.46Q496.72 209.79 496.26 209.2Q496.01 208.89 495.72 208.63Q494.73 207.74 493.18 207.46Q491.62 207.19 490.38 207.7Q490.04 207.85 489.72 208.05Q489.11 208.43 488.7 208.97Q488.12 209.73 487.94 210.79Q487.78 211.65 487.96 212.43Q488.15 213.25 488.69 213.99Q489.02 214.44 489.44 214.79Z" fill="#FFFFFF" fill-opacity="1.000000" fill-rule="evenodd"/>
	<path id="1 + 3 = ?" d="M362.55 163.78L357.59 191.76L349.68 190.36L353.55 168.5L348.36 167.58L349.44 161.47L362.55 163.78ZM396.05 187.12L389.3 185.93L388.13 192.52L381.97 191.44L383.14 184.84L376.35 183.64L377.38 177.81L384.17 179.01L385.34 172.42L391.5 173.51L390.33 180.09L397.08 181.28L396.05 187.12ZM426.72 186.64Q430.07 187.96 431.54 190.44Q433.03 192.9 432.49 195.94Q432.05 198.42 430.34 200.3Q428.63 202.18 425.65 202.99Q422.68 203.81 418.65 203.1Q415.7 202.57 412.92 201.35Q410.15 200.12 408.27 198.43L412.2 192.97Q413.63 194.38 415.59 195.35Q417.54 196.31 419.54 196.66Q421.58 197.02 422.91 196.47Q424.25 195.92 424.5 194.53Q424.98 191.81 420.7 191.05L417.39 190.47L418.27 185.47L424.22 180.96L413.19 179.01L414.27 172.9L434.5 176.47L433.62 181.43L426.72 186.64ZM449.98 185.42L469.68 188.89L468.65 194.69L448.95 191.21L449.98 185.42ZM448.19 195.54L467.89 199.01L466.86 204.81L447.16 201.33L448.19 195.54ZM490.02 204.6Q490.37 202.6 491.48 201.46Q492.6 200.31 494.55 199.05Q495.9 198.17 496.58 197.54Q497.28 196.9 497.43 196.06Q497.63 194.9 496.77 194.02Q495.92 193.15 494.37 192.87Q492.77 192.59 491.34 193.12Q489.9 193.65 488.86 194.87L483.47 190.63Q485.6 188.12 488.87 187.08Q492.16 186.05 496.39 186.8Q501.14 187.64 503.69 190.13Q506.24 192.62 505.61 196.18Q505.32 197.81 504.53 198.97Q503.75 200.13 502.82 200.86Q501.89 201.58 500.46 202.44Q498.9 203.36 498.11 204.07Q497.32 204.77 497.13 205.86L490.02 204.6ZM491.71 215.78Q489.75 215.43 488.69 213.99Q487.62 212.54 487.94 210.79Q488.26 208.98 489.72 208.05Q491.18 207.11 493.18 207.46Q495.18 207.82 496.26 209.2Q497.33 210.58 497.01 212.39Q496.7 214.14 495.21 215.14Q493.71 216.13 491.71 215.78Z" stroke="#202027" stroke-opacity="1.000000" stroke-width="0.634167"/>
	<rect id="Frame 2043683075" rx="18.775000" width="207.160004" height="80.013336" transform="translate(331.034180 134.257324) rotate(10.000001)" stroke="#202027" stroke-opacity="1.000000" stroke-width="0.500000"/>
	<rect id="Frame 2043683074" rx="18.775000" width="209.160004" height="80.013336" transform="translate(44.687500 172.631836) rotate(10.000001)" fill="#FFEC8F" fill-opacity="1.000000"/>
	<path id="9 + 1 = ?" d="M82.23 205Q79.45 202.15 74.61 201.29Q71.67 200.78 69.04 201.45Q68.95 201.48 68.87 201.5Q67.05 202 65.62 203.03Q64.92 203.53 64.31 204.17Q63.81 204.69 63.41 205.28Q62.33 206.86 61.97 208.92Q61.62 210.88 62.07 212.63Q62.22 213.21 62.45 213.77Q62.83 214.67 63.38 215.46Q64.2 216.61 65.39 217.5Q65.72 217.74 66.06 217.95Q67.82 219.06 70.03 219.45Q73.53 220.07 76.12 218.82Q76.4 218.68 76.67 218.52Q75.87 221.35 74 222.7Q73.82 222.83 73.63 222.95Q73.3 223.15 72.94 223.32Q71.02 224.19 68.49 223.75Q65.37 223.2 63.58 221.4L59.71 226.57Q61.05 227.8 63.11 228.72Q65.18 229.64 67.53 230.05Q71.97 230.83 75.67 229.63Q77.24 229.12 78.6 228.26Q80.41 227.1 81.83 225.31Q84.31 222.17 85.15 217.38Q86.28 211.03 83.75 206.94Q83.62 206.73 83.48 206.53Q82.92 205.7 82.23 205ZM207.04 240.17Q205.93 241.31 205.57 243.31L212.69 244.57Q212.8 243.93 213.12 243.42Q213.34 243.07 213.67 242.78Q214.46 242.07 216.02 241.15Q217.45 240.29 218.37 239.57Q219.31 238.84 220.09 237.68Q220.88 236.52 221.16 234.89Q221.49 233.05 220.97 231.5Q220.48 230.04 219.25 228.84Q216.7 226.35 211.95 225.51Q207.71 224.76 204.43 225.79Q202.37 226.45 200.76 227.68Q199.81 228.41 199.02 229.34L204.42 233.58Q205.13 232.75 206.02 232.24Q206.43 232 206.89 231.83Q207.29 231.68 207.7 231.6Q208.77 231.38 209.93 231.58Q211.48 231.86 212.33 232.73Q212.8 233.21 212.95 233.78Q213.08 234.25 212.98 234.77Q212.95 234.98 212.88 235.17Q212.66 235.77 212.14 236.25Q211.45 236.88 210.11 237.76Q208.16 239.02 207.04 240.17ZM144.86 243.11L149.81 215.14L136.71 212.83L135.62 218.93L140.82 219.85L136.94 241.72L144.86 243.11ZM112.77 226.03L119.52 227.22L120.55 221.39L113.8 220.2L114.97 213.61L108.81 212.53L107.64 219.11L100.85 217.91L99.82 223.75L106.61 224.95L105.44 231.54L111.6 232.63L112.77 226.03ZM75.39 213.88Q74.3 214.35 72.91 214.11Q71.48 213.85 70.62 213.01Q70.45 212.85 70.3 212.66Q70 212.27 69.84 211.83Q69.51 210.97 69.7 209.92Q69.91 208.75 70.58 208.03Q70.86 207.73 71.22 207.51Q71.48 207.34 71.76 207.22Q72.81 206.79 74.13 207.02Q75.7 207.3 76.57 208.23Q76.69 208.37 76.8 208.51Q77.15 208.97 77.32 209.48Q77.59 210.28 77.42 211.23Q77.24 212.24 76.67 212.93Q76.34 213.33 75.88 213.62Q75.64 213.77 75.39 213.88ZM185.24 227.6L165.54 224.13L164.51 229.92L184.21 233.4L185.24 227.6ZM183.45 237.72L163.74 234.25L162.72 240.04L182.42 243.52L183.45 237.72ZM205 253.5Q205.92 254.25 207.27 254.49Q208.71 254.74 209.88 254.3Q210.34 254.13 210.76 253.85Q211.52 253.34 211.98 252.63Q212.42 251.96 212.57 251.1Q212.75 250.06 212.48 249.17Q212.27 248.5 211.81 247.91Q211.57 247.6 211.28 247.34Q210.29 246.45 208.74 246.17Q207.18 245.9 205.94 246.41Q205.6 246.56 205.28 246.76Q204.67 247.15 204.26 247.68Q203.68 248.44 203.49 249.5Q203.34 250.36 203.52 251.14Q203.7 251.96 204.24 252.7Q204.58 253.15 205 253.5Z" fill="#FFFFFF" fill-opacity="1.000000" fill-rule="evenodd"/>
	<path id="9 + 1 = ?" d="M74.61 201.29Q80.64 202.36 83.48 206.53Q86.34 210.71 85.15 217.38Q84.31 222.17 81.83 225.31Q79.36 228.43 75.67 229.63Q71.97 230.83 67.53 230.05Q65.18 229.64 63.11 228.72Q61.05 227.8 59.71 226.57L63.58 221.4Q65.37 223.2 68.49 223.75Q71.48 224.28 73.63 222.95Q75.79 221.62 76.67 218.52Q73.91 220.14 70.03 219.45Q67.39 218.99 65.39 217.5Q63.39 216.01 62.45 213.77Q61.51 211.52 61.97 208.92Q62.47 206.09 64.31 204.17Q66.16 202.24 68.87 201.5Q71.58 200.76 74.61 201.29ZM72.91 214.11Q74.63 214.41 75.88 213.62Q77.14 212.83 77.42 211.23Q77.69 209.68 76.8 208.51Q75.92 207.34 74.13 207.02Q72.45 206.73 71.22 207.51Q69.99 208.28 69.7 209.92Q69.42 211.51 70.3 212.66Q71.2 213.8 72.91 214.11ZM119.52 227.22L112.77 226.03L111.6 232.63L105.44 231.54L106.61 224.95L99.82 223.75L100.85 217.91L107.64 219.11L108.81 212.53L114.97 213.61L113.8 220.2L120.55 221.39L119.52 227.22ZM149.81 215.14L144.86 243.11L136.94 241.72L140.82 219.85L135.62 218.93L136.71 212.83L149.81 215.14ZM165.54 224.13L185.24 227.6L184.21 233.4L164.51 229.92L165.54 224.13ZM163.74 234.25L183.45 237.72L182.42 243.52L162.72 240.04L163.74 234.25ZM205.57 243.31Q205.93 241.31 207.04 240.17Q208.16 239.02 210.11 237.76Q211.45 236.88 212.14 236.25Q212.84 235.61 212.98 234.77Q213.19 233.61 212.33 232.73Q211.48 231.86 209.93 231.58Q208.33 231.3 206.89 231.83Q205.46 232.37 204.42 233.58L199.02 229.34Q201.16 226.83 204.43 225.79Q207.71 224.76 211.95 225.51Q216.7 226.35 219.25 228.84Q221.79 231.33 221.16 234.89Q220.88 236.52 220.09 237.68Q219.31 238.84 218.37 239.57Q217.45 240.29 216.02 241.15Q214.46 242.07 213.67 242.78Q212.88 243.48 212.69 244.57L205.57 243.31ZM207.27 254.49Q205.31 254.14 204.24 252.7Q203.18 251.25 203.49 249.5Q203.81 247.69 205.28 246.76Q206.74 245.82 208.74 246.17Q210.74 246.53 211.81 247.91Q212.89 249.29 212.57 251.1Q212.26 252.85 210.76 253.85Q209.27 254.84 207.27 254.49Z" stroke="#202027" stroke-opacity="1.000000" stroke-width="0.634167"/>
	<rect id="Frame 2043683074" rx="18.775000" width="209.160004" height="80.013336" transform="translate(44.687500 172.631836) rotate(10.000001)" stroke="#202027" stroke-opacity="1.000000" stroke-width="0.500000"/>
	<rect id="Frame 2043683073" rx="18.775000" width="215.160004" height="80.013336" transform="translate(258.717773 210.371216) rotate(10.000001)" fill="#FFC700" fill-opacity="1.000000"/>
	<path id="3 × 2 = ?" d="M366.68 282.22L367.79 275.95L357 274.05L363.14 270.1Q366.39 268.04 367.73 266.19Q368.3 265.39 368.71 264.51Q369.23 263.36 369.46 262.07Q369.78 260.3 369.38 258.71Q369.2 258 368.88 257.33Q368.74 257.03 368.58 256.75Q367.54 254.94 365.58 253.68Q363.3 252.2 360.1 251.63Q356.07 250.92 352.83 251.96Q350.61 252.67 348.92 254.03Q348.14 254.66 347.47 255.42L352.78 259.74Q353.56 258.89 354.53 258.41Q354.89 258.23 355.27 258.11Q355.65 257.98 356.05 257.91Q357.11 257.71 358.25 257.91Q360.01 258.22 360.79 259.14Q361.04 259.42 361.18 259.75Q361.5 260.48 361.34 261.42Q361.33 261.46 361.32 261.5Q361.13 262.49 360.45 263.39Q359.76 264.31 357.98 265.49L345.77 273.43L344.9 278.38L366.68 282.22ZM426.98 278.95Q425.87 280.09 425.52 282.09L432.63 283.35Q432.74 282.71 433.06 282.2Q433.29 281.85 433.61 281.56Q434.4 280.85 435.96 279.93Q437.39 279.08 438.32 278.35Q439.25 277.62 440.03 276.46Q440.82 275.3 441.11 273.67Q441.43 271.83 440.91 270.28Q440.42 268.82 439.19 267.62Q436.64 265.13 431.89 264.29Q427.66 263.54 424.37 264.58Q422.31 265.23 420.7 266.47Q419.76 267.19 418.97 268.12L424.36 272.36Q425.07 271.54 425.96 271.03Q426.38 270.79 426.84 270.61Q427.24 270.47 427.65 270.38Q428.71 270.16 429.87 270.36Q431.42 270.64 432.27 271.51Q432.75 271.99 432.9 272.56Q433.02 273.03 432.93 273.55Q432.89 273.76 432.82 273.95Q432.61 274.55 432.08 275.03Q431.4 275.66 430.05 276.54Q428.1 277.8 426.98 278.95ZM295.45 255.23Q293.97 252.82 290.67 251.52L297.57 246.3L298.45 241.35L278.22 237.78L277.14 243.89L288.18 245.83L282.23 250.35L281.34 255.34L284.66 255.93Q287.7 256.46 288.33 258Q288.59 258.62 288.45 259.4Q288.33 260.07 287.96 260.55Q287.56 261.06 286.87 261.35Q285.53 261.9 283.49 261.54Q281.49 261.19 279.54 260.23Q277.59 259.26 276.16 257.85L272.22 263.3Q274.11 265 276.88 266.23Q278.71 267.04 280.62 267.54Q281.6 267.8 282.61 267.97Q286.64 268.68 289.61 267.87Q292.58 267.06 294.29 265.17Q295.21 264.17 295.76 263Q296.24 261.97 296.44 260.81Q296.79 258.88 296.31 257.18Q296.04 256.21 295.5 255.31Q295.47 255.27 295.45 255.23ZM330.52 266.49L326.47 260.71L332.26 256.66L328.91 251.83L323.12 255.88L319.07 250.09L314.27 253.49L318.31 259.27L312.53 263.32L315.87 268.15L321.66 264.1L325.71 269.89L330.52 266.49ZM405.18 266.38L385.48 262.91L384.45 268.71L404.15 272.18L405.18 266.38ZM403.39 276.5L383.69 273.03L382.66 278.82L402.36 282.3L403.39 276.5ZM424.94 292.28Q425.87 293.03 427.21 293.27Q428.65 293.52 429.83 293.08Q430.29 292.91 430.71 292.63Q431.47 292.12 431.92 291.42Q432.36 290.74 432.51 289.88Q432.69 288.84 432.42 287.95Q432.22 287.28 431.76 286.7Q431.51 286.38 431.22 286.12Q430.23 285.23 428.68 284.96Q427.12 284.68 425.88 285.19Q425.54 285.34 425.22 285.54Q424.61 285.93 424.2 286.46Q423.62 287.22 423.44 288.28Q423.28 289.14 423.46 289.93Q423.65 290.74 424.19 291.48Q424.52 291.93 424.94 292.28Z" fill="#FFFFFF" fill-opacity="1.000000" fill-rule="evenodd"/>
	<path id="3 × 2 = ?" d="M290.67 251.52Q294.02 252.84 295.5 255.31Q296.98 257.78 296.44 260.81Q296 263.29 294.29 265.17Q292.58 267.06 289.61 267.87Q286.64 268.68 282.61 267.97Q279.65 267.45 276.88 266.23Q274.11 265 272.22 263.3L276.16 257.85Q277.59 259.26 279.54 260.23Q281.49 261.19 283.49 261.54Q285.53 261.9 286.87 261.35Q288.2 260.8 288.45 259.4Q288.93 256.68 284.66 255.93L281.34 255.34L282.23 250.35L288.18 245.83L277.14 243.89L278.22 237.78L298.45 241.35L297.57 246.3L290.67 251.52ZM326.47 260.71L330.52 266.49L325.71 269.89L321.66 264.1L315.87 268.15L312.53 263.32L318.31 259.27L314.27 253.49L319.07 250.09L323.12 255.88L328.91 251.83L332.26 256.66L326.47 260.71ZM367.79 275.95L366.68 282.22L344.9 278.38L345.77 273.43L357.98 265.49Q359.76 264.31 360.45 263.39Q361.15 262.45 361.34 261.42Q361.58 260.05 360.79 259.14Q360.01 258.22 358.25 257.91Q356.69 257.63 355.27 258.11Q353.85 258.57 352.78 259.74L347.47 255.42Q349.59 253 352.83 251.96Q356.07 250.92 360.1 251.63Q363.3 252.2 365.58 253.68Q367.85 255.14 368.88 257.33Q369.92 259.51 369.46 262.07Q369.06 264.34 367.73 266.19Q366.39 268.04 363.14 270.1L357 274.05L367.79 275.95ZM385.48 262.91L405.18 266.38L404.15 272.18L384.45 268.71L385.48 262.91ZM383.69 273.03L403.39 276.5L402.36 282.3L382.66 278.82L383.69 273.03ZM425.52 282.09Q425.87 280.09 426.98 278.95Q428.1 277.8 430.05 276.54Q431.4 275.66 432.08 275.03Q432.78 274.39 432.93 273.55Q433.13 272.39 432.27 271.51Q431.42 270.64 429.87 270.36Q428.27 270.08 426.84 270.61Q425.4 271.15 424.36 272.36L418.97 268.12Q421.1 265.61 424.37 264.58Q427.66 263.54 431.89 264.29Q436.64 265.13 439.19 267.62Q441.74 270.11 441.11 273.67Q440.82 275.3 440.03 276.46Q439.25 277.62 438.32 278.35Q437.39 279.08 435.96 279.93Q434.4 280.85 433.61 281.56Q432.82 282.26 432.63 283.35L425.52 282.09ZM427.21 293.27Q425.25 292.92 424.19 291.48Q423.13 290.03 423.44 288.28Q423.76 286.47 425.22 285.54Q426.68 284.6 428.68 284.96Q430.68 285.31 431.76 286.7Q432.83 288.07 432.51 289.88Q432.2 291.63 430.71 292.63Q429.21 293.62 427.21 293.27Z" stroke="#202027" stroke-opacity="1.000000" stroke-width="0.634167"/>
	<rect id="Frame 2043683073" rx="18.775000" width="215.160004" height="80.013336" transform="translate(258.717773 210.371216) rotate(10.000001)" stroke="#202027" stroke-opacity="1.000000" stroke-width="0.500000"/>
	<rect id="Frame 2043683072" rx="18.775000" width="244.160004" height="80.013336" transform="translate(29.490234 258.817139) rotate(10.000001)" fill="#FFC700" fill-opacity="1.000000"/>
	<path id="36 − 6 = ?" d="M89.9 304.67Q88.17 303.6 86 303.22Q82.47 302.59 79.88 303.87Q79.59 304.01 79.31 304.18Q80.06 301.41 81.87 300.04Q82.09 299.87 82.32 299.73Q82.66 299.52 83.03 299.35Q84.98 298.47 87.54 298.92Q90.66 299.47 92.45 301.26L96.33 296.09Q94.99 294.83 92.92 293.93Q90.86 293.02 88.46 292.6Q84.02 291.82 80.34 293.03Q78.86 293.51 77.58 294.31Q75.67 295.49 74.19 297.37Q71.72 300.5 70.87 305.29Q69.74 311.66 72.29 315.75Q72.41 315.95 72.53 316.13Q73.12 316.99 73.84 317.71Q76.62 320.52 81.38 321.36Q84.46 321.9 87.17 321.17Q89.03 320.66 90.49 319.59Q91.14 319.11 91.72 318.51Q92.23 317.98 92.64 317.37Q93.71 315.79 94.07 313.74Q94.41 311.82 93.98 310.09Q93.83 309.48 93.59 308.9Q93.2 307.97 92.63 307.17Q91.82 306.04 90.64 305.17Q90.28 304.9 89.9 304.67ZM163.45 317.64Q161.71 316.56 159.55 316.18Q156.02 315.56 153.42 316.84Q153.13 316.98 152.86 317.15Q153.61 314.38 155.42 313.01Q155.63 312.84 155.87 312.7Q156.21 312.49 156.57 312.32Q158.52 311.43 161.08 311.89Q164.21 312.44 165.99 314.23L169.88 309.06Q168.53 307.79 166.47 306.9Q164.4 305.99 162 305.57Q157.56 304.79 153.89 306Q152.41 306.48 151.12 307.28Q149.21 308.46 147.73 310.34Q145.27 313.46 144.42 318.25Q143.29 324.63 145.83 328.72Q145.95 328.91 146.08 329.1Q146.67 329.96 147.38 330.68Q150.16 333.48 154.93 334.32Q158.01 334.87 160.72 334.14Q162.58 333.63 164.03 332.56Q164.69 332.08 165.26 331.48Q165.78 330.94 166.19 330.34Q167.25 328.76 167.62 326.71Q167.96 324.79 167.53 323.05Q167.38 322.45 167.14 321.87Q166.75 320.94 166.18 320.14Q165.36 319.01 164.18 318.14Q163.83 317.87 163.45 317.64ZM226 332.38Q224.89 333.52 224.54 335.52L231.65 336.78Q231.77 336.14 232.09 335.63Q232.31 335.28 232.63 334.99Q233.42 334.28 234.98 333.36Q236.41 332.5 237.34 331.78Q238.27 331.05 239.05 329.89Q239.84 328.73 240.13 327.1Q240.45 325.26 239.93 323.71Q239.44 322.25 238.21 321.05Q235.66 318.56 230.91 317.72Q226.68 316.97 223.39 318Q221.33 318.65 219.72 319.89Q218.78 320.62 217.99 321.55L223.38 325.79Q224.09 324.96 224.98 324.45Q225.4 324.21 225.86 324.04Q226.26 323.89 226.67 323.81Q227.74 323.59 228.89 323.79Q230.44 324.07 231.29 324.94Q231.77 325.42 231.92 325.99Q232.04 326.45 231.95 326.98Q231.91 327.19 231.84 327.38Q231.63 327.98 231.1 328.46Q230.42 329.09 229.07 329.97Q227.12 331.23 226 332.38ZM66.53 303.73Q65.05 301.32 61.76 300.02L68.66 294.8L69.53 289.85L49.3 286.28L48.22 292.39L59.26 294.33L53.31 298.85L52.42 303.84L55.74 304.43Q58.78 304.97 59.41 306.5Q59.67 307.12 59.53 307.91Q59.41 308.57 59.04 309.05Q58.64 309.56 57.95 309.85Q56.62 310.4 54.58 310.04Q52.58 309.69 50.62 308.73Q48.67 307.76 47.24 306.35L43.3 311.81Q45.19 313.5 47.96 314.73Q49.79 315.54 51.71 316.04Q52.69 316.3 53.69 316.47Q57.72 317.18 60.69 316.37Q63.66 315.56 65.37 313.67Q66.29 312.67 66.84 311.5Q67.32 310.47 67.52 309.31Q67.87 307.38 67.39 305.68Q67.12 304.71 66.58 303.81Q66.55 303.77 66.53 303.73ZM204.2 319.81L184.5 316.34L183.47 322.13L203.18 325.61L204.2 319.81ZM129.77 311.88L110.06 308.4L109.03 314.24L128.73 317.71L129.77 311.88ZM84.3 315.43Q83.25 315.88 81.9 315.64Q80.31 315.36 79.43 314.42Q79.32 314.3 79.21 314.16Q78.88 313.72 78.71 313.22Q78.44 312.4 78.61 311.43Q78.79 310.41 79.36 309.73Q79.69 309.34 80.14 309.05Q80.4 308.89 80.68 308.77Q81.75 308.32 83.11 308.56Q84.56 308.82 85.41 309.66Q85.58 309.82 85.72 310.01Q86.01 310.39 86.18 310.82Q86.52 311.68 86.33 312.75Q86.12 313.89 85.46 314.62Q85.18 314.93 84.8 315.17Q84.56 315.32 84.3 315.43ZM157.85 328.4Q156.79 328.85 155.45 328.61Q153.86 328.33 152.98 327.39Q152.86 327.27 152.76 327.13Q152.43 326.69 152.26 326.19Q151.98 325.37 152.16 324.4Q152.34 323.38 152.91 322.69Q153.23 322.31 153.68 322.02Q153.94 321.86 154.22 321.74Q155.3 321.29 156.66 321.53Q158.1 321.78 158.96 322.63Q159.12 322.79 159.26 322.97Q159.56 323.35 159.73 323.79Q160.06 324.65 159.87 325.72Q159.67 326.86 159.01 327.58Q158.72 327.9 158.35 328.14Q158.11 328.29 157.85 328.4ZM202.41 329.93L182.71 326.45L181.68 332.25L201.38 335.72L202.41 329.93ZM223.97 345.71Q224.89 346.46 226.23 346.7Q227.67 346.95 228.85 346.51Q229.31 346.33 229.73 346.05Q230.49 345.55 230.94 344.84Q231.38 344.17 231.53 343.3Q231.72 342.27 231.44 341.38Q231.24 340.71 230.78 340.12Q230.53 339.81 230.24 339.55Q229.25 338.66 227.7 338.38Q226.14 338.11 224.91 338.62Q224.56 338.76 224.24 338.97Q223.63 339.35 223.23 339.89Q222.64 340.65 222.46 341.7Q222.3 342.57 222.48 343.35Q222.67 344.17 223.21 344.91Q223.54 345.36 223.97 345.71Z" fill="#FFFFFF" fill-opacity="1.000000" fill-rule="evenodd"/>
	<path id="36 − 6 = ?" d="M61.76 300.02Q65.1 301.34 66.58 303.81Q68.06 306.28 67.52 309.31Q67.09 311.79 65.37 313.67Q63.66 315.56 60.69 316.37Q57.72 317.18 53.69 316.47Q50.73 315.95 47.96 314.73Q45.19 313.5 43.3 311.81L47.24 306.35Q48.67 307.76 50.62 308.73Q52.58 309.69 54.58 310.04Q56.62 310.4 57.95 309.85Q59.29 309.3 59.53 307.91Q60.01 305.18 55.74 304.43L52.42 303.84L53.31 298.85L59.26 294.33L48.22 292.39L49.3 286.28L69.53 289.85L68.66 294.8L61.76 300.02ZM86 303.22Q88.64 303.68 90.64 305.17Q92.65 306.65 93.59 308.9Q94.53 311.15 94.07 313.74Q93.57 316.58 91.72 318.51Q89.88 320.43 87.17 321.17Q84.46 321.9 81.38 321.36Q75.39 320.3 72.53 316.13Q69.69 311.96 70.87 305.29Q71.72 300.5 74.19 297.37Q76.67 294.23 80.34 293.03Q84.02 291.82 88.46 292.6Q90.86 293.02 92.92 293.93Q94.99 294.83 96.33 296.09L92.45 301.26Q90.66 299.47 87.54 298.92Q84.5 298.38 82.32 299.73Q80.15 301.08 79.31 304.18Q82.08 302.52 86 303.22ZM81.9 315.64Q83.58 315.94 84.8 315.17Q86.04 314.39 86.33 312.75Q86.61 311.15 85.72 310.01Q84.83 308.86 83.11 308.56Q81.4 308.26 80.14 309.05Q78.89 309.84 78.61 311.43Q78.33 312.99 79.21 314.16Q80.1 315.32 81.9 315.64ZM110.06 308.4L129.77 311.88L128.73 317.71L109.03 314.24L110.06 308.4ZM159.55 316.18Q162.18 316.65 164.18 318.14Q166.2 319.62 167.14 321.87Q168.08 324.12 167.62 326.71Q167.11 329.55 165.26 331.48Q163.42 333.4 160.72 334.14Q158.01 334.87 154.93 334.32Q148.93 333.27 146.08 329.1Q143.24 324.93 144.42 318.25Q145.27 313.46 147.73 310.34Q150.21 307.2 153.89 306Q157.56 304.79 162 305.57Q164.4 305.99 166.47 306.9Q168.53 307.79 169.88 309.06L165.99 314.23Q164.21 312.44 161.08 311.89Q158.05 311.35 155.87 312.7Q153.7 314.04 152.86 317.15Q155.63 315.49 159.55 316.18ZM155.45 328.61Q157.12 328.91 158.35 328.14Q159.58 327.36 159.87 325.72Q160.16 324.12 159.26 322.97Q158.38 321.83 156.66 321.53Q154.94 321.23 153.68 322.02Q152.44 322.81 152.16 324.4Q151.88 325.96 152.76 327.13Q153.65 328.29 155.45 328.61ZM184.5 316.34L204.2 319.81L203.18 325.61L183.47 322.13L184.5 316.34ZM182.71 326.45L202.41 329.93L201.38 335.72L181.68 332.25L182.71 326.45ZM224.54 335.52Q224.89 333.52 226 332.38Q227.12 331.23 229.07 329.97Q230.42 329.09 231.1 328.46Q231.8 327.82 231.95 326.98Q232.15 325.82 231.29 324.94Q230.44 324.07 228.89 323.79Q227.29 323.51 225.86 324.04Q224.42 324.57 223.38 325.79L217.99 321.55Q220.12 319.04 223.39 318Q226.68 316.97 230.91 317.72Q235.66 318.56 238.21 321.05Q240.76 323.54 240.13 327.1Q239.84 328.73 239.05 329.89Q238.27 331.05 237.34 331.78Q236.41 332.5 234.98 333.36Q233.42 334.28 232.63 334.99Q231.84 335.69 231.65 336.78L224.54 335.52ZM226.23 346.7Q224.27 346.35 223.21 344.91Q222.15 343.46 222.46 341.7Q222.78 339.9 224.24 338.97Q225.7 338.03 227.7 338.38Q229.7 338.74 230.78 340.12Q231.85 341.5 231.53 343.3Q231.22 345.06 229.73 346.05Q228.23 347.05 226.23 346.7Z" stroke="#202027" stroke-opacity="1.000000" stroke-width="0.634167"/>
	<rect id="Frame 2043683072" rx="18.775000" width="244.160004" height="80.013336" transform="translate(29.490234 258.817139) rotate(10.000001)" stroke="#202027" stroke-opacity="1.000000" stroke-width="0.500000"/>
	<rect id="Frame 2043683094" rx="18.775000" width="219.160004" height="80.013336" transform="translate(277.988281 302.634277) rotate(10.000001)" fill="#FFEC8F" fill-opacity="1.000000"/>
	<path id="4 ÷ 2 = ?" d="M389.86 375.18L390.97 368.9L380.17 367L386.32 363.05Q389.57 360.99 390.91 359.14Q391.48 358.34 391.88 357.46Q392.41 356.31 392.64 355.02Q392.95 353.25 392.56 351.66Q392.38 350.95 392.06 350.28Q391.92 349.98 391.76 349.7Q390.72 347.9 388.75 346.63Q386.48 345.15 383.28 344.59Q379.25 343.87 376.01 344.91Q373.79 345.62 372.1 346.99Q371.32 347.61 370.65 348.38L375.96 352.69Q376.74 351.84 377.71 351.36Q378.07 351.18 378.45 351.06Q378.83 350.93 379.23 350.86Q380.29 350.66 381.43 350.86Q383.19 351.17 383.97 352.09Q384.22 352.38 384.36 352.7Q384.68 353.43 384.51 354.37Q384.51 354.41 384.5 354.45Q384.3 355.44 383.63 356.34Q382.94 357.26 381.16 358.44L368.95 366.38L368.08 371.33L389.86 375.18ZM450.16 371.9Q449.05 373.05 448.7 375.05L455.81 376.3Q455.92 375.66 456.24 375.15Q456.47 374.8 456.79 374.51Q457.58 373.81 459.14 372.88Q460.57 372.03 461.49 371.31Q462.43 370.58 463.21 369.41Q464 368.26 464.29 366.63Q464.61 364.79 464.09 363.23Q463.6 361.78 462.37 360.57Q459.82 358.08 455.07 357.24Q450.83 356.5 447.55 357.53Q445.49 358.18 443.88 359.42Q442.93 360.14 442.14 361.07L447.54 365.31Q448.25 364.49 449.14 363.98Q449.56 363.74 450.02 363.57Q450.41 363.42 450.83 363.33Q451.89 363.11 453.05 363.32Q454.6 363.59 455.45 364.46Q455.92 364.95 456.08 365.51Q456.2 365.98 456.11 366.5Q456.07 366.71 456 366.91Q455.78 367.5 455.26 367.98Q454.57 368.62 453.23 369.5Q451.28 370.75 450.16 371.9ZM315.83 356.6L319.98 357.33L321.09 351.06L316.94 350.32L317.78 345.57L310.3 344.25L309.46 349.01L303.78 348L318.07 333.67L309.88 332.23L294.24 347.48L293.32 352.63L308.11 355.24L307.16 360.59L314.88 361.95L315.83 356.6ZM344.55 347.39Q345.32 347.99 346.41 348.19Q347.39 348.36 348.25 348.12Q348.83 347.95 349.36 347.6Q349.86 347.26 350.22 346.81Q350.79 346.08 350.97 345.04Q351.16 343.97 350.85 343.08Q350.68 342.56 350.34 342.11Q349.97 341.61 349.49 341.26Q348.76 340.73 347.76 340.56Q346.65 340.36 345.71 340.67Q345.23 340.83 344.79 341.13Q344.36 341.42 344.04 341.81Q343.41 342.56 343.22 343.67Q343.02 344.75 343.33 345.67Q343.5 346.17 343.82 346.62Q344.14 347.06 344.55 347.39ZM428.36 359.34L408.66 355.86L407.63 361.66L427.33 365.13L428.36 359.34ZM355.92 351.75L336.22 348.28L335.19 354.12L354.89 357.59L355.92 351.75ZM426.57 369.45L406.87 365.98L405.84 371.78L425.54 375.25L426.57 369.45ZM341.56 364.56Q342.31 365.14 343.37 365.33Q344.32 365.5 345.17 365.27Q345.78 365.1 346.33 364.72Q346.85 364.37 347.21 363.89Q347.76 363.16 347.94 362.14Q348.12 361.16 347.85 360.32Q347.67 359.75 347.3 359.25Q346.93 358.75 346.45 358.41Q345.72 357.87 344.73 357.7Q343.58 357.5 342.62 357.83Q342.17 357.98 341.76 358.25Q341.34 358.53 341.03 358.9Q340.39 359.65 340.19 360.77Q340 361.84 340.29 362.74Q340.46 363.27 340.79 363.75Q341.12 364.22 341.56 364.56ZM448.12 385.23Q449.05 385.98 450.39 386.22Q451.83 386.47 453 386.03Q453.46 385.86 453.88 385.58Q454.65 385.07 455.1 384.37Q455.54 383.69 455.69 382.83Q455.87 381.8 455.6 380.9Q455.39 380.24 454.94 379.65Q454.69 379.33 454.4 379.07Q453.41 378.18 451.86 377.91Q450.3 377.63 449.06 378.15Q448.72 378.29 448.4 378.49Q447.79 378.88 447.38 379.41Q446.8 380.17 446.61 381.23Q446.46 382.09 446.64 382.88Q446.82 383.69 447.37 384.43Q447.7 384.88 448.12 385.23Z" fill="#FFFFFF" fill-opacity="1.000000" fill-rule="evenodd"/>
	<path id="4 ÷ 2 = ?" d="M319.98 357.33L315.83 356.6L314.88 361.95L307.16 360.59L308.11 355.24L293.32 352.63L294.24 347.48L309.88 332.23L318.07 333.67L303.78 348L309.46 349.01L310.3 344.25L317.78 345.57L316.94 350.32L321.09 351.06L319.98 357.33ZM346.41 348.19Q344.73 347.89 343.82 346.62Q342.92 345.35 343.22 343.67Q343.51 341.99 344.79 341.13Q346.08 340.26 347.76 340.56Q349.4 340.85 350.34 342.11Q351.27 343.36 350.97 345.04Q350.68 346.71 349.36 347.6Q348.05 348.48 346.41 348.19ZM336.22 348.28L355.92 351.75L354.89 357.59L335.19 354.12L336.22 348.28ZM343.37 365.33Q341.7 365.03 340.79 363.75Q339.89 362.45 340.19 360.77Q340.48 359.09 341.76 358.25Q343.05 357.4 344.73 357.7Q346.36 357.99 347.3 359.25Q348.23 360.5 347.94 362.14Q347.65 363.82 346.33 364.72Q345.01 365.62 343.37 365.33ZM390.97 368.9L389.86 375.18L368.08 371.33L368.95 366.38L381.16 358.44Q382.94 357.26 383.63 356.34Q384.33 355.41 384.51 354.37Q384.76 353.01 383.97 352.09Q383.19 351.17 381.43 350.86Q379.87 350.58 378.45 351.06Q377.03 351.52 375.96 352.69L370.65 348.38Q372.77 345.95 376.01 344.91Q379.25 343.87 383.28 344.59Q386.48 345.15 388.75 346.63Q391.03 348.1 392.06 350.28Q393.09 352.46 392.64 355.02Q392.24 357.29 390.91 359.14Q389.57 360.99 386.32 363.05L380.17 367L390.97 368.9ZM408.66 355.86L428.36 359.34L427.33 365.13L407.63 361.66L408.66 355.86ZM406.87 365.98L426.57 369.45L425.54 375.25L405.84 371.78L406.87 365.98ZM448.7 375.05Q449.05 373.05 450.16 371.9Q451.28 370.75 453.23 369.5Q454.57 368.62 455.26 367.98Q455.96 367.34 456.11 366.5Q456.31 365.34 455.45 364.46Q454.6 363.59 453.05 363.32Q451.45 363.03 450.02 363.57Q448.58 364.1 447.54 365.31L442.14 361.07Q444.28 358.56 447.55 357.53Q450.83 356.5 455.07 357.24Q459.82 358.08 462.37 360.57Q464.92 363.07 464.29 366.63Q464 368.26 463.21 369.41Q462.43 370.58 461.49 371.31Q460.57 372.03 459.14 372.88Q457.58 373.81 456.79 374.51Q456 375.22 455.81 376.3L448.7 375.05ZM450.39 386.22Q448.43 385.88 447.37 384.43Q446.3 382.99 446.61 381.23Q446.93 379.42 448.4 378.49Q449.86 377.56 451.86 377.91Q453.86 378.26 454.94 379.65Q456.01 381.02 455.69 382.83Q455.38 384.59 453.88 385.58Q452.39 386.57 450.39 386.22Z" stroke="#202027" stroke-opacity="1.000000" stroke-width="0.634167"/>
	<rect id="Frame 2043683094" rx="18.775000" width="219.160004" height="80.013336" transform="translate(277.988281 302.634277) rotate(10.000001)" stroke="#202027" stroke-opacity="1.000000" stroke-width="0.500000"/>
	<rect id="Frame 2043683093" rx="18.775000" width="268.160004" height="80.013336" transform="translate(14.291992 345.002686) rotate(10.000001)" fill="#FFEC8F" fill-opacity="1.000000"/>
	<path id="78 + 57 = ?" d="M78.66 396.8Q77.92 394.98 76.2 393.53Q77.54 392.91 78.47 391.91Q78.67 391.71 78.85 391.48Q79.08 391.19 79.28 390.87Q79.95 389.78 80.2 388.42Q80.46 386.92 80.16 385.54Q79.96 384.69 79.55 383.88Q79.54 383.85 79.52 383.83Q78.46 381.75 76.13 380.33Q73.77 378.88 70.49 378.3Q67.21 377.72 64.49 378.28Q61.82 378.82 60.09 380.4Q60.07 380.42 60.04 380.44Q59.4 381.04 58.93 381.77Q58.16 382.97 57.89 384.49Q57.65 385.85 57.91 387.11Q57.98 387.47 58.1 387.82Q58.19 388.1 58.31 388.36Q58.85 389.61 59.89 390.65Q57.78 391.43 56.44 392.88Q56.15 393.21 55.9 393.56Q55.03 394.81 54.74 396.46Q54.45 398.13 54.8 399.64Q55 400.53 55.43 401.37Q56.6 403.63 59.16 405.2Q61.73 406.76 65.33 407.39Q68.93 408.03 71.88 407.44Q74.83 406.84 76.69 405.12Q77.4 404.47 77.91 403.69Q78.75 402.39 79.04 400.74Q79.33 399.12 78.95 397.67Q78.84 397.23 78.66 396.8ZM234.85 422.8Q233.74 423.95 233.39 425.95L240.5 427.2Q240.62 426.56 240.94 426.06Q241.16 425.7 241.48 425.41Q242.27 424.71 243.84 423.78Q245.27 422.93 246.19 422.21Q247.12 421.48 247.9 420.32Q248.69 419.16 248.98 417.53Q249.31 415.69 248.78 414.13Q248.29 412.68 247.06 411.47Q244.52 408.98 239.76 408.14Q235.53 407.4 232.25 408.43Q230.18 409.08 228.57 410.32Q227.63 411.05 226.84 411.97L232.24 416.22Q232.94 415.39 233.83 414.88Q234.25 414.64 234.71 414.47Q235.11 414.32 235.52 414.23Q236.59 414.01 237.74 414.22Q239.29 414.49 240.14 415.37Q240.62 415.85 240.77 416.41Q240.89 416.88 240.8 417.4Q240.76 417.61 240.69 417.81Q240.48 418.4 239.95 418.88Q239.27 419.52 237.92 420.4Q235.97 421.65 234.85 422.8ZM55.64 381.37L56.52 376.42L33.33 372.33L31.46 382.92L38.21 384.11L38.97 379.79L46.33 381.09L33.05 401.13L41.69 402.65L55.64 381.37ZM149.67 405.82Q147.29 402.93 141.41 401.89L139.53 401.56L140.62 397.54L151.89 399.53L152.97 393.42L135.14 390.28L130.85 406.38L138.44 407.72Q141.48 408.25 142.55 409.18Q143.09 409.66 143.29 410.24Q143.5 410.82 143.37 411.51Q143.26 412.16 142.91 412.62Q142.5 413.17 141.77 413.47Q140.41 414.04 138.37 413.68Q138.14 413.64 137.91 413.59Q136.12 413.21 134.42 412.37Q132.63 411.47 131.22 410.17Q131.13 410.08 131.03 409.99L127.14 415.45Q128.98 417.14 131.75 418.37Q133.59 419.18 135.5 419.68Q136.48 419.94 137.48 420.11Q141.51 420.82 144.48 420.01Q147.42 419.21 149.14 417.3Q149.16 417.28 149.18 417.26Q149.92 416.42 150.43 415.45Q151.1 414.19 151.36 412.71Q151.79 410.29 151.08 408.28Q150.62 406.97 149.67 405.82ZM178.43 403.02L179.31 398.07L156.12 393.98L154.25 404.57L161 405.76L161.76 401.44L169.12 402.74L155.84 422.78L164.48 424.3L178.43 403.02ZM107.69 402.87L114.44 404.06L115.47 398.22L108.72 397.03L109.89 390.45L103.73 389.36L102.56 395.95L95.77 394.75L94.74 400.58L101.53 401.78L100.36 408.38L106.52 409.46L107.69 402.87ZM67.21 384.09Q68.2 383.63 69.5 383.86Q70.94 384.11 71.71 384.97Q71.76 385.02 71.8 385.07Q72.03 385.35 72.18 385.67Q72.51 386.43 72.34 387.41Q72.18 388.31 71.65 388.89Q71.39 389.17 71.04 389.38Q70.98 389.42 70.92 389.45Q69.9 389.99 68.46 389.73Q67.01 389.48 66.26 388.61Q66.22 388.57 66.18 388.52Q65.94 388.23 65.8 387.9Q65.5 387.16 65.66 386.23Q65.83 385.25 66.41 384.65Q66.65 384.4 66.96 384.22Q67.08 384.15 67.21 384.09ZM213.05 410.24L193.35 406.76L192.32 412.56L212.03 416.03L213.05 410.24ZM69.54 401.44Q68.24 402.18 66.32 401.84Q64.39 401.5 63.42 400.36Q63.04 399.91 62.85 399.39Q62.57 398.59 62.74 397.63Q62.91 396.64 63.47 395.98Q63.82 395.57 64.32 395.29Q64.32 395.29 64.33 395.29Q65.63 394.55 67.55 394.88Q69.47 395.22 70.43 396.37L70.44 396.37Q70.82 396.81 71.01 397.33Q71.3 398.13 71.13 399.11Q70.96 400.06 70.43 400.7Q70.07 401.14 69.54 401.44ZM211.26 420.35L191.56 416.88L190.53 422.68L210.23 426.15L211.26 420.35ZM232.82 436.13Q233.74 436.89 235.08 437.12Q236.52 437.38 237.7 436.93Q238.16 436.76 238.58 436.48Q239.34 435.97 239.79 435.27Q240.23 434.59 240.38 433.73Q240.57 432.7 240.29 431.8Q240.09 431.14 239.63 430.55Q239.38 430.23 239.09 429.97Q238.1 429.08 236.56 428.81Q234.99 428.53 233.76 429.05Q233.41 429.19 233.09 429.4Q232.49 429.78 232.08 430.31Q231.5 431.07 231.31 432.13Q231.16 432.99 231.33 433.78Q231.52 434.6 232.06 435.33Q232.39 435.79 232.82 436.13Z" fill="#FFFFFF" fill-opacity="1.000000" fill-rule="evenodd"/>
	<path id="78 + 57 = ?" d="M56.52 376.42L55.64 381.37L41.69 402.65L33.05 401.13L46.33 381.09L38.97 379.79L38.21 384.11L31.46 382.92L33.33 372.33L56.52 376.42ZM76.2 393.53Q77.92 394.98 78.66 396.8Q79.41 398.63 79.04 400.74Q78.57 403.39 76.69 405.12Q74.83 406.84 71.88 407.44Q68.93 408.03 65.33 407.39Q61.73 406.76 59.16 405.2Q56.6 403.63 55.43 401.37Q54.27 399.1 54.74 396.46Q55.12 394.34 56.44 392.88Q57.78 391.43 59.89 390.65Q58.63 389.4 58.1 387.82Q57.58 386.24 57.89 384.49Q58.32 382.05 60.04 380.44Q61.78 378.82 64.49 378.28Q67.21 377.72 70.49 378.3Q73.77 378.88 76.13 380.33Q78.49 381.77 79.55 383.88Q80.63 385.98 80.2 388.42Q79.89 390.18 78.85 391.48Q77.81 392.78 76.2 393.53ZM69.5 383.86Q68.03 383.6 66.96 384.22Q65.91 384.83 65.66 386.23Q65.42 387.59 66.18 388.52Q66.94 389.46 68.46 389.73Q69.98 390 71.04 389.38Q72.1 388.76 72.34 387.41Q72.58 386.01 71.8 385.07Q71.02 384.13 69.5 383.86ZM66.32 401.84Q68.24 402.18 69.54 401.44Q70.85 400.7 71.13 399.11Q71.41 397.51 70.44 396.37Q69.47 395.22 67.55 394.88Q65.63 394.54 64.32 395.29Q63.02 396.03 62.74 397.63Q62.45 399.22 63.42 400.36Q64.39 401.5 66.32 401.84ZM114.44 404.06L107.69 402.87L106.52 409.46L100.36 408.38L101.53 401.78L94.74 400.58L95.77 394.75L102.56 395.95L103.73 389.36L109.89 390.45L108.72 397.03L115.47 398.22L114.44 404.06ZM141.41 401.89Q147.29 402.93 149.67 405.82Q152.07 408.72 151.36 412.71Q150.9 415.32 149.18 417.26Q147.46 419.2 144.48 420.01Q141.51 420.82 137.48 420.11Q134.53 419.59 131.75 418.37Q128.98 417.14 127.14 415.45L131.03 409.99Q132.51 411.41 134.42 412.37Q136.33 413.32 138.37 413.68Q140.41 414.04 141.77 413.47Q143.13 412.91 143.37 411.51Q143.62 410.12 142.55 409.18Q141.48 408.25 138.44 407.72L130.85 406.38L135.14 390.28L152.97 393.42L151.89 399.53L140.62 397.54L139.53 401.56L141.41 401.89ZM179.31 398.07L178.43 403.02L164.48 424.3L155.84 422.78L169.12 402.74L161.76 401.44L161 405.76L154.25 404.57L156.12 393.98L179.31 398.07ZM193.35 406.76L213.05 410.24L212.03 416.03L192.32 412.56L193.35 406.76ZM191.56 416.88L211.26 420.35L210.23 426.15L190.53 422.68L191.56 416.88ZM233.39 425.95Q233.74 423.95 234.85 422.8Q235.97 421.65 237.92 420.4Q239.27 419.52 239.95 418.88Q240.65 418.24 240.8 417.4Q241.01 416.24 240.14 415.37Q239.29 414.49 237.74 414.22Q236.14 413.94 234.71 414.47Q233.28 415 232.24 416.22L226.84 411.97Q228.97 409.46 232.25 408.43Q235.53 407.4 239.76 408.14Q244.52 408.98 247.06 411.47Q249.61 413.97 248.98 417.53Q248.69 419.16 247.9 420.32Q247.12 421.48 246.19 422.21Q245.27 422.93 243.84 423.78Q242.27 424.71 241.48 425.41Q240.7 426.12 240.5 427.2L233.39 425.95ZM235.08 437.12Q233.12 436.78 232.06 435.33Q231 433.89 231.31 432.13Q231.63 430.33 233.09 429.4Q234.56 428.46 236.56 428.81Q238.56 429.16 239.63 430.55Q240.7 431.93 240.38 433.73Q240.07 435.49 238.58 436.48Q237.08 437.48 235.08 437.12Z" stroke="#202027" stroke-opacity="1.000000" stroke-width="0.634167"/>
	<rect id="Frame 2043683093" rx="18.775000" width="268.160004" height="80.013336" transform="translate(14.291992 345.002686) rotate(10.000001)" stroke="#202027" stroke-opacity="1.000000" stroke-width="0.500000"/>
	<rect id="Frame 2043683095" rx="18.775000" width="239.160004" height="80.013336" transform="translate(286.426758 392.987305) rotate(10.000001)" fill="#FFEC8F" fill-opacity="1.000000"/>
	<path id="10 − 4 = ?" d="M324.5 451.95Q326.67 453.47 329.56 453.98Q332.26 454.46 334.7 453.87Q335.47 453.68 336.22 453.39Q336.79 453.16 337.32 452.88Q339.72 451.61 341.48 449.14Q343.65 446.12 344.45 441.61Q345.25 437.1 344.25 433.52Q343.44 430.6 341.62 428.58Q341.22 428.14 340.77 427.74Q340.15 427.18 339.46 426.73Q337.39 425.36 334.72 424.89Q331.86 424.38 329.3 425.06Q328.65 425.23 328.01 425.49Q327.49 425.69 327 425.95Q324.55 427.22 322.75 429.73Q320.59 432.75 319.79 437.26Q318.99 441.77 319.98 445.35Q320.81 448.33 322.68 450.36Q323.05 450.77 323.47 451.14Q323.96 451.57 324.5 451.95ZM478.26 465.72Q477.15 466.87 476.79 468.87L483.91 470.12Q484.02 469.48 484.34 468.97Q484.57 468.62 484.89 468.33Q485.68 467.63 487.24 466.7Q488.67 465.85 489.59 465.13Q490.53 464.4 491.31 463.23Q492.1 462.08 492.38 460.45Q492.71 458.61 492.19 457.05Q491.7 455.6 490.47 454.39Q487.92 451.9 483.17 451.06Q478.93 450.32 475.65 451.35Q473.59 452 471.98 453.24Q471.03 453.96 470.24 454.89L475.64 459.13Q476.35 458.31 477.24 457.8Q477.65 457.56 478.11 457.39Q478.51 457.24 478.92 457.15Q479.99 456.93 481.15 457.14Q482.7 457.41 483.55 458.28Q484.02 458.77 484.17 459.33Q484.3 459.8 484.2 460.32Q484.17 460.53 484.1 460.73Q483.88 461.32 483.36 461.8Q482.67 462.44 481.33 463.32Q479.38 464.57 478.26 465.72ZM313.11 450.51L318.07 422.54L304.96 420.23L303.88 426.33L309.07 427.25L305.2 449.11L313.11 450.51ZM415.47 463.03L419.63 463.77L420.74 457.49L416.58 456.76L417.42 452.01L409.95 450.69L409.11 455.44L403.43 454.44L417.71 440.11L409.52 438.66L393.88 453.91L392.97 459.07L407.75 461.67L406.8 467.03L414.52 468.39L415.47 463.03ZM332.13 447.49Q331.45 447.65 330.71 447.51Q329.92 447.37 329.31 446.96Q328.35 446.32 327.83 445Q327 442.86 327.74 438.66Q328.48 434.46 330.01 432.74Q330.94 431.68 332.06 431.4Q332.78 431.23 333.57 431.37Q334.32 431.5 334.9 431.88Q335.88 432.52 336.4 433.87Q337.24 436.01 336.49 440.2Q335.75 444.4 334.23 446.13Q333.27 447.22 332.13 447.49ZM456.46 453.16L436.76 449.68L435.73 455.48L455.43 458.95L456.46 453.16ZM379.98 444.86L360.28 441.39L359.25 447.22L378.95 450.7L379.98 444.86ZM454.67 463.27L434.96 459.8L433.94 465.6L453.64 469.07L454.67 463.27ZM476.22 479.05Q477.14 479.8 478.49 480.04Q479.93 480.29 481.1 479.85Q481.56 479.68 481.98 479.4Q482.74 478.89 483.2 478.19Q483.64 477.51 483.79 476.65Q483.97 475.62 483.7 474.72Q483.49 474.06 483.03 473.47Q482.79 473.15 482.5 472.89Q481.51 472 479.96 471.73Q478.4 471.45 477.16 471.97Q476.82 472.11 476.5 472.31Q475.89 472.7 475.48 473.23Q474.9 473.99 474.71 475.05Q474.56 475.91 474.74 476.7Q474.92 477.51 475.46 478.25Q475.8 478.7 476.22 479.05Z" fill="#FFFFFF" fill-opacity="1.000000" fill-rule="evenodd"/>
	<path id="10 − 4 = ?" d="M318.07 422.54L313.11 450.51L305.2 449.11L309.07 427.25L303.88 426.33L304.96 420.23L318.07 422.54ZM329.56 453.98Q325.96 453.35 323.47 451.14Q320.98 448.93 319.98 445.35Q318.99 441.77 319.79 437.26Q320.59 432.75 322.75 429.73Q324.92 426.71 328.01 425.49Q331.12 424.25 334.72 424.89Q338.27 425.51 340.77 427.74Q343.26 429.95 344.25 433.52Q345.25 437.1 344.45 441.61Q343.65 446.12 341.48 449.14Q339.33 452.16 336.22 453.39Q333.12 454.61 329.56 453.98ZM330.71 447.51Q332.71 447.87 334.23 446.13Q335.75 444.4 336.49 440.2Q337.24 436.01 336.4 433.87Q335.57 431.72 333.57 431.37Q331.53 431.01 330.01 432.74Q328.48 434.46 327.74 438.66Q327 442.86 327.83 445Q328.67 447.15 330.71 447.51ZM360.28 441.39L379.98 444.86L378.95 450.7L359.25 447.22L360.28 441.39ZM419.63 463.77L415.47 463.03L414.52 468.39L406.8 467.03L407.75 461.67L392.97 459.07L393.88 453.91L409.52 438.66L417.71 440.11L403.43 454.44L409.11 455.44L409.95 450.69L417.42 452.01L416.58 456.76L420.74 457.49L419.63 463.77ZM436.76 449.68L456.46 453.16L455.43 458.95L435.73 455.48L436.76 449.68ZM434.96 459.8L454.67 463.27L453.64 469.07L433.94 465.6L434.96 459.8ZM476.79 468.87Q477.15 466.87 478.26 465.72Q479.38 464.57 481.33 463.32Q482.67 462.44 483.36 461.8Q484.06 461.16 484.2 460.32Q484.41 459.16 483.55 458.28Q482.7 457.41 481.15 457.14Q479.55 456.85 478.11 457.39Q476.68 457.92 475.64 459.13L470.24 454.89Q472.38 452.38 475.65 451.35Q478.93 450.32 483.17 451.06Q487.92 451.9 490.47 454.39Q493.02 456.89 492.38 460.45Q492.1 462.08 491.31 463.23Q490.53 464.4 489.59 465.13Q488.67 465.85 487.24 466.7Q485.68 467.63 484.89 468.33Q484.1 469.04 483.91 470.12L476.79 468.87ZM478.49 480.04Q476.53 479.7 475.46 478.25Q474.4 476.81 474.71 475.05Q475.03 473.24 476.5 472.31Q477.96 471.38 479.96 471.73Q481.96 472.08 483.03 473.47Q484.11 474.84 483.79 476.65Q483.48 478.41 481.98 479.4Q480.49 480.39 478.49 480.04Z" stroke="#202027" stroke-opacity="1.000000" stroke-width="0.634167"/>
	<rect id="Frame 2043683095" rx="18.775000" width="239.160004" height="80.013336" transform="translate(286.426758 392.987305) rotate(10.000001)" stroke="#202027" stroke-opacity="1.000000" stroke-width="0.500000"/>
</svg>
