<svg width="623.611328" height="623.096802" viewBox="0 0 623.611 623.097" fill="none" xmlns="http://www.w3.org/2000/svg" xmlns:xlink="http://www.w3.org/1999/xlink">
	<desc>
			Created with Pixso.
	</desc>
	<defs/>
	<rect id="Frame 2043683072" rx="18.775000" width="100.966660" height="100.966667" transform="translate(93.710938 0.263672) rotate(10.000000)" fill="#D9B6FF" fill-opacity="1.000000"/>
	<path id="44" d="M128.6 66.92L132.75 67.65L133.87 61.38L129.71 60.65L130.55 55.9L123.08 54.58L122.23 59.33L116.55 58.33L130.84 43.99L122.65 42.55L107.01 57.8L106.09 62.95L120.88 65.56L119.93 70.92L127.65 72.28L128.6 66.92ZM156.58 71.85L160.73 72.59L161.84 66.31L157.69 65.58L158.53 60.83L151.05 59.51L150.21 64.26L144.53 63.26L158.82 48.93L150.63 47.48L134.99 62.73L134.07 67.89L148.86 70.49L147.91 75.85L155.63 77.21L156.58 71.85Z" fill="#FFFFFF" fill-opacity="1.000000" fill-rule="evenodd"/>
	<path id="44" d="M132.75 67.65L128.6 66.92L127.65 72.28L119.93 70.92L120.88 65.56L106.09 62.95L107.01 57.8L122.65 42.55L130.84 43.99L116.55 58.33L122.23 59.33L123.08 54.58L130.55 55.9L129.71 60.65L133.87 61.38L132.75 67.65ZM160.73 72.59L156.58 71.85L155.63 77.21L147.91 75.85L148.86 70.49L134.07 67.89L134.99 62.73L150.63 47.48L158.82 48.93L144.53 63.26L150.21 64.26L151.05 59.51L158.53 60.83L157.69 65.58L161.84 66.31L160.73 72.59Z" stroke="#202027" stroke-opacity="1.000000" stroke-width="0.634167"/>
	<rect id="Frame 2043683072" rx="18.775000" width="100.966660" height="100.966667" transform="translate(93.710938 0.263672) rotate(10.000000)" stroke="#202027" stroke-opacity="1.000000" stroke-width="0.500000"/>
	<rect id="Frame 2043683060" rx="18.775000" width="100.966660" height="100.966667" transform="translate(201.208008 19.218262) rotate(10.000000)" fill="#D9B6FF" fill-opacity="1.000000"/>
	<path id="6" d="M249.3 76.11Q247.56 75.04 245.4 74.66Q241.87 74.03 239.27 75.31Q238.98 75.45 238.71 75.62Q239.46 72.85 241.27 71.48Q241.48 71.32 241.72 71.17Q242.06 70.96 242.42 70.8Q244.37 69.91 246.93 70.36Q250.06 70.91 251.84 72.7L255.73 67.53Q254.38 66.27 252.32 65.37Q250.25 64.47 247.85 64.04Q243.41 63.26 239.73 64.47Q238.26 64.96 236.97 65.75Q235.06 66.94 233.58 68.81Q231.12 71.94 230.27 76.73Q229.14 83.1 231.68 87.19Q231.8 87.39 231.93 87.58Q232.51 88.43 233.23 89.15Q236.01 91.96 240.78 92.8Q243.86 93.34 246.56 92.61Q248.43 92.1 249.88 91.03Q250.54 90.55 251.11 89.95Q251.62 89.42 252.03 88.81Q253.1 87.24 253.46 85.19Q253.81 83.26 253.38 81.53Q253.23 80.92 252.98 80.34Q252.6 79.41 252.03 78.62Q251.21 77.48 250.03 76.61Q249.67 76.34 249.3 76.11ZM243.7 86.87Q242.64 87.32 241.29 87.08Q239.71 86.8 238.83 85.86Q238.71 85.74 238.61 85.6Q238.28 85.16 238.11 84.67Q237.83 83.84 238.01 82.87Q238.19 81.86 238.76 81.17Q239.08 80.78 239.53 80.5Q239.79 80.33 240.07 80.21Q241.15 79.76 242.51 80Q243.95 80.26 244.81 81.11Q244.97 81.27 245.11 81.45Q245.41 81.83 245.58 82.26Q245.91 83.13 245.72 84.19Q245.52 85.33 244.86 86.06Q244.57 86.37 244.2 86.61Q243.96 86.76 243.7 86.87Z" fill="#FFFFFF" fill-opacity="1.000000" fill-rule="evenodd"/>
	<path id="6" d="M245.4 74.66Q248.03 75.12 250.03 76.61Q252.04 78.09 252.98 80.34Q253.92 82.59 253.46 85.19Q252.96 88.02 251.11 89.95Q249.27 91.87 246.56 92.61Q243.86 93.34 240.78 92.8Q234.78 91.74 231.93 87.58Q229.09 83.4 230.27 76.73Q231.12 71.94 233.58 68.81Q236.06 65.68 239.73 64.47Q243.41 63.26 247.85 64.04Q250.25 64.47 252.32 65.37Q254.38 66.27 255.73 67.53L251.84 72.7Q250.06 70.91 246.93 70.36Q243.9 69.82 241.72 71.17Q239.55 72.52 238.71 75.62Q241.47 73.97 245.4 74.66ZM241.29 87.08Q242.97 87.38 244.2 86.61Q245.43 85.83 245.72 84.19Q246 82.59 245.11 81.45Q244.23 80.31 242.51 80Q240.79 79.7 239.53 80.5Q238.29 81.28 238.01 82.87Q237.73 84.43 238.61 85.6Q239.5 86.77 241.29 87.08Z" stroke="#202027" stroke-opacity="1.000000" stroke-width="0.634167"/>
	<rect id="Frame 2043683060" rx="18.775000" width="100.966660" height="100.966667" transform="translate(201.208008 19.218262) rotate(10.000000)" stroke="#202027" stroke-opacity="1.000000" stroke-width="0.500000"/>
	<rect id="Frame 2043683061" rx="18.775000" width="100.966660" height="100.966667" transform="translate(308.705078 38.172852) rotate(10.000000)" fill="#D9B6FF" fill-opacity="1.000000"/>
	<path id="11" d="M344.2 110.46L349.15 82.49L336.05 80.18L334.96 86.28L340.16 87.2L336.28 109.07L344.2 110.46ZM360.39 113.32L365.34 85.34L352.23 83.03L351.15 89.14L356.34 90.05L352.47 111.92L360.39 113.32Z" fill="#FFFFFF" fill-opacity="1.000000" fill-rule="evenodd"/>
	<path id="11" d="M349.15 82.49L344.2 110.46L336.28 109.07L340.16 87.2L334.96 86.28L336.05 80.18L349.15 82.49ZM365.34 85.34L360.39 113.32L352.47 111.92L356.34 90.05L351.15 89.14L352.23 83.03L365.34 85.34Z" stroke="#202027" stroke-opacity="1.000000" stroke-width="0.634167"/>
	<rect id="Frame 2043683061" rx="18.775000" width="100.966660" height="100.966667" transform="translate(308.705078 38.172852) rotate(10.000000)" stroke="#202027" stroke-opacity="1.000000" stroke-width="0.500000"/>
	<rect id="Frame 2043683123" rx="18.775000" width="100.966660" height="100.966667" transform="translate(416.202148 57.127441) rotate(10.000000)" fill="#D9B6FF" fill-opacity="1.000000"/>
	<path id="48" d="M481.93 122.38Q481.19 120.56 479.47 119.11Q480.81 118.49 481.74 117.49Q481.94 117.29 482.12 117.06Q482.35 116.77 482.55 116.45Q483.22 115.36 483.47 114Q483.73 112.5 483.43 111.12Q483.23 110.26 482.82 109.46Q482.81 109.43 482.79 109.41Q481.73 107.33 479.39 105.91Q477.04 104.45 473.76 103.88Q470.48 103.3 467.76 103.85Q465.09 104.4 463.36 105.97Q463.34 106 463.31 106.02Q462.67 106.62 462.2 107.35Q461.43 108.54 461.16 110.07Q460.92 111.43 461.18 112.69Q461.25 113.05 461.37 113.4Q461.46 113.67 461.58 113.94Q462.12 115.19 463.16 116.23Q461.05 117.01 459.71 118.46Q459.42 118.78 459.17 119.14Q458.3 120.39 458.01 122.04Q457.72 123.7 458.07 125.22Q458.27 126.11 458.7 126.95Q459.87 129.21 462.43 130.78Q465 132.34 468.6 132.97Q472.2 133.61 475.15 133.02Q478.1 132.42 479.96 130.7Q480.67 130.05 481.18 129.26Q482.02 127.97 482.31 126.32Q482.6 124.7 482.22 123.24Q482.11 122.8 481.93 122.38ZM451.51 123.86L455.67 124.59L456.78 118.32L452.62 117.59L453.46 112.83L445.99 111.52L445.14 116.27L439.47 115.27L453.75 100.93L445.56 99.49L429.92 114.74L429.01 119.89L443.79 122.5L442.84 127.85L450.56 129.22L451.51 123.86ZM470.48 109.67Q471.47 109.21 472.77 109.44Q474.21 109.69 474.98 110.54Q475.03 110.6 475.07 110.65Q475.3 110.93 475.44 111.25Q475.78 112 475.6 112.99Q475.44 113.89 474.92 114.46Q474.66 114.75 474.31 114.96Q474.25 114.99 474.19 115.03Q473.17 115.56 471.73 115.31Q470.28 115.06 469.53 114.19Q469.49 114.15 469.45 114.1Q469.21 113.81 469.07 113.47Q468.77 112.74 468.93 111.81Q469.1 110.83 469.68 110.23Q469.92 109.98 470.23 109.79Q470.35 109.72 470.48 109.67ZM472.81 127.02Q471.51 127.76 469.59 127.42Q467.66 127.08 466.69 125.94Q466.31 125.49 466.12 124.96Q465.84 124.17 466.01 123.21Q466.18 122.22 466.74 121.56Q467.09 121.15 467.59 120.87L467.6 120.86Q468.9 120.12 470.82 120.46Q472.74 120.8 473.7 121.95L473.71 121.95Q474.09 122.39 474.28 122.91Q474.57 123.71 474.4 124.69Q474.23 125.63 473.7 126.28Q473.34 126.72 472.81 127.02Z" fill="#FFFFFF" fill-opacity="1.000000" fill-rule="evenodd"/>
	<path id="48" d="M455.67 124.59L451.51 123.86L450.56 129.22L442.84 127.85L443.79 122.5L429.01 119.89L429.92 114.74L445.56 99.49L453.75 100.93L439.47 115.27L445.14 116.27L445.99 111.52L453.46 112.83L452.62 117.59L456.78 118.32L455.67 124.59ZM479.47 119.11Q481.19 120.56 481.93 122.38Q482.68 124.2 482.31 126.32Q481.84 128.97 479.96 130.7Q478.1 132.42 475.15 133.02Q472.2 133.61 468.6 132.97Q465 132.34 462.43 130.78Q459.87 129.21 458.7 126.95Q457.54 124.68 458.01 122.04Q458.39 119.92 459.71 118.46Q461.05 117.01 463.16 116.23Q461.9 114.98 461.37 113.4Q460.85 111.82 461.16 110.07Q461.59 107.63 463.31 106.02Q465.05 104.4 467.76 103.85Q470.48 103.3 473.76 103.88Q477.04 104.45 479.39 105.91Q481.76 107.35 482.82 109.46Q483.9 111.56 483.47 114Q483.15 115.76 482.12 117.06Q481.08 118.36 479.47 119.11ZM472.77 109.44Q471.3 109.18 470.23 109.79Q469.18 110.41 468.93 111.81Q468.69 113.16 469.45 114.1Q470.21 115.04 471.73 115.31Q473.25 115.58 474.31 114.96Q475.36 114.34 475.6 112.99Q475.85 111.59 475.07 110.65Q474.29 109.71 472.77 109.44ZM469.59 127.42Q471.51 127.76 472.81 127.02Q474.12 126.28 474.4 124.69Q474.68 123.09 473.71 121.95Q472.74 120.8 470.82 120.46Q468.9 120.12 467.59 120.87Q466.29 121.61 466.01 123.21Q465.72 124.8 466.69 125.94Q467.66 127.08 469.59 127.42Z" stroke="#202027" stroke-opacity="1.000000" stroke-width="0.634167"/>
	<rect id="Frame 2043683123" rx="18.775000" width="100.966660" height="100.966667" transform="translate(416.202148 57.127441) rotate(10.000000)" stroke="#202027" stroke-opacity="1.000000" stroke-width="0.500000"/>
	<rect id="Frame 2043683063" rx="18.775000" width="100.966660" height="100.966667" transform="translate(523.699219 76.082031) rotate(10.000000)" fill="#D9B6FF" fill-opacity="1.000000"/>
	<path id="48" d="M589.43 141.34Q588.68 139.51 586.97 138.06Q588.3 137.44 589.24 136.45Q589.44 136.24 589.62 136.02Q589.85 135.72 590.04 135.41Q590.72 134.32 590.96 132.95Q591.23 131.45 590.92 130.07Q590.73 129.22 590.32 128.41Q590.3 128.39 590.29 128.36Q589.22 126.29 586.89 124.86Q584.53 123.41 581.25 122.83Q577.97 122.25 575.26 122.81Q572.58 123.35 570.86 124.93Q570.84 124.95 570.81 124.97Q570.16 125.58 569.7 126.3Q568.92 127.5 568.65 129.02Q568.41 130.38 568.68 131.64Q568.75 132 568.87 132.36Q568.96 132.63 569.07 132.89Q569.61 134.15 570.65 135.19Q568.54 135.96 567.21 137.42Q566.92 137.74 566.67 138.09Q565.8 139.34 565.51 140.99Q565.21 142.66 565.56 144.17Q565.77 145.06 566.2 145.9Q567.37 148.16 569.93 149.73Q572.5 151.29 576.1 151.92Q579.7 152.56 582.64 151.97Q585.6 151.38 587.46 149.65Q588.17 149 588.68 148.22Q589.51 146.92 589.81 145.28Q590.09 143.65 589.72 142.2Q589.6 141.76 589.43 141.34ZM559.01 142.81L563.16 143.55L564.27 137.27L560.12 136.54L560.96 131.79L553.48 130.47L552.64 135.22L546.96 134.22L561.25 119.89L553.06 118.44L537.42 133.69L536.5 138.85L551.29 141.45L550.34 146.81L558.06 148.17L559.01 142.81ZM577.98 128.62Q578.96 128.16 580.27 128.39Q581.71 128.64 582.48 129.5Q582.53 129.55 582.57 129.6Q582.8 129.88 582.94 130.2Q583.28 130.96 583.1 131.94Q582.94 132.84 582.42 133.42Q582.16 133.71 581.81 133.91Q581.75 133.95 581.69 133.98Q580.67 134.52 579.23 134.27Q577.78 134.01 577.02 133.15Q576.98 133.1 576.95 133.06Q576.71 132.76 576.57 132.43Q576.26 131.69 576.43 130.76Q576.6 129.78 577.18 129.18Q577.42 128.93 577.73 128.75Q577.85 128.68 577.98 128.62ZM580.3 145.98Q579.01 146.71 577.08 146.37Q575.16 146.03 574.19 144.9Q573.8 144.44 573.62 143.92Q573.33 143.12 573.5 142.16Q573.68 141.17 574.24 140.51Q574.59 140.11 575.08 139.82L575.09 139.82Q576.4 139.08 578.32 139.42Q580.24 139.75 581.2 140.9L581.2 140.9Q581.58 141.35 581.77 141.86Q582.07 142.67 581.89 143.64Q581.73 144.59 581.19 145.24Q580.83 145.67 580.3 145.98Z" fill="#FFFFFF" fill-opacity="1.000000" fill-rule="evenodd"/>
	<path id="48" d="M563.16 143.55L559.01 142.81L558.06 148.17L550.34 146.81L551.29 141.45L536.5 138.85L537.42 133.69L553.06 118.44L561.25 119.89L546.96 134.22L552.64 135.22L553.48 130.47L560.96 131.79L560.12 136.54L564.27 137.27L563.16 143.55ZM586.97 138.06Q588.68 139.51 589.43 141.34Q590.18 143.16 589.81 145.28Q589.34 147.92 587.46 149.65Q585.6 151.38 582.64 151.97Q579.7 152.56 576.1 151.92Q572.5 151.29 569.93 149.73Q567.37 148.16 566.2 145.9Q565.04 143.64 565.51 140.99Q565.88 138.87 567.21 137.42Q568.54 135.96 570.65 135.19Q569.4 133.93 568.87 132.36Q568.34 130.78 568.65 129.02Q569.09 126.58 570.81 124.97Q572.55 123.36 575.26 122.81Q577.97 122.25 581.25 122.83Q584.53 123.41 586.89 124.86Q589.25 126.3 590.32 128.41Q591.39 130.51 590.96 132.95Q590.65 134.71 589.62 136.02Q588.58 137.31 586.97 138.06ZM580.27 128.39Q578.8 128.13 577.73 128.75Q576.67 129.37 576.43 130.76Q576.19 132.12 576.95 133.06Q577.71 134 579.23 134.27Q580.75 134.53 581.81 133.91Q582.86 133.3 583.1 131.94Q583.35 130.54 582.57 129.6Q581.79 128.66 580.27 128.39ZM577.08 146.37Q579.01 146.71 580.3 145.98Q581.61 145.23 581.89 143.64Q582.18 142.04 581.2 140.9Q580.24 139.75 578.32 139.42Q576.39 139.08 575.08 139.82Q573.79 140.56 573.5 142.16Q573.22 143.75 574.19 144.9Q575.16 146.03 577.08 146.37Z" stroke="#202027" stroke-opacity="1.000000" stroke-width="0.634167"/>
	<rect id="Frame 2043683063" rx="18.775000" width="100.966660" height="100.966667" transform="translate(523.699219 76.082031) rotate(10.000000)" stroke="#202027" stroke-opacity="1.000000" stroke-width="0.500000"/>
	<rect id="Frame 2043683124" rx="18.775000" width="100.966660" height="100.966667" transform="translate(74.770508 107.683228) rotate(10.000000)" fill="#D9B6FF" fill-opacity="1.000000"/>
	<path id="44" d="M109.66 174.34L113.81 175.07L114.92 168.8L110.77 168.07L111.61 163.32L104.13 162L103.29 166.75L97.61 165.75L111.9 151.41L103.71 149.97L88.07 165.22L87.15 170.37L101.94 172.98L100.99 178.34L108.71 179.7L109.66 174.34ZM137.64 179.27L141.79 180.01L142.9 173.73L138.75 173L139.59 168.25L132.11 166.93L131.27 171.68L125.59 170.68L139.87 156.35L131.69 154.9L116.04 170.15L115.13 175.31L129.92 177.91L128.97 183.27L136.69 184.63L137.64 179.27Z" fill="#FFFFFF" fill-opacity="1.000000" fill-rule="evenodd"/>
	<path id="44" d="M113.81 175.07L109.66 174.34L108.71 179.7L100.99 178.34L101.94 172.98L87.15 170.37L88.07 165.22L103.71 149.97L111.9 151.41L97.61 165.75L103.29 166.75L104.13 162L111.61 163.32L110.77 168.07L114.92 168.8L113.81 175.07ZM141.79 180.01L137.64 179.27L136.69 184.63L128.97 183.27L129.92 177.91L115.13 175.31L116.04 170.15L131.69 154.9L139.87 156.35L125.59 170.68L131.27 171.68L132.11 166.93L139.59 168.25L138.75 173L142.9 173.73L141.79 180.01Z" stroke="#202027" stroke-opacity="1.000000" stroke-width="0.634167"/>
	<rect id="Frame 2043683124" rx="18.775000" width="100.966660" height="100.966667" transform="translate(74.770508 107.683228) rotate(10.000000)" stroke="#202027" stroke-opacity="1.000000" stroke-width="0.500000"/>
	<rect id="Frame 2043683125" rx="18.775000" width="100.966660" height="100.966667" transform="translate(182.267578 126.637817) rotate(10.000000)" fill="#D9B6FF" fill-opacity="1.000000"/>
	<path id="6" d="M230.36 183.53Q228.62 182.46 226.46 182.08Q222.93 181.45 220.33 182.73Q220.04 182.87 219.77 183.04Q220.52 180.27 222.32 178.9Q222.54 178.74 222.78 178.59Q223.12 178.38 223.48 178.22Q225.43 177.33 227.99 177.78Q231.12 178.33 232.9 180.12L236.79 174.95Q235.44 173.69 233.37 172.79Q231.31 171.89 228.91 171.46Q224.47 170.68 220.79 171.89Q219.32 172.38 218.03 173.17Q216.12 174.36 214.64 176.23Q212.18 179.36 211.33 184.15Q210.2 190.52 212.74 194.61Q212.86 194.81 212.99 195Q213.57 195.85 214.29 196.57Q217.07 199.38 221.83 200.22Q224.92 200.76 227.62 200.03Q229.49 199.52 230.94 198.45Q231.6 197.97 232.17 197.37Q232.68 196.84 233.09 196.23Q234.16 194.66 234.52 192.61Q234.87 190.68 234.44 188.95Q234.29 188.34 234.04 187.76Q233.66 186.83 233.09 186.04Q232.27 184.9 231.09 184.03Q230.73 183.76 230.36 183.53ZM224.76 194.29Q223.7 194.74 222.35 194.5Q220.77 194.22 219.89 193.28Q219.77 193.16 219.67 193.02Q219.34 192.58 219.17 192.09Q218.89 191.26 219.06 190.29Q219.24 189.28 219.82 188.59Q220.14 188.2 220.59 187.92Q220.85 187.75 221.13 187.63Q222.21 187.18 223.57 187.42Q225.01 187.68 225.87 188.53Q226.03 188.69 226.17 188.87Q226.47 189.25 226.64 189.68Q226.97 190.55 226.78 191.61Q226.58 192.75 225.92 193.48Q225.63 193.79 225.26 194.03Q225.02 194.18 224.76 194.29Z" fill="#FFFFFF" fill-opacity="1.000000" fill-rule="evenodd"/>
	<path id="6" d="M226.46 182.08Q229.09 182.54 231.09 184.03Q233.1 185.51 234.04 187.76Q234.98 190.01 234.52 192.61Q234.02 195.44 232.17 197.37Q230.33 199.29 227.62 200.03Q224.92 200.76 221.83 200.22Q215.84 199.16 212.99 195Q210.15 190.82 211.33 184.15Q212.18 179.36 214.64 176.23Q217.12 173.1 220.79 171.89Q224.47 170.68 228.91 171.46Q231.31 171.89 233.37 172.79Q235.44 173.69 236.79 174.95L232.9 180.12Q231.12 178.33 227.99 177.78Q224.96 177.24 222.78 178.59Q220.61 179.94 219.77 183.04Q222.53 181.39 226.46 182.08ZM222.35 194.5Q224.03 194.8 225.26 194.03Q226.49 193.25 226.78 191.61Q227.06 190.01 226.17 188.87Q225.29 187.73 223.57 187.42Q221.85 187.12 220.59 187.92Q219.35 188.7 219.06 190.29Q218.79 191.85 219.67 193.02Q220.56 194.19 222.35 194.5Z" stroke="#202027" stroke-opacity="1.000000" stroke-width="0.634167"/>
	<rect id="Frame 2043683125" rx="18.775000" width="100.966660" height="100.966667" transform="translate(182.267578 126.637817) rotate(10.000000)" stroke="#202027" stroke-opacity="1.000000" stroke-width="0.500000"/>
	<rect id="Frame 2043683126" rx="18.775000" width="100.966660" height="100.966667" transform="translate(289.763672 145.592407) rotate(10.000000)" fill="#D9B6FF" fill-opacity="1.000000"/>
	<path id="11" d="M325.26 217.88L330.21 189.91L317.1 187.6L316.02 193.7L321.21 194.62L317.34 216.49L325.26 217.88ZM341.44 220.74L346.4 192.76L333.29 190.45L332.21 196.56L337.4 197.47L333.53 219.34L341.44 220.74Z" fill="#FFFFFF" fill-opacity="1.000000" fill-rule="evenodd"/>
	<path id="11" d="M330.21 189.91L325.26 217.88L317.34 216.49L321.21 194.62L316.02 193.7L317.1 187.6L330.21 189.91ZM346.4 192.76L341.44 220.74L333.53 219.34L337.4 197.47L332.21 196.56L333.29 190.45L346.4 192.76Z" stroke="#202027" stroke-opacity="1.000000" stroke-width="0.634167"/>
	<rect id="Frame 2043683126" rx="18.775000" width="100.966660" height="100.966667" transform="translate(289.763672 145.592407) rotate(10.000000)" stroke="#202027" stroke-opacity="1.000000" stroke-width="0.500000"/>
	<rect id="Frame 2043683127" rx="18.775000" width="100.966660" height="100.966667" transform="translate(397.260742 164.546997) rotate(10.000000)" fill="#D9B6FF" fill-opacity="1.000000"/>
	<path id="48" d="M462.99 229.8Q462.25 227.98 460.53 226.53Q461.86 225.91 462.8 224.91Q463 224.7 463.18 224.48Q463.41 224.19 463.6 223.87Q464.28 222.78 464.52 221.42Q464.79 219.91 464.48 218.54Q464.29 217.68 463.88 216.88Q463.87 216.85 463.85 216.83Q462.78 214.75 460.45 213.33Q458.09 211.87 454.82 211.29Q451.54 210.72 448.82 211.27Q446.15 211.81 444.42 213.39Q444.4 213.42 444.37 213.44Q443.72 214.04 443.26 214.77Q442.49 215.96 442.22 217.49Q441.98 218.85 442.24 220.11Q442.31 220.47 442.43 220.82Q442.52 221.09 442.63 221.36Q443.17 222.61 444.21 223.65Q442.1 224.43 440.77 225.88Q440.48 226.2 440.23 226.56Q439.36 227.81 439.07 229.46Q438.77 231.12 439.13 232.64Q439.33 233.53 439.76 234.37Q440.93 236.63 443.49 238.2Q446.06 239.76 449.66 240.39Q453.26 241.03 456.2 240.44Q459.16 239.84 461.02 238.12Q461.73 237.47 462.24 236.68Q463.08 235.39 463.37 233.74Q463.66 232.12 463.28 230.66Q463.16 230.22 462.99 229.8ZM432.57 231.28L436.72 232.01L437.84 225.74L433.68 225L434.52 220.25L427.04 218.94L426.2 223.69L420.52 222.69L434.81 208.35L426.62 206.91L410.98 222.16L410.06 227.31L424.85 229.92L423.9 235.27L431.62 236.64L432.57 231.28ZM451.54 217.09Q452.52 216.63 453.83 216.86Q455.27 217.11 456.04 217.96Q456.09 218.01 456.13 218.07Q456.36 218.35 456.5 218.67Q456.84 219.42 456.66 220.4Q456.5 221.31 455.98 221.88Q455.72 222.17 455.37 222.38Q455.31 222.41 455.25 222.45Q454.23 222.98 452.79 222.73Q451.34 222.47 450.58 221.61Q450.55 221.57 450.51 221.52Q450.27 221.23 450.13 220.89Q449.82 220.16 449.99 219.23Q450.16 218.25 450.74 217.65Q450.98 217.4 451.29 217.21Q451.41 217.14 451.54 217.09ZM453.87 234.44Q452.57 235.18 450.65 234.84Q448.72 234.5 447.75 233.36Q447.37 232.91 447.18 232.38Q446.89 231.59 447.06 230.63Q447.24 229.64 447.8 228.98Q448.15 228.57 448.65 228.29L448.65 228.28Q449.96 227.54 451.88 227.88Q453.8 228.22 454.76 229.36L454.76 229.37Q455.15 229.81 455.33 230.33Q455.63 231.13 455.46 232.1Q455.29 233.05 454.76 233.7Q454.39 234.14 453.87 234.44Z" fill="#FFFFFF" fill-opacity="1.000000" fill-rule="evenodd"/>
	<path id="48" d="M436.72 232.01L432.57 231.28L431.62 236.64L423.9 235.27L424.85 229.92L410.06 227.31L410.98 222.16L426.62 206.91L434.81 208.35L420.52 222.69L426.2 223.69L427.04 218.94L434.52 220.25L433.68 225L437.84 225.74L436.72 232.01ZM460.53 226.53Q462.25 227.98 462.99 229.8Q463.74 231.62 463.37 233.74Q462.9 236.39 461.02 238.12Q459.16 239.84 456.2 240.44Q453.26 241.03 449.66 240.39Q446.06 239.76 443.49 238.2Q440.93 236.63 439.76 234.37Q438.6 232.1 439.07 229.46Q439.44 227.34 440.77 225.88Q442.1 224.43 444.21 223.65Q442.96 222.39 442.43 220.82Q441.91 219.24 442.22 217.49Q442.65 215.05 444.37 213.44Q446.11 211.82 448.82 211.27Q451.54 210.72 454.82 211.29Q458.09 211.87 460.45 213.33Q462.81 214.77 463.88 216.88Q464.96 218.98 464.52 221.42Q464.21 223.17 463.18 224.48Q462.14 225.78 460.53 226.53ZM453.83 216.86Q452.36 216.6 451.29 217.21Q450.24 217.83 449.99 219.23Q449.75 220.58 450.51 221.52Q451.27 222.46 452.79 222.73Q454.31 223 455.37 222.38Q456.42 221.76 456.66 220.4Q456.91 219.01 456.13 218.07Q455.35 217.12 453.83 216.86ZM450.65 234.84Q452.57 235.18 453.87 234.44Q455.17 233.7 455.46 232.1Q455.74 230.5 454.76 229.37Q453.8 228.22 451.88 227.88Q449.95 227.54 448.65 228.29Q447.35 229.02 447.06 230.63Q446.78 232.22 447.75 233.36Q448.72 234.5 450.65 234.84Z" stroke="#202027" stroke-opacity="1.000000" stroke-width="0.634167"/>
	<rect id="Frame 2043683127" rx="18.775000" width="100.966660" height="100.966667" transform="translate(397.260742 164.546997) rotate(10.000000)" stroke="#202027" stroke-opacity="1.000000" stroke-width="0.500000"/>
	<rect id="Frame 2043683128" rx="18.775000" width="100.966660" height="100.966667" transform="translate(504.757812 183.501709) rotate(10.000000)" fill="#D9B6FF" fill-opacity="1.000000"/>
	<path id="48" d="M570.49 248.76Q569.74 246.93 568.03 245.48Q569.36 244.86 570.3 243.87Q570.5 243.66 570.67 243.44Q570.91 243.14 571.1 242.83Q571.78 241.74 572.02 240.37Q572.29 238.87 571.98 237.49Q571.79 236.64 571.38 235.83Q571.36 235.81 571.35 235.78Q570.28 233.7 567.95 232.28Q565.59 230.83 562.31 230.25Q559.03 229.67 556.32 230.23Q553.64 230.77 551.92 232.35Q551.89 232.37 551.87 232.39Q551.22 233 550.76 233.72Q549.98 234.92 549.71 236.44Q549.47 237.8 549.73 239.06Q549.81 239.42 549.93 239.78Q550.02 240.05 550.13 240.31Q550.67 241.57 551.71 242.61Q549.6 243.38 548.27 244.84Q547.97 245.16 547.73 245.51Q546.86 246.76 546.57 248.41Q546.27 250.08 546.62 251.59Q546.83 252.48 547.26 253.32Q548.43 255.58 550.99 257.15Q553.56 258.71 557.16 259.34Q560.76 259.98 563.7 259.39Q566.65 258.79 568.52 257.07Q569.23 256.42 569.73 255.64Q570.57 254.34 570.87 252.7Q571.15 251.07 570.78 249.62Q570.66 249.18 570.49 248.76ZM540.06 250.23L544.22 250.97L545.33 244.69L541.18 243.96L542.02 239.21L534.54 237.89L533.7 242.64L528.02 241.64L542.3 227.31L534.12 225.86L518.47 241.11L517.56 246.27L532.34 248.87L531.4 254.23L539.12 255.59L540.06 250.23ZM559.03 236.04Q560.02 235.58 561.33 235.81Q562.76 236.06 563.54 236.92Q563.59 236.97 563.63 237.02Q563.86 237.3 564 237.62Q564.33 238.38 564.16 239.36Q564 240.26 563.48 240.84Q563.22 241.13 562.86 241.33Q562.81 241.37 562.75 241.4Q561.72 241.94 560.29 241.68Q558.84 241.43 558.08 240.57Q558.04 240.52 558.01 240.48Q557.77 240.18 557.63 239.85Q557.32 239.11 557.49 238.18Q557.66 237.2 558.23 236.6Q558.48 236.35 558.79 236.17Q558.91 236.1 559.03 236.04ZM561.36 253.4Q560.06 254.13 558.14 253.79Q556.22 253.45 555.24 252.32Q554.86 251.86 554.68 251.34Q554.39 250.54 554.56 249.58Q554.74 248.59 555.3 247.93Q555.65 247.53 556.14 247.24L556.15 247.24Q557.46 246.5 559.37 246.84Q561.3 247.18 562.26 248.32L562.26 248.32Q562.64 248.77 562.83 249.28Q563.13 250.09 562.95 251.06Q562.78 252.01 562.25 252.66Q561.89 253.09 561.36 253.4Z" fill="#FFFFFF" fill-opacity="1.000000" fill-rule="evenodd"/>
	<path id="48" d="M544.22 250.97L540.06 250.23L539.12 255.59L531.4 254.23L532.34 248.87L517.56 246.27L518.47 241.11L534.12 225.86L542.3 227.31L528.02 241.64L533.7 242.64L534.54 237.89L542.02 239.21L541.18 243.96L545.33 244.69L544.22 250.97ZM568.03 245.48Q569.74 246.93 570.49 248.76Q571.24 250.58 570.87 252.7Q570.4 255.34 568.52 257.07Q566.65 258.79 563.7 259.39Q560.76 259.98 557.16 259.34Q553.56 258.71 550.99 257.15Q548.43 255.58 547.26 253.32Q546.1 251.06 546.57 248.41Q546.94 246.29 548.27 244.84Q549.6 243.38 551.71 242.61Q550.45 241.35 549.93 239.78Q549.4 238.2 549.71 236.44Q550.15 234 551.87 232.39Q553.6 230.78 556.32 230.23Q559.03 229.67 562.31 230.25Q565.59 230.83 567.95 232.28Q570.31 233.72 571.38 235.83Q572.45 237.93 572.02 240.37Q571.71 242.13 570.67 243.44Q569.64 244.73 568.03 245.48ZM561.33 235.81Q559.85 235.55 558.79 236.17Q557.73 236.79 557.49 238.18Q557.25 239.54 558.01 240.48Q558.76 241.42 560.29 241.68Q561.81 241.95 562.86 241.33Q563.92 240.72 564.16 239.36Q564.41 237.96 563.63 237.02Q562.85 236.08 561.33 235.81ZM558.14 253.79Q560.06 254.13 561.36 253.4Q562.67 252.65 562.95 251.06Q563.24 249.46 562.26 248.32Q561.3 247.18 559.37 246.84Q557.45 246.5 556.14 247.24Q554.84 247.98 554.56 249.58Q554.28 251.17 555.24 252.32Q556.22 253.45 558.14 253.79Z" stroke="#202027" stroke-opacity="1.000000" stroke-width="0.634167"/>
	<rect id="Frame 2043683128" rx="18.775000" width="100.966660" height="100.966667" transform="translate(504.757812 183.501709) rotate(10.000000)" stroke="#202027" stroke-opacity="1.000000" stroke-width="0.500000"/>
	<rect id="Frame 2043683073" rx="18.775000" width="100.966660" height="100.966667" transform="translate(55.829102 215.102783) rotate(10.000000)" fill="#D9B6FF" fill-opacity="1.000000"/>
	<path id="66" d="M90.95 269.71Q89.21 268.64 87.05 268.25Q83.52 267.63 80.92 268.91Q80.63 269.05 80.36 269.22Q81.11 266.45 82.92 265.08Q83.13 264.91 83.37 264.77Q83.71 264.56 84.07 264.39Q86.02 263.51 88.58 263.96Q91.71 264.51 93.49 266.3L97.38 261.13Q96.03 259.87 93.97 258.97Q91.9 258.06 89.5 257.64Q85.06 256.86 81.39 258.07Q79.91 258.55 78.62 259.35Q76.71 260.53 75.23 262.41Q72.77 265.54 71.92 270.33Q70.79 276.7 73.33 280.79Q73.45 280.99 73.58 281.17Q74.17 282.03 74.88 282.75Q77.66 285.56 82.43 286.4Q85.51 286.94 88.22 286.21Q90.08 285.7 91.53 284.63Q92.19 284.15 92.76 283.55Q93.28 283.01 93.69 282.41Q94.75 280.83 95.12 278.78Q95.46 276.86 95.03 275.13Q94.88 274.52 94.64 273.94Q94.25 273.01 93.68 272.21Q92.86 271.08 91.68 270.21Q91.33 269.94 90.95 269.71ZM116.89 274.28Q115.15 273.21 112.99 272.83Q109.46 272.21 106.87 273.48Q106.58 273.63 106.3 273.79Q107.05 271.02 108.86 269.65Q109.08 269.49 109.31 269.34Q109.65 269.13 110.01 268.97Q111.97 268.08 114.53 268.53Q117.65 269.08 119.43 270.88L123.32 265.71Q121.97 264.44 119.91 263.54Q117.84 262.64 115.44 262.21Q111 261.43 107.33 262.64Q105.85 263.13 104.57 263.92Q102.66 265.11 101.17 266.98Q98.71 270.11 97.86 274.9Q96.73 281.27 99.27 285.37Q99.39 285.56 99.52 285.75Q100.11 286.6 100.82 287.33Q103.61 290.13 108.37 290.97Q111.45 291.51 114.16 290.78Q116.02 290.27 117.47 289.2Q118.13 288.72 118.7 288.12Q119.22 287.59 119.63 286.98Q120.69 285.41 121.06 283.36Q121.4 281.43 120.97 279.7Q120.82 279.09 120.58 278.51Q120.19 277.59 119.62 276.79Q118.81 275.65 117.62 274.78Q117.27 274.52 116.89 274.28ZM85.35 280.47Q84.29 280.92 82.95 280.68Q81.36 280.4 80.48 279.46Q80.36 279.34 80.26 279.2Q79.93 278.76 79.76 278.26Q79.48 277.44 79.66 276.47Q79.84 275.45 80.41 274.76Q80.73 274.38 81.18 274.09Q81.44 273.93 81.72 273.81Q82.8 273.36 84.16 273.6Q85.6 273.85 86.46 274.7Q86.62 274.86 86.76 275.05Q87.06 275.43 87.23 275.86Q87.56 276.72 87.37 277.79Q87.17 278.93 86.51 279.66Q86.22 279.97 85.85 280.21Q85.61 280.36 85.35 280.47ZM111.29 285.04Q110.24 285.49 108.89 285.26Q107.3 284.98 106.42 284.04Q106.3 283.91 106.2 283.78Q105.87 283.33 105.7 282.84Q105.42 282.02 105.6 281.04Q105.78 280.03 106.35 279.34Q106.68 278.95 107.13 278.67Q107.39 278.5 107.67 278.39Q108.74 277.94 110.1 278.18Q111.54 278.43 112.4 279.28Q112.56 279.44 112.7 279.62Q113 280 113.17 280.43Q113.5 281.3 113.31 282.36Q113.11 283.51 112.45 284.23Q112.16 284.54 111.79 284.78Q111.55 284.93 111.29 285.04Z" fill="#FFFFFF" fill-opacity="1.000000" fill-rule="evenodd"/>
	<path id="66" d="M87.05 268.25Q89.68 268.72 91.68 270.21Q93.7 271.69 94.64 273.94Q95.58 276.19 95.12 278.78Q94.61 281.62 92.76 283.55Q90.92 285.47 88.22 286.21Q85.51 286.94 82.43 286.4Q76.43 285.34 73.58 281.17Q70.74 277 71.92 270.33Q72.77 265.54 75.23 262.41Q77.71 259.27 81.39 258.07Q85.06 256.86 89.5 257.64Q91.9 258.06 93.97 258.97Q96.03 259.87 97.38 261.13L93.49 266.3Q91.71 264.51 88.58 263.96Q85.55 263.42 83.37 264.77Q81.2 266.12 80.36 269.22Q83.13 267.56 87.05 268.25ZM82.95 280.68Q84.62 280.98 85.85 280.21Q87.08 279.43 87.37 277.79Q87.66 276.19 86.76 275.05Q85.88 273.9 84.16 273.6Q82.44 273.3 81.18 274.09Q79.94 274.88 79.66 276.47Q79.38 278.03 80.26 279.2Q81.15 280.37 82.95 280.68ZM112.99 272.83Q115.62 273.29 117.62 274.78Q119.64 276.26 120.58 278.51Q121.52 280.76 121.06 283.36Q120.55 286.2 118.7 288.12Q116.86 290.04 114.16 290.78Q111.45 291.51 108.37 290.97Q102.38 289.91 99.52 285.75Q96.68 281.57 97.86 274.9Q98.71 270.11 101.17 266.98Q103.65 263.85 107.33 262.64Q111 261.43 115.44 262.21Q117.84 262.64 119.91 263.54Q121.97 264.44 123.32 265.71L119.43 270.88Q117.65 269.08 114.53 268.53Q111.49 268 109.31 269.34Q107.14 270.69 106.3 273.79Q109.07 272.14 112.99 272.83ZM108.89 285.26Q110.56 285.55 111.79 284.78Q113.02 284 113.31 282.36Q113.6 280.76 112.7 279.62Q111.82 278.48 110.1 278.18Q108.38 277.87 107.13 278.67Q105.88 279.45 105.6 281.04Q105.32 282.6 106.2 283.78Q107.09 284.94 108.89 285.26Z" stroke="#202027" stroke-opacity="1.000000" stroke-width="0.634167"/>
	<rect id="Frame 2043683073" rx="18.775000" width="100.966660" height="100.966667" transform="translate(55.829102 215.102783) rotate(10.000000)" stroke="#202027" stroke-opacity="1.000000" stroke-width="0.500000"/>
	<rect id="Frame 2043683064" rx="18.775000" width="100.966660" height="100.966667" transform="translate(163.326172 234.057373) rotate(10.000000)" fill="#D9B6FF" fill-opacity="1.000000"/>
	<path id="2" d="M212.67 308.79L213.78 302.51L202.99 300.61L209.13 296.66Q212.38 294.6 213.72 292.75Q214.29 291.95 214.7 291.07Q215.22 289.92 215.45 288.63Q215.77 286.86 215.37 285.27Q215.19 284.56 214.87 283.89Q214.73 283.59 214.57 283.31Q213.53 281.51 211.56 280.24Q209.29 278.76 206.09 278.2Q202.06 277.49 198.82 278.52Q196.6 279.24 194.91 280.6Q194.13 281.22 193.46 281.99L198.77 286.3Q199.55 285.45 200.52 284.97Q200.88 284.8 201.26 284.67Q201.64 284.54 202.04 284.47Q203.1 284.27 204.24 284.47Q206 284.78 206.78 285.7Q207.03 285.99 207.17 286.32Q207.49 287.04 207.33 287.98Q207.32 288.02 207.31 288.06Q207.12 289.05 206.44 289.95Q205.75 290.87 203.97 292.05L191.76 299.99L190.89 304.95L212.67 308.79Z" fill="#FFFFFF" fill-opacity="1.000000" fill-rule="evenodd"/>
	<path id="2" d="M213.78 302.51L212.67 308.79L190.89 304.95L191.76 299.99L203.97 292.05Q205.75 290.87 206.44 289.95Q207.14 289.02 207.33 287.98Q207.57 286.62 206.78 285.7Q206 284.78 204.24 284.47Q202.68 284.2 201.26 284.67Q199.84 285.13 198.77 286.3L193.46 281.99Q195.58 279.56 198.82 278.52Q202.06 277.49 206.09 278.2Q209.29 278.76 211.56 280.24Q213.84 281.71 214.87 283.89Q215.9 286.07 215.45 288.63Q215.05 290.91 213.72 292.75Q212.38 294.6 209.13 296.66L202.99 300.61L213.78 302.51Z" stroke="#202027" stroke-opacity="1.000000" stroke-width="0.634167"/>
	<rect id="Frame 2043683064" rx="18.775000" width="100.966660" height="100.966667" transform="translate(163.326172 234.057373) rotate(10.000000)" stroke="#202027" stroke-opacity="1.000000" stroke-width="0.500000"/>
	<rect id="Frame 2043683075" rx="18.775000" width="100.966660" height="100.966667" transform="translate(270.823242 253.011963) rotate(10.000000)" fill="#D9B6FF" fill-opacity="1.000000"/>
	<path id="11" d="M306.32 325.3L311.27 297.33L298.16 295.02L297.08 301.12L302.27 302.04L298.4 323.9L306.32 325.3ZM322.5 328.15L327.46 300.18L314.35 297.87L313.27 303.98L318.46 304.89L314.59 326.76L322.5 328.15Z" fill="#FFFFFF" fill-opacity="1.000000" fill-rule="evenodd"/>
	<path id="11" d="M311.27 297.33L306.32 325.3L298.4 323.9L302.27 302.04L297.08 301.12L298.16 295.02L311.27 297.33ZM327.46 300.18L322.5 328.15L314.59 326.76L318.46 304.89L313.27 303.98L314.35 297.87L327.46 300.18Z" stroke="#202027" stroke-opacity="1.000000" stroke-width="0.634167"/>
	<rect id="Frame 2043683075" rx="18.775000" width="100.966660" height="100.966667" transform="translate(270.823242 253.011963) rotate(10.000000)" stroke="#202027" stroke-opacity="1.000000" stroke-width="0.500000"/>
	<rect id="Frame 2043683066" rx="18.775000" width="100.966660" height="100.966667" transform="translate(378.320312 271.966553) rotate(10.000000)" fill="#D9B6FF" fill-opacity="1.000000"/>
	<path id="8" d="M429.86 334.72Q429.12 332.9 427.4 331.45Q428.73 330.83 429.67 329.83Q429.87 329.62 430.05 329.4Q430.28 329.11 430.47 328.79Q431.15 327.7 431.39 326.34Q431.66 324.83 431.35 323.46Q431.16 322.6 430.75 321.79Q430.74 321.77 430.72 321.74Q429.65 319.67 427.32 318.24Q424.96 316.79 421.69 316.21Q418.41 315.63 415.69 316.19Q413.02 316.73 411.29 318.31Q411.27 318.33 411.24 318.35Q410.59 318.96 410.13 319.68Q409.36 320.88 409.09 322.4Q408.85 323.76 409.11 325.02Q409.18 325.39 409.3 325.74Q409.39 326.01 409.5 326.27Q410.04 327.53 411.08 328.57Q408.97 329.35 407.64 330.8Q407.35 331.12 407.1 331.47Q406.23 332.72 405.94 334.37Q405.64 336.04 406 337.56Q406.2 338.45 406.63 339.29Q407.8 341.54 410.36 343.11Q412.93 344.67 416.53 345.31Q420.13 345.94 423.07 345.35Q426.03 344.76 427.89 343.03Q428.6 342.38 429.11 341.6Q429.95 340.31 430.24 338.66Q430.53 337.03 430.15 335.58Q430.03 335.14 429.86 334.72ZM418.41 322Q419.39 321.54 420.7 321.77Q422.14 322.03 422.91 322.88Q422.96 322.93 423 322.98Q423.23 323.26 423.37 323.58Q423.71 324.34 423.53 325.32Q423.37 326.23 422.85 326.8Q422.59 327.09 422.24 327.3Q422.18 327.33 422.12 327.36Q421.1 327.9 419.66 327.65Q418.21 327.39 417.45 326.53Q417.42 326.49 417.38 326.44Q417.14 326.15 417 325.81Q416.69 325.08 416.86 324.15Q417.03 323.16 417.61 322.57Q417.85 322.31 418.16 322.13Q418.28 322.06 418.41 322ZM420.74 339.36Q419.44 340.1 417.52 339.76Q415.59 339.42 414.62 338.28Q414.24 337.83 414.05 337.3Q413.76 336.5 413.93 335.54Q414.11 334.56 414.67 333.9Q415.02 333.49 415.52 333.21Q415.52 333.2 415.52 333.2Q416.83 332.46 418.75 332.8Q420.67 333.14 421.63 334.28L421.63 334.28Q422.02 334.73 422.2 335.25Q422.5 336.05 422.33 337.02Q422.16 337.97 421.63 338.62Q421.26 339.06 420.74 339.36Z" fill="#FFFFFF" fill-opacity="1.000000" fill-rule="evenodd"/>
	<path id="8" d="M427.4 331.45Q429.12 332.9 429.86 334.72Q430.61 336.54 430.24 338.66Q429.77 341.3 427.89 343.03Q426.03 344.76 423.07 345.35Q420.13 345.94 416.53 345.31Q412.93 344.67 410.36 343.11Q407.8 341.54 406.63 339.29Q405.47 337.02 405.94 334.37Q406.31 332.26 407.64 330.8Q408.97 329.35 411.08 328.57Q409.83 327.31 409.3 325.74Q408.78 324.16 409.09 322.4Q409.52 319.96 411.24 318.35Q412.98 316.74 415.69 316.19Q418.41 315.63 421.69 316.21Q424.96 316.79 427.32 318.24Q429.68 319.69 430.75 321.79Q431.83 323.9 431.39 326.34Q431.08 328.09 430.05 329.4Q429.01 330.7 427.4 331.45ZM420.7 321.77Q419.23 321.51 418.16 322.13Q417.11 322.75 416.86 324.15Q416.62 325.5 417.38 326.44Q418.14 327.38 419.66 327.65Q421.18 327.92 422.24 327.3Q423.29 326.68 423.53 325.32Q423.78 323.93 423 322.98Q422.22 322.04 420.7 321.77ZM417.52 339.76Q419.44 340.1 420.74 339.36Q422.04 338.61 422.33 337.02Q422.61 335.42 421.63 334.28Q420.67 333.14 418.75 332.8Q416.82 332.46 415.52 333.21Q414.22 333.94 413.93 335.54Q413.65 337.13 414.62 338.28Q415.59 339.42 417.52 339.76Z" stroke="#202027" stroke-opacity="1.000000" stroke-width="0.634167"/>
	<rect id="Frame 2043683066" rx="18.775000" width="100.966660" height="100.966667" transform="translate(378.320312 271.966553) rotate(10.000000)" stroke="#202027" stroke-opacity="1.000000" stroke-width="0.500000"/>
	<rect id="Frame 2043683067" rx="18.775000" width="100.966660" height="100.966667" transform="translate(485.817383 290.921143) rotate(10.000000)" fill="#D9B6FF" fill-opacity="1.000000"/>
	<path id="36" d="M545.96 349.94Q544.22 348.87 542.06 348.49Q538.53 347.86 535.93 349.14Q535.64 349.28 535.37 349.45Q536.12 346.68 537.93 345.31Q538.14 345.14 538.38 345Q538.72 344.79 539.08 344.62Q541.03 343.74 543.59 344.19Q546.72 344.74 548.5 346.53L552.39 341.36Q551.04 340.1 548.98 339.2Q546.91 338.29 544.51 337.87Q540.07 337.09 536.4 338.3Q534.92 338.78 533.63 339.58Q531.72 340.76 530.24 342.64Q527.78 345.77 526.93 350.56Q525.8 356.93 528.34 361.02Q528.46 361.22 528.59 361.4Q529.18 362.26 529.89 362.98Q532.67 365.79 537.44 366.63Q540.52 367.17 543.23 366.44Q545.09 365.93 546.54 364.86Q547.2 364.38 547.77 363.78Q548.28 363.25 548.7 362.64Q549.76 361.06 550.13 359.01Q550.47 357.09 550.04 355.36Q549.89 354.75 549.65 354.17Q549.26 353.24 548.69 352.44Q547.87 351.31 546.69 350.44Q546.34 350.17 545.96 349.94ZM522.58 349Q521.1 346.59 517.81 345.29L524.71 340.07L525.59 335.12L505.36 331.55L504.28 337.66L515.31 339.6L509.36 344.12L508.48 349.11L511.8 349.7Q514.84 350.24 515.47 351.77Q515.73 352.39 515.59 353.18Q515.47 353.85 515.1 354.32Q514.7 354.83 514.01 355.12Q512.67 355.67 510.63 355.31Q508.63 354.96 506.68 354Q504.73 353.03 503.29 351.62L499.36 357.08Q501.24 358.77 504.01 360Q505.85 360.81 507.76 361.31Q508.74 361.57 509.74 361.74Q513.77 362.45 516.75 361.64Q519.72 360.83 521.43 358.94Q522.34 357.94 522.89 356.77Q523.37 355.74 523.58 354.58Q523.92 352.65 523.44 350.95Q523.17 349.98 522.63 349.08Q522.61 349.04 522.58 349ZM540.36 360.7Q539.3 361.15 537.95 360.91Q536.37 360.63 535.49 359.69Q535.37 359.57 535.27 359.43Q534.94 358.99 534.77 358.49Q534.49 357.67 534.67 356.7Q534.84 355.68 535.42 355Q535.74 354.61 536.19 354.32Q536.45 354.16 536.73 354.04Q537.81 353.59 539.17 353.83Q540.61 354.09 541.47 354.93Q541.63 355.1 541.77 355.28Q542.07 355.66 542.24 356.09Q542.57 356.95 542.38 358.02Q542.18 359.16 541.52 359.89Q541.23 360.2 540.86 360.44Q540.62 360.59 540.36 360.7Z" fill="#FFFFFF" fill-opacity="1.000000" fill-rule="evenodd"/>
	<path id="36" d="M517.81 345.29Q521.16 346.61 522.63 349.08Q524.12 351.55 523.58 354.58Q523.14 357.06 521.43 358.94Q519.72 360.83 516.75 361.64Q513.77 362.45 509.74 361.74Q506.79 361.22 504.01 360Q501.24 358.77 499.36 357.08L503.29 351.62Q504.73 353.03 506.68 354Q508.63 354.96 510.63 355.31Q512.67 355.67 514.01 355.12Q515.34 354.57 515.59 353.18Q516.07 350.45 511.8 349.7L508.48 349.11L509.36 344.12L515.31 339.6L504.28 337.66L505.36 331.55L525.59 335.12L524.71 340.07L517.81 345.29ZM542.06 348.49Q544.69 348.95 546.69 350.44Q548.7 351.92 549.65 354.17Q550.59 356.42 550.13 359.01Q549.62 361.85 547.77 363.78Q545.93 365.7 543.23 366.44Q540.52 367.17 537.44 366.63Q531.44 365.57 528.59 361.4Q525.75 357.23 526.93 350.56Q527.78 345.77 530.24 342.64Q532.72 339.5 536.4 338.3Q540.07 337.09 544.51 337.87Q546.91 338.29 548.98 339.2Q551.04 340.1 552.39 341.36L548.5 346.53Q546.72 344.74 543.59 344.19Q540.56 343.65 538.38 345Q536.21 346.35 535.37 349.45Q538.14 347.79 542.06 348.49ZM537.95 360.91Q539.63 361.21 540.86 360.44Q542.09 359.66 542.38 358.02Q542.67 356.42 541.77 355.28Q540.89 354.13 539.17 353.83Q537.45 353.53 536.19 354.32Q534.95 355.11 534.67 356.7Q534.39 358.26 535.27 359.43Q536.16 360.6 537.95 360.91Z" stroke="#202027" stroke-opacity="1.000000" stroke-width="0.634167"/>
	<rect id="Frame 2043683067" rx="18.775000" width="100.966660" height="100.966667" transform="translate(485.817383 290.921143) rotate(10.000000)" stroke="#202027" stroke-opacity="1.000000" stroke-width="0.500000"/>
	<rect id="Frame 2043683074" rx="18.775000" width="100.966660" height="100.966667" transform="translate(36.888672 322.522217) rotate(10.000000)" fill="#D9B6FF" fill-opacity="1.000000"/>
	<path id="9" d="M86.52 370.24Q83.73 367.38 78.9 366.53Q75.96 366.01 73.33 366.69Q73.24 366.71 73.15 366.73Q71.34 367.23 69.9 368.26Q69.2 368.77 68.6 369.4Q68.1 369.92 67.69 370.51Q66.62 372.09 66.26 374.15Q65.91 376.11 66.35 377.87Q66.5 378.45 66.73 379Q67.12 379.91 67.67 380.69Q68.49 381.85 69.68 382.73Q70 382.97 70.34 383.19Q72.11 384.3 74.32 384.69Q77.81 385.3 80.4 384.05Q80.69 383.91 80.96 383.76Q80.15 386.58 78.28 387.94Q78.1 388.07 77.92 388.18Q77.58 388.39 77.23 388.55Q75.3 389.43 72.78 388.98Q69.65 388.43 67.87 386.64L63.99 391.8Q65.34 393.04 67.4 393.95Q69.47 394.87 71.82 395.29Q76.26 396.07 79.95 394.87Q81.53 394.36 82.88 393.49Q84.7 392.34 86.11 390.54Q88.59 387.41 89.44 382.62Q90.57 376.26 88.03 372.17Q87.91 371.97 87.77 371.77Q87.21 370.94 86.52 370.24ZM79.67 379.12Q78.59 379.59 77.2 379.34Q75.76 379.09 74.9 378.24Q74.73 378.08 74.59 377.89Q74.29 377.5 74.12 377.06Q73.8 376.2 73.99 375.15Q74.19 373.99 74.87 373.26Q75.15 372.97 75.5 372.74Q75.76 372.58 76.05 372.46Q77.09 372.03 78.41 372.26Q79.99 372.54 80.86 373.47Q80.98 373.6 81.09 373.75Q81.44 374.2 81.61 374.71Q81.87 375.51 81.71 376.46Q81.53 377.48 80.95 378.17Q80.62 378.57 80.16 378.86Q79.93 379.01 79.67 379.12Z" fill="#FFFFFF" fill-opacity="1.000000" fill-rule="evenodd"/>
	<path id="9" d="M78.9 366.53Q84.93 367.59 87.77 371.77Q90.62 375.94 89.44 382.62Q88.59 387.41 86.11 390.54Q83.65 393.67 79.95 394.87Q76.26 396.07 71.82 395.29Q69.47 394.87 67.4 393.95Q65.34 393.04 63.99 391.8L67.87 386.64Q69.65 388.43 72.78 388.98Q75.77 389.51 77.92 388.18Q80.08 386.85 80.96 383.76Q78.2 385.37 74.32 384.69Q71.68 384.22 69.68 382.73Q67.68 381.24 66.73 379Q65.79 376.76 66.26 374.15Q66.76 371.32 68.6 369.4Q70.45 367.47 73.15 366.73Q75.86 365.99 78.9 366.53ZM77.2 379.34Q78.92 379.64 80.16 378.86Q81.42 378.06 81.71 376.46Q81.98 374.91 81.09 373.75Q80.21 372.58 78.41 372.26Q76.74 371.96 75.5 372.74Q74.28 373.51 73.99 375.15Q73.71 376.74 74.59 377.89Q75.48 379.04 77.2 379.34Z" stroke="#202027" stroke-opacity="1.000000" stroke-width="0.634167"/>
	<rect id="Frame 2043683074" rx="18.775000" width="100.966660" height="100.966667" transform="translate(36.888672 322.522217) rotate(10.000000)" stroke="#202027" stroke-opacity="1.000000" stroke-width="0.500000"/>
	<rect id="Frame 2043683068" rx="18.775000" width="100.966660" height="100.966667" transform="translate(144.384766 341.476929) rotate(10.000000)" fill="#D9B6FF" fill-opacity="1.000000"/>
	<path id="4" d="M193.26 410.6L197.42 411.33L198.53 405.06L194.37 404.33L195.21 399.58L187.74 398.26L186.9 403.01L181.22 402.01L195.5 387.67L187.31 386.23L171.67 401.48L170.76 406.63L185.54 409.24L184.59 414.6L192.31 415.96L193.26 410.6Z" fill="#FFFFFF" fill-opacity="1.000000" fill-rule="evenodd"/>
	<path id="4" d="M197.42 411.33L193.26 410.6L192.31 415.96L184.59 414.6L185.54 409.24L170.76 406.63L171.67 401.48L187.31 386.23L195.5 387.67L181.22 402.01L186.9 403.01L187.74 398.26L195.21 399.58L194.37 404.33L198.53 405.06L197.42 411.33Z" stroke="#202027" stroke-opacity="1.000000" stroke-width="0.634167"/>
	<rect id="Frame 2043683068" rx="18.775000" width="100.966660" height="100.966667" transform="translate(144.384766 341.476929) rotate(10.000000)" stroke="#202027" stroke-opacity="1.000000" stroke-width="0.500000"/>
	<rect id="Frame 2043683069" rx="18.775000" width="100.966660" height="100.966667" transform="translate(251.881836 360.431519) rotate(10.000000)" fill="#D9B6FF" fill-opacity="1.000000"/>
	<path id="92" d="M289.7 406.06Q286.92 403.21 282.08 402.36Q279.14 401.84 276.51 402.51Q276.42 402.54 276.34 402.56Q274.52 403.06 273.09 404.09Q272.39 404.6 271.78 405.23Q271.28 405.75 270.88 406.34Q269.8 407.92 269.44 409.98Q269.09 411.94 269.54 413.7Q269.68 414.27 269.92 414.83Q270.3 415.74 270.85 416.52Q271.67 417.67 272.86 418.56Q273.18 418.8 273.53 419.02Q275.29 420.12 277.5 420.52Q281 421.13 283.59 419.88Q283.87 419.74 284.14 419.58Q283.34 422.41 281.46 423.76Q281.29 423.89 281.1 424.01Q280.76 424.22 280.41 424.38Q278.48 425.26 275.96 424.81Q272.84 424.26 271.05 422.47L267.18 427.63Q268.52 428.86 270.58 429.78Q272.65 430.7 275 431.11Q279.44 431.89 283.14 430.69Q284.71 430.18 286.06 429.32Q287.88 428.16 289.3 426.37Q291.78 423.23 292.62 418.44Q293.75 412.09 291.22 408Q291.09 407.79 290.95 407.59Q290.39 406.77 289.7 406.06ZM314.03 437.42L315.14 431.15L304.35 429.24L310.49 425.3Q313.75 423.23 315.08 421.39Q315.66 420.59 316.06 419.71Q316.59 418.55 316.82 417.26Q317.13 415.5 316.73 413.9Q316.56 413.2 316.24 412.52Q316.1 412.23 315.93 411.94Q314.9 410.14 312.93 408.87Q310.66 407.39 307.46 406.83Q303.43 406.12 300.18 407.16Q297.97 407.87 296.28 409.23Q295.5 409.86 294.83 410.62L300.13 414.94Q300.92 414.08 301.88 413.61Q302.24 413.43 302.63 413.3Q303.01 413.18 303.4 413.1Q304.47 412.9 305.61 413.11Q307.37 413.41 308.15 414.34Q308.39 414.62 308.54 414.95Q308.86 415.68 308.69 416.62Q308.68 416.66 308.68 416.69Q308.48 417.69 307.81 418.58Q307.11 419.51 305.33 420.68L293.13 428.62L292.25 433.58L314.03 437.42ZM282.85 414.94Q281.77 415.41 280.38 415.17Q278.95 414.91 278.09 414.07Q277.92 413.91 277.77 413.72Q277.47 413.33 277.31 412.89Q276.98 412.03 277.17 410.98Q277.38 409.81 278.05 409.09Q278.33 408.79 278.68 408.57Q278.95 408.4 279.23 408.29Q280.28 407.85 281.6 408.09Q283.17 408.36 284.04 409.3Q284.16 409.43 284.27 409.57Q284.62 410.03 284.79 410.54Q285.06 411.34 284.89 412.29Q284.71 413.3 284.14 413.99Q283.81 414.39 283.35 414.68Q283.11 414.83 282.85 414.94Z" fill="#FFFFFF" fill-opacity="1.000000" fill-rule="evenodd"/>
	<path id="92" d="M282.08 402.36Q288.11 403.42 290.95 407.59Q293.81 411.77 292.62 418.44Q291.78 423.23 289.3 426.37Q286.83 429.49 283.14 430.69Q279.44 431.89 275 431.11Q272.65 430.7 270.58 429.78Q268.52 428.86 267.18 427.63L271.05 422.47Q272.84 424.26 275.96 424.81Q278.95 425.34 281.1 424.01Q283.26 422.68 284.14 419.58Q281.38 421.2 277.5 420.52Q274.86 420.05 272.86 418.56Q270.86 417.07 269.92 414.83Q268.98 412.58 269.44 409.98Q269.94 407.15 271.78 405.23Q273.63 403.3 276.34 402.56Q279.04 401.82 282.08 402.36ZM280.38 415.17Q282.1 415.47 283.35 414.68Q284.6 413.89 284.89 412.29Q285.16 410.74 284.27 409.57Q283.39 408.4 281.6 408.09Q279.92 407.79 278.68 408.57Q277.46 409.34 277.17 410.98Q276.89 412.57 277.77 413.72Q278.67 414.86 280.38 415.17ZM315.14 431.15L314.03 437.42L292.25 433.58L293.13 428.62L305.33 420.68Q307.11 419.51 307.81 418.58Q308.51 417.65 308.69 416.62Q308.93 415.25 308.15 414.34Q307.37 413.41 305.61 413.11Q304.05 412.83 302.63 413.3Q301.21 413.77 300.13 414.94L294.83 410.62Q296.95 408.2 300.18 407.16Q303.43 406.12 307.46 406.83Q310.66 407.39 312.93 408.87Q315.21 410.34 316.24 412.52Q317.27 414.71 316.82 417.26Q316.42 419.54 315.08 421.39Q313.75 423.23 310.49 425.3L304.35 429.24L315.14 431.15Z" stroke="#202027" stroke-opacity="1.000000" stroke-width="0.634167"/>
	<rect id="Frame 2043683069" rx="18.775000" width="100.966660" height="100.966667" transform="translate(251.881836 360.431519) rotate(10.000000)" stroke="#202027" stroke-opacity="1.000000" stroke-width="0.500000"/>
	<rect id="Frame 2043683070" rx="18.775000" width="100.966660" height="100.966667" transform="translate(359.378906 379.386108) rotate(10.000000)" fill="#D9B6FF" fill-opacity="1.000000"/>
	<path id="10" d="M400.66 452.13Q402.84 453.65 405.73 454.16Q408.42 454.64 410.86 454.05Q411.64 453.86 412.38 453.56Q412.95 453.34 413.48 453.06Q415.88 451.79 417.64 449.32Q419.81 446.3 420.61 441.78Q421.41 437.28 420.41 433.7Q419.6 430.77 417.78 428.76Q417.38 428.32 416.93 427.91Q416.31 427.36 415.62 426.91Q413.55 425.54 410.88 425.07Q408.02 424.56 405.47 425.24Q404.81 425.41 404.17 425.66Q403.65 425.87 403.16 426.12Q400.71 427.39 398.91 429.91Q396.75 432.93 395.95 437.44Q395.15 441.95 396.14 445.53Q396.97 448.51 398.84 450.54Q399.21 450.95 399.63 451.32Q400.12 451.75 400.66 452.13ZM389.27 450.69L394.23 422.71L381.12 420.4L380.04 426.51L385.23 427.43L381.36 449.29L389.27 450.69ZM408.29 447.67Q407.62 447.82 406.87 447.69Q406.08 447.55 405.47 447.14Q404.51 446.5 403.99 445.18Q403.16 443.03 403.9 438.84Q404.64 434.64 406.17 432.92Q407.1 431.86 408.22 431.58Q408.94 431.41 409.73 431.55Q410.48 431.68 411.06 432.06Q412.04 432.7 412.56 434.05Q413.4 436.19 412.65 440.38Q411.91 444.58 410.39 446.31Q409.44 447.4 408.29 447.67Z" fill="#FFFFFF" fill-opacity="1.000000" fill-rule="evenodd"/>
	<path id="10" d="M394.23 422.71L389.27 450.69L381.36 449.29L385.23 427.43L380.04 426.51L381.12 420.4L394.23 422.71ZM405.73 454.16Q402.12 453.53 399.63 451.32Q397.14 449.11 396.14 445.53Q395.15 441.95 395.95 437.44Q396.75 432.93 398.91 429.91Q401.08 426.89 404.17 425.66Q407.28 424.43 410.88 425.07Q414.43 425.69 416.93 427.91Q419.42 430.12 420.41 433.7Q421.41 437.28 420.61 441.78Q419.81 446.3 417.64 449.32Q415.49 452.34 412.38 453.56Q409.28 454.79 405.73 454.16ZM406.87 447.69Q408.87 448.05 410.39 446.31Q411.91 444.58 412.65 440.38Q413.4 436.19 412.56 434.05Q411.73 431.9 409.73 431.55Q407.69 431.19 406.17 432.92Q404.64 434.64 403.9 438.84Q403.16 443.03 403.99 445.18Q404.83 447.33 406.87 447.69Z" stroke="#202027" stroke-opacity="1.000000" stroke-width="0.634167"/>
	<rect id="Frame 2043683070" rx="18.775000" width="100.966660" height="100.966667" transform="translate(359.378906 379.386108) rotate(10.000000)" stroke="#202027" stroke-opacity="1.000000" stroke-width="0.500000"/>
	<rect id="Frame 2043683071" rx="18.775000" width="100.966660" height="100.966667" transform="translate(466.875977 398.340698) rotate(10.000000)" fill="#D9B6FF" fill-opacity="1.000000"/>
	<path id="7" d="M520.76 450.14L521.63 445.18L498.45 441.09L496.57 451.68L503.33 452.87L504.09 448.56L511.45 449.85L498.17 469.89L506.8 471.41L520.76 450.14Z" fill="#FFFFFF" fill-opacity="1.000000" fill-rule="evenodd"/>
	<path id="7" d="M521.63 445.18L520.76 450.14L506.8 471.41L498.17 469.89L511.45 449.85L504.09 448.56L503.33 452.87L496.57 451.68L498.45 441.09L521.63 445.18Z" stroke="#202027" stroke-opacity="1.000000" stroke-width="0.634167"/>
	<rect id="Frame 2043683071" rx="18.775000" width="100.966660" height="100.966667" transform="translate(466.875977 398.340698) rotate(10.000000)" stroke="#202027" stroke-opacity="1.000000" stroke-width="0.500000"/>
	<rect id="Frame 2043683129" rx="18.775000" width="100.966660" height="100.966667" transform="translate(17.947266 429.941772) rotate(10.000000)" fill="#D9B6FF" fill-opacity="1.000000"/>
	<path id="9" d="M67.58 477.66Q64.79 474.8 59.95 473.95Q57.02 473.43 54.38 474.11Q54.3 474.13 54.21 474.15Q52.39 474.65 50.96 475.68Q50.26 476.19 49.65 476.82Q49.15 477.34 48.75 477.93Q47.68 479.51 47.31 481.57Q46.97 483.53 47.41 485.29Q47.56 485.87 47.79 486.42Q48.17 487.33 48.73 488.11Q49.54 489.27 50.73 490.15Q51.06 490.39 51.4 490.61Q53.17 491.72 55.38 492.11Q58.87 492.72 61.46 491.47Q61.74 491.33 62.02 491.18Q61.21 494 59.34 495.36Q59.16 495.49 58.98 495.6Q58.64 495.81 58.28 495.97Q56.36 496.85 53.83 496.4Q50.71 495.85 48.93 494.06L45.05 499.22Q46.39 500.45 48.46 501.37Q50.53 502.29 52.88 502.7Q57.32 503.49 61.01 502.29Q62.59 501.78 63.94 500.91Q65.76 499.75 67.17 497.96Q69.65 494.83 70.5 490.04Q71.62 483.68 69.09 479.59Q68.97 479.39 68.83 479.19Q68.27 478.36 67.58 477.66ZM60.73 486.54Q59.65 487 58.26 486.76Q56.82 486.51 55.96 485.66Q55.79 485.5 55.65 485.31Q55.35 484.92 55.18 484.48Q54.86 483.62 55.05 482.57Q55.25 481.41 55.93 480.68Q56.21 480.39 56.56 480.16Q56.82 480 57.11 479.88Q58.15 479.45 59.47 479.68Q61.04 479.96 61.91 480.89Q62.04 481.02 62.15 481.17Q62.49 481.62 62.66 482.13Q62.93 482.93 62.76 483.88Q62.58 484.9 62.01 485.59Q61.68 485.99 61.22 486.28Q60.99 486.43 60.73 486.54Z" fill="#FFFFFF" fill-opacity="1.000000" fill-rule="evenodd"/>
	<path id="9" d="M59.95 473.95Q65.99 475.01 68.83 479.19Q71.68 483.36 70.5 490.04Q69.65 494.83 67.17 497.96Q64.71 501.09 61.01 502.29Q57.32 503.49 52.88 502.7Q50.53 502.29 48.46 501.37Q46.39 500.45 45.05 499.22L48.93 494.06Q50.71 495.85 53.83 496.4Q56.83 496.93 58.98 495.6Q61.14 494.27 62.02 491.18Q59.25 492.79 55.38 492.11Q52.74 491.64 50.73 490.15Q48.73 488.66 47.79 486.42Q46.85 484.18 47.31 481.57Q47.82 478.74 49.65 476.82Q51.51 474.89 54.21 474.15Q56.92 473.41 59.95 473.95ZM58.26 486.76Q59.98 487.06 61.22 486.28Q62.48 485.48 62.76 483.88Q63.04 482.33 62.15 481.17Q61.27 480 59.47 479.68Q57.79 479.38 56.56 480.16Q55.34 480.93 55.05 482.57Q54.76 484.16 55.65 485.31Q56.54 486.46 58.26 486.76Z" stroke="#202027" stroke-opacity="1.000000" stroke-width="0.634167"/>
	<rect id="Frame 2043683129" rx="18.775000" width="100.966660" height="100.966667" transform="translate(17.947266 429.941772) rotate(10.000000)" stroke="#202027" stroke-opacity="1.000000" stroke-width="0.500000"/>
	<rect id="Frame 2043683130" rx="18.775000" width="100.966660" height="100.966667" transform="translate(125.444336 448.896362) rotate(10.000000)" fill="#D9B6FF" fill-opacity="1.000000"/>
	<path id="4" d="M174.32 518.02L178.48 518.75L179.59 512.48L175.43 511.75L176.27 507L168.8 505.68L167.96 510.43L162.28 509.43L176.56 495.09L168.37 493.65L152.73 508.9L151.82 514.05L166.6 516.66L165.65 522.02L173.37 523.38L174.32 518.02Z" fill="#FFFFFF" fill-opacity="1.000000" fill-rule="evenodd"/>
	<path id="4" d="M178.48 518.75L174.32 518.02L173.37 523.38L165.65 522.02L166.6 516.66L151.82 514.05L152.73 508.9L168.37 493.65L176.56 495.09L162.28 509.43L167.96 510.43L168.8 505.68L176.27 507L175.43 511.75L179.59 512.48L178.48 518.75Z" stroke="#202027" stroke-opacity="1.000000" stroke-width="0.634167"/>
	<rect id="Frame 2043683130" rx="18.775000" width="100.966660" height="100.966667" transform="translate(125.444336 448.896362) rotate(10.000000)" stroke="#202027" stroke-opacity="1.000000" stroke-width="0.500000"/>
	<rect id="Frame 2043683131" rx="18.775000" width="100.966660" height="100.966667" transform="translate(232.941406 467.851074) rotate(10.000000)" fill="#D9B6FF" fill-opacity="1.000000"/>
	<path id="92" d="M270.76 513.48Q267.98 510.63 263.14 509.78Q260.2 509.26 257.57 509.93Q257.48 509.96 257.4 509.98Q255.58 510.48 254.15 511.51Q253.45 512.01 252.84 512.65Q252.34 513.17 251.94 513.76Q250.86 515.34 250.5 517.4Q250.15 519.36 250.6 521.12Q250.74 521.69 250.98 522.25Q251.36 523.15 251.91 523.94Q252.73 525.09 253.92 525.98Q254.24 526.22 254.59 526.44Q256.35 527.54 258.56 527.93Q262.06 528.55 264.65 527.3Q264.93 527.16 265.2 527Q264.39 529.83 262.52 531.18Q262.35 531.31 262.16 531.43Q261.82 531.64 261.47 531.8Q259.54 532.68 257.02 532.23Q253.9 531.68 252.11 529.89L248.24 535.05Q249.58 536.28 251.64 537.2Q253.71 538.12 256.06 538.53Q260.5 539.31 264.2 538.11Q265.77 537.6 267.12 536.74Q268.94 535.58 270.36 533.79Q272.83 530.65 273.68 525.86Q274.81 519.51 272.28 515.42Q272.15 515.21 272.01 515.01Q271.45 514.19 270.76 513.48ZM295.09 544.84L296.2 538.57L285.41 536.66L291.55 532.71Q294.81 530.65 296.14 528.81Q296.72 528.01 297.12 527.13Q297.65 525.97 297.88 524.68Q298.19 522.92 297.79 521.32Q297.62 520.62 297.3 519.94Q297.16 519.65 296.99 519.36Q295.96 517.56 293.99 516.29Q291.72 514.81 288.51 514.25Q284.49 513.54 281.24 514.58Q279.03 515.29 277.33 516.65Q276.56 517.28 275.89 518.04L281.19 522.36Q281.97 521.5 282.94 521.03Q283.3 520.85 283.69 520.72Q284.07 520.59 284.46 520.52Q285.53 520.32 286.67 520.52Q288.43 520.83 289.21 521.76Q289.45 522.04 289.6 522.37Q289.92 523.09 289.75 524.04Q289.74 524.08 289.74 524.11Q289.54 525.11 288.87 526Q288.17 526.93 286.39 528.1L274.19 536.04L273.31 541L295.09 544.84ZM263.91 522.36Q262.83 522.83 261.44 522.59Q260.01 522.33 259.15 521.49Q258.98 521.33 258.83 521.14Q258.53 520.75 258.37 520.31Q258.04 519.45 258.23 518.4Q258.44 517.23 259.11 516.51Q259.39 516.21 259.74 515.99Q260.01 515.82 260.29 515.71Q261.34 515.27 262.66 515.51Q264.23 515.78 265.1 516.71Q265.22 516.85 265.33 516.99Q265.68 517.45 265.85 517.96Q266.12 518.76 265.95 519.71Q265.77 520.72 265.2 521.41Q264.87 521.81 264.41 522.1Q264.17 522.25 263.91 522.36Z" fill="#FFFFFF" fill-opacity="1.000000" fill-rule="evenodd"/>
	<path id="92" d="M263.14 509.78Q269.17 510.84 272.01 515.01Q274.87 519.19 273.68 525.86Q272.83 530.65 270.36 533.79Q267.89 536.91 264.2 538.11Q260.5 539.31 256.06 538.53Q253.71 538.12 251.64 537.2Q249.58 536.28 248.24 535.05L252.11 529.89Q253.9 531.68 257.02 532.23Q260.01 532.76 262.16 531.43Q264.32 530.1 265.2 527Q262.44 528.62 258.56 527.93Q255.92 527.47 253.92 525.98Q251.92 524.49 250.98 522.25Q250.04 520 250.5 517.4Q251 514.57 252.84 512.65Q254.69 510.72 257.4 509.98Q260.1 509.24 263.14 509.78ZM261.44 522.59Q263.16 522.89 264.41 522.1Q265.66 521.31 265.95 519.71Q266.22 518.16 265.33 516.99Q264.45 515.82 262.66 515.51Q260.98 515.21 259.74 515.99Q258.52 516.76 258.23 518.4Q257.95 519.99 258.83 521.14Q259.73 522.28 261.44 522.59ZM296.2 538.57L295.09 544.84L273.31 541L274.19 536.04L286.39 528.1Q288.17 526.93 288.87 526Q289.57 525.07 289.75 524.04Q289.99 522.67 289.21 521.76Q288.43 520.83 286.67 520.52Q285.11 520.25 283.69 520.72Q282.26 521.19 281.19 522.36L275.89 518.04Q278.01 515.62 281.24 514.58Q284.49 513.54 288.51 514.25Q291.72 514.81 293.99 516.29Q296.27 517.76 297.3 519.94Q298.33 522.13 297.88 524.68Q297.47 526.96 296.14 528.81Q294.81 530.65 291.55 532.71L285.41 536.66L296.2 538.57Z" stroke="#202027" stroke-opacity="1.000000" stroke-width="0.634167"/>
	<rect id="Frame 2043683131" rx="18.775000" width="100.966660" height="100.966667" transform="translate(232.941406 467.851074) rotate(10.000000)" stroke="#202027" stroke-opacity="1.000000" stroke-width="0.500000"/>
	<rect id="Frame 2043683132" rx="18.775000" width="100.966660" height="100.966667" transform="translate(340.438477 486.805664) rotate(10.000000)" fill="#D9B6FF" fill-opacity="1.000000"/>
	<path id="10" d="M381.72 559.55Q383.89 561.07 386.78 561.58Q389.48 562.06 391.92 561.46Q392.69 561.28 393.44 560.98Q394.01 560.76 394.54 560.48Q396.94 559.21 398.7 556.74Q400.87 553.72 401.67 549.2Q402.47 544.7 401.47 541.12Q400.66 538.19 398.84 536.18Q398.44 535.73 397.99 535.33Q397.37 534.78 396.68 534.33Q394.61 532.96 391.94 532.49Q389.08 531.98 386.52 532.66Q385.87 532.83 385.23 533.08Q384.71 533.29 384.22 533.54Q381.77 534.81 379.97 537.33Q377.81 540.35 377.01 544.86Q376.21 549.37 377.2 552.95Q378.03 555.93 379.9 557.96Q380.27 558.37 380.69 558.74Q381.18 559.17 381.72 559.55ZM370.33 558.11L375.29 530.13L362.18 527.82L361.1 533.93L366.29 534.85L362.42 556.71L370.33 558.11ZM389.35 555.09Q388.68 555.24 387.93 555.11Q387.14 554.97 386.53 554.56Q385.57 553.92 385.05 552.6Q384.22 550.45 384.96 546.26Q385.7 542.06 387.23 540.34Q388.16 539.28 389.28 539Q390 538.82 390.79 538.96Q391.54 539.09 392.12 539.48Q393.1 540.12 393.62 541.46Q394.46 543.61 393.71 547.8Q392.97 552 391.45 553.73Q390.49 554.82 389.35 555.09Z" fill="#FFFFFF" fill-opacity="1.000000" fill-rule="evenodd"/>
	<path id="10" d="M375.29 530.13L370.33 558.11L362.42 556.71L366.29 534.85L361.1 533.93L362.18 527.82L375.29 530.13ZM386.78 561.58Q383.18 560.95 380.69 558.74Q378.2 556.53 377.2 552.95Q376.21 549.37 377.01 544.86Q377.81 540.35 379.97 537.33Q382.14 534.31 385.23 533.08Q388.34 531.85 391.94 532.49Q395.49 533.11 397.99 535.33Q400.48 537.54 401.47 541.12Q402.47 544.7 401.67 549.2Q400.87 553.72 398.7 556.74Q396.55 559.76 393.44 560.98Q390.34 562.21 386.78 561.58ZM387.93 555.11Q389.93 555.46 391.45 553.73Q392.97 552 393.71 547.8Q394.46 543.61 393.62 541.46Q392.79 539.32 390.79 538.96Q388.75 538.61 387.23 540.34Q385.7 542.06 384.96 546.26Q384.22 550.45 385.05 552.6Q385.89 554.75 387.93 555.11Z" stroke="#202027" stroke-opacity="1.000000" stroke-width="0.634167"/>
	<rect id="Frame 2043683132" rx="18.775000" width="100.966660" height="100.966667" transform="translate(340.438477 486.805664) rotate(10.000000)" stroke="#202027" stroke-opacity="1.000000" stroke-width="0.500000"/>
	<rect id="Frame 2043683133" rx="18.775000" width="100.966660" height="100.966667" transform="translate(447.934570 505.760254) rotate(10.000000)" fill="#D9B6FF" fill-opacity="1.000000"/>
	<path id="7" d="M501.82 557.56L502.69 552.6L479.51 548.51L477.63 559.1L484.38 560.29L485.15 555.97L492.51 557.27L479.23 577.31L487.86 578.83L501.82 557.56Z" fill="#FFFFFF" fill-opacity="1.000000" fill-rule="evenodd"/>
	<path id="7" d="M502.69 552.6L501.82 557.56L487.86 578.83L479.23 577.31L492.51 557.27L485.15 555.97L484.38 560.29L477.63 559.1L479.51 548.51L502.69 552.6Z" stroke="#202027" stroke-opacity="1.000000" stroke-width="0.634167"/>
	<rect id="Frame 2043683133" rx="18.775000" width="100.966660" height="100.966667" transform="translate(447.934570 505.760254) rotate(10.000000)" stroke="#202027" stroke-opacity="1.000000" stroke-width="0.500000"/>
</svg>
